<?xml version="1.0" encoding="utf-8"?>
<!-- Generator: Adobe Illustrator 21.0.2, SVG Export Plug-In . SVG Version: 6.00 Build 0)  -->
<svg version="1.1" id="burger" xmlns="http://www.w3.org/2000/svg" xmlns:xlink="http://www.w3.org/1999/xlink" x="0px" y="0px"
	 viewBox="0 0 128 128" style="enable-background:new 0 0 128 128;" xml:space="preserve">
<style type="text/css">
	.st0{fill:#6AE5E1;}
	.st1{fill:#FBD000;}
	.st2{fill:#663210;}
	.st3{fill:#F4B10B;}
	.st4{fill:#FFFFFF;}
	.st5{fill:#FF4848;}
	.st6{opacity:0.5;fill:#FFFFFF;}
	.st7{fill:#75B600;}
	.st8{fill:#5C8E0D;}
</style>
<g>
	<circle class="st0" cx="64" cy="64" r="64"/>
	<path class="st1" d="M105.1,86.3c0,4.2-3.6,7.7-8,7.7H30.9c-4.4,0-8-3.5-8-7.7c0-4.2,3.6-7.7,8-7.7h66.1
		C101.5,78.7,105.1,82.1,105.1,86.3z"/>
	<path class="st2" d="M105,74.3c0,2.4-2.7,4.3-6,4.3H29c-3.3,0-6-2-6-4.3c0-2.4,2.7-4.3,6-4.3h70C102.3,70,105,72,105,74.3z"/>
	<path class="st3" d="M97.1,89H30.9c-3.5,0-6.5-2.2-7.6-5.2c-0.3,0.8-0.4,1.6-0.4,2.5c0,4.2,3.6,7.7,8,7.7h66.1c4.4,0,8-3.5,8-7.7
		c0-0.9-0.2-1.7-0.4-2.5C103.5,86.8,100.6,89,97.1,89z"/>
	<path class="st2" d="M97,95H31c-5,0-9-3.8-9-8.5s4-8.5,9-8.5h66c5,0,9,3.8,9,8.5S102,95,97,95z M31,80c-3.9,0-7,2.9-7,6.5
		s3.1,6.5,7,6.5h66c3.9,0,7-2.9,7-6.5s-3.1-6.5-7-6.5H31z"/>
	<path class="st4" d="M98,85H32c-0.6,0-1-0.4-1-1s0.4-1,1-1h66c0.6,0,1,0.4,1,1S98.6,85,98,85z"/>
	<path class="st5" d="M53,67c0-2.2-1.8-4-4-4H39c-2.2,0-4,1.8-4,4v11c0,2.2,1.4,4,3,4s3-1.8,3-4v-3c0-2.2,1.4-4,3-4s3,1.8,3,4v9
		c0,2.2,1.4,4,3,4s3-1.8,3-4V67z"/>
	<path class="st4" d="M89,23c-2.2,0-4-1.8-4-4c0-2.2,1.8-4,4-4c2.2,0,4,1.8,4,4C93,21.2,91.2,23,89,23z M89,16.9
		c-1.2,0-2.1,1-2.1,2.1c0,1.2,1,2.1,2.1,2.1c1.2,0,2.1-1,2.1-2.1C91.1,17.8,90.2,16.9,89,16.9z"/>
	<path class="st4" d="M11,71c-2.2,0-4-1.8-4-4c0-2.2,1.8-4,4-4c2.2,0,4,1.8,4,4C15,69.2,13.2,71,11,71z M11,64.9
		c-1.2,0-2.1,1-2.1,2.1c0,1.2,1,2.1,2.1,2.1c1.2,0,2.1-1,2.1-2.1C13.1,65.8,12.2,64.9,11,64.9z"/>
	<path class="st4" d="M115,67c-2.2,0-4-1.8-4-4c0-2.2,1.8-4,4-4c2.2,0,4,1.8,4,4C119,65.2,117.2,67,115,67z M115,60.9
		c-1.2,0-2.1,1-2.1,2.1c0,1.2,1,2.1,2.1,2.1c1.2,0,2.1-1,2.1-2.1C117.1,61.8,116.2,60.9,115,60.9z"/>
	<path class="st4" d="M49,112c-2.2,0-4-1.8-4-4c0-2.2,1.8-4,4-4c2.2,0,4,1.8,4,4C53,110.2,51.2,112,49,112z M49,105.9
		c-1.2,0-2.1,1-2.1,2.1c0,1.2,1,2.1,2.1,2.1c1.2,0,2.1-1,2.1-2.1C51.1,106.8,50.2,105.9,49,105.9z"/>
	<path class="st4" d="M84.3,111.9c0-0.4-0.4-0.8-1-0.9l-1.9-0.3c-0.5-0.1-1.1-0.6-1.1-1.1l-0.3-1.9c-0.1-0.5-0.5-1-0.9-1
		c-0.4,0-0.8,0.4-0.9,1l-0.3,1.9c-0.1,0.5-0.6,1.1-1.1,1.1L75,111c-0.5,0.1-1,0.5-1,0.9c0,0.4,0.4,0.8,1,0.9l1.9,0.3
		c0.5,0.1,1.1,0.6,1.1,1.1l0.3,1.9c0.1,0.5,0.5,1,0.9,1c0.4,0,0.8-0.4,0.8-1l0.3-2.1c0.1-0.5,0.6-1,1.1-1.1l1.8-0.1
		C83.8,112.6,84.3,112.3,84.3,111.9z"/>
	<path class="st6" d="M50,87c-0.6,0-1-0.4-1-1V74c0-0.6,0.4-1,1-1s1,0.4,1,1v12C51,86.6,50.6,87,50,87z"/>
	<path class="st4" d="M62.4,14.1c0-0.4-0.4-0.8-1-0.9L59.6,13c-0.5-0.1-1.1-0.6-1.1-1.1L58.2,10c-0.1-0.5-0.5-1-0.9-1
		c-0.4,0-0.8,0.4-0.9,1l-0.3,1.9c-0.1,0.5-0.6,1.1-1.1,1.1l-1.9,0.3c-0.5,0.1-1,0.5-1,0.9c0,0.4,0.4,0.8,1,0.9l1.9,0.3
		c0.5,0.1,1.1,0.6,1.1,1.1l0.3,1.9c0.1,0.5,0.5,1,0.9,1c0.4,0,0.8-0.4,0.8-1l0.3-2.1c0.1-0.5,0.6-1,1.1-1.1l1.8-0.1
		C62,14.9,62.4,14.5,62.4,14.1z"/>
	<path class="st4" d="M30.1,33c0-0.4-0.4-0.8-1-0.9l-1.9-0.3c-0.5-0.1-1.1-0.6-1.1-1.1l-0.3-1.9c-0.1-0.5-0.5-1-0.9-1
		s-0.8,0.4-0.9,1l-0.3,1.9c-0.1,0.5-0.6,1.1-1.1,1.1l-1.9,0.3c-0.5,0.1-1,0.5-1,0.9c0,0.4,0.4,0.8,1,0.9l1.9,0.3
		c0.5,0.1,1.1,0.6,1.1,1.1l0.3,1.9c0.1,0.5,0.5,1,0.9,1s0.8-0.4,0.9-1l0.3-2.1c0.1-0.5,0.6-1,1.1-1.1l1.8-0.1
		C29.7,33.7,30.1,33.4,30.1,33z"/>
	<path class="st5" d="M98,71H28c-1.1,0-2-1.1-2-2.2s0.9-1.8,2-1.8h70c1.1,0,2,0.7,2,1.8S99.1,71,98,71z"/>
	<path class="st1" d="M101.5,67h-75c-1.7,0-3-1.3-3-3c0-1.7,1.3-3,3-3h75c1.7,0,3,1.3,3,3C104.5,65.7,103.2,67,101.5,67z"/>
	<path class="st1" d="M75.4,75.9c-1.6,1.5-4.2,1.5-5.8,0l-8.4-8.1c-1.6-1.5-1.6-4,0-5.6l8.4-8.1c1.6-1.5,4.2-1.5,5.8,0l8.4,8.1
		c1.6,1.5,1.6,4,0,5.6L75.4,75.9z"/>
	<path class="st7" d="M96.2,48.8c-2.2,2.9,7.4,7.8,9.2,11.2l0,0c1.8,3.4,0.6,4.7-2.9,2.9l-0.8-0.4c-3.4-1.8-8.6-1.4-11.4,0.8
		c-2.9,2.2-7.6,2.2-10.4,0c-2.9-2.2-7.6-2.2-10.4,0c-2.9,2.2-7.6,2.2-10.4,0c-2.9-2.2-7.6-2.2-10.4,0c-2.9,2.2-7.6,2.2-10.4,0
		c-2.9-2.2-8-2.5-11.4-0.8L26,62.9c-3.4,1.8-4.7,0.5-2.9-3l0.2-0.4c1.8-3.4,7.5-9.2,5.3-12"/>
	<path class="st7" d="M100.2,50.9c-2.2,2.9,3.4,5.6,5.2,9l0,0c1.8,3.4,0.6,4.7-2.9,2.9l-0.8-0.4c-3.4-1.8-8.6-1.4-11.4,0.8
		c-2.9,2.2-7.6,2.2-10.4,0c-2.9-2.2-7.6-2.2-10.4,0c-2.9,2.2-7.6,2.2-10.4,0c-2.9-2.2-7.6-2.2-10.4,0c-2.9,2.2-7.6,2.2-10.4,0
		c-2.9-2.2-8-2.5-11.4-0.8L26,62.9c-3.4,1.8-4.7,0.5-2.9-3l0.2-0.4c1.8-3.4,1.5-8.4-0.7-11.2"/>
	<path class="st8" d="M27.8,59c9.9,0,61.3,0,71.2,0c2.5,0,4.2-0.4,5.4-1.1c-2.3-2.7-6-5-4.1-7.5l-75.3-2.5c-0.5,0.4-1,0.8-1.5,1.3
		c0,0,0,0-0.1,0.1c1.3,2.6,1.4,6.3,0.1,9.1C24.6,58.7,26,59,27.8,59z"/>
	<path class="st2" d="M64,66c-2.1,0-4.2-0.6-5.8-1.9C57,63.2,55.4,62,53.7,62c-1.7,0-3.5,1.2-4.8,2.1c-3.2,2.5-8.4,2.5-11.7,0
		C35.9,63,33.9,62,31.8,62c-1.7,0-3.4,0.7-4.8,1.5l-0.8,0.4c-2.7,1.4-4,0.9-4.6,0.3c-0.6-0.6-1.1-2,0.3-4.6l0.2-0.4
		c1.4-2.7,4-7.6,2.1-10c-0.3-0.4-0.3-1.1,0.2-1.4c0.4-0.3,1.1-0.3,1.4,0.2c2.7,3.4-0.2,8.9-1.9,12.2l-0.2,0.4
		C22.9,62,23,62.7,23,62.8c0.1,0,0.8,0.1,2.2-0.7l0.8-0.4c1.6-0.9,3.7-1.7,5.7-1.7c2.6,0,5,1.2,6.8,2.5c2.5,1.9,6.7,1.9,9.2,0
		c1.7-1.3,3.8-2.6,6-2.5c2,0,4.1,1.3,5.7,2.5c2.5,1.9,6.7,1.9,9.2,0c1.7-1.3,3.9-2.6,6.1-2.5c2,0,4,1.3,5.6,2.5
		c2.5,1.9,6.7,1.9,9.2,0c1.8-1.4,4.5-2.6,7.2-2.5c1.9,0,3.7,0.9,5.3,1.7l0.8,0.4c1.4,0.8,2.1,0.7,2.2,0.7c0-0.1,0-0.8-0.7-2.2
		c-0.7-1.2-2.3-2.4-3.8-3.6c-2-1.5-3.9-2.9-4.1-4.6c-0.1-0.7,0.1-1.4,0.6-2c0.3-0.4,1-0.5,1.4-0.2c0.4,0.3,0.5,1,0.2,1.4
		c-0.2,0.2-0.2,0.4-0.2,0.5c0.1,0.9,1.8,2.1,3.3,3.3c1.7,1.3,3.5,2.6,4.4,4.2c1.5,2.7,1,4,0.4,4.7c-0.6,0.6-1.9,1.1-4.6-0.3
		l-0.8-0.4c-1.3-0.7-2.8-1.4-4.4-1.5c-2.2,0-4.5,1-6,2.1c-3.2,2.5-8.4,2.5-11.6,0c-1.2-0.9-2.8-2.1-4.4-2.1
		c-1.8-0.1-3.5,1.1-4.9,2.1C68.3,65.4,66.1,66,64,66z"/>
	<path class="st1" d="M101.6,45.9c-9.9-9.1-23.1-14.7-37.7-14.7c-15.1,0-28.7,4.8-38.7,14.5c-2.8,2.7-5.2,10.1,4.2,10.1s58.6,0,68,0
		C106.8,55.7,104.8,48.8,101.6,45.9z"/>
	<path class="st3" d="M101.6,45.7c0,0-0.1-0.1-0.1-0.1c-1.2-2.4-8.8-6.6-8.8-6.6s-7.6,8.4-30.6,8.4c-22,0-27.7-8.4-27.7-8.4
		s-7.6,5.2-9,6.3c-0.1,0.1-0.1,0.1-0.2,0.1c-2.8,2.7-5.2,10.3,4.2,10.3s58.6,0,68,0C106.8,55.7,104.8,48.7,101.6,45.7z"/>
	<path class="st2" d="M97.2,56H29.6c-4.8,0-6.6-1.9-7.3-3.6c-1.2-3,0.7-6.7,2.4-8.4c9.9-9.8,23.4-15,39.2-15
		c14.2,0,27.7,5.4,38.1,15.2c2.1,2,3.7,5.4,2.6,8.2C104,54,102.2,56,97.2,56z M63.9,31c-15.2,0-28.3,5-37.8,14.5
		c-1.3,1.3-2.7,4.2-2,6.2c0.8,1.9,3.4,2.3,5.4,2.3h67.6c2.2,0,4.9-0.4,5.6-2.3c0.7-1.8-0.5-4.4-2.1-5.9C90.7,36.2,77.6,31,63.9,31z"
		/>
	<path class="st4" d="M82.1,40c-0.1,0-0.3,0-0.4-0.1c-10.1-4.5-24.1-2.7-24.3-2.7c-0.5,0.1-1.1-0.3-1.1-0.8c-0.1-0.5,0.3-1,0.8-1
		c0.6-0.1,14.8-1.8,25.4,2.9c0.5,0.2,0.7,0.8,0.5,1.2C82.8,39.8,82.5,40,82.1,40z"/>
	<path class="st3" d="M46.8,42.4c-0.3,0-0.5-0.1-0.7-0.3l-1-1c-0.4-0.4-0.4-1,0-1.4c0.4-0.4,1-0.4,1.4,0l1,1c0.4,0.4,0.4,1,0,1.4
		C47.3,42.3,47,42.4,46.8,42.4z"/>
	<path class="st3" d="M68.8,42h-1.9c-0.6,0-1-0.4-1-1s0.4-1,1-1h1.9c0.6,0,1,0.4,1,1S69.3,42,68.8,42z"/>
	<path class="st3" d="M58.2,44.4c-0.3,0-0.5-0.1-0.7-0.3l-1-1c-0.4-0.4-0.4-1,0-1.4c0.4-0.4,1-0.4,1.4,0l1,1c0.4,0.4,0.4,1,0,1.4
		C58.7,44.3,58.5,44.4,58.2,44.4z"/>
	<path class="st3" d="M75.4,43.4c-0.2,0-0.5-0.1-0.7-0.3c-0.4-0.4-0.4-1,0-1.4l1-1c0.4-0.4,1-0.4,1.4,0c0.4,0.4,0.4,1,0,1.4l-1,1
		C76,43.3,75.7,43.4,75.4,43.4z"/>
	<path class="st3" d="M53.5,38h-1.9c-0.6,0-1-0.4-1-1c0-0.6,0.4-1,1-1h1.9c0.6,0,1,0.4,1,1C54.5,37.6,54,38,53.5,38z"/>
	<path class="st4" d="M73.2,75.3c-0.2,0-0.5-0.1-0.6-0.2c-0.4-0.4-0.5-1-0.1-1.4l5.9-7c0.4-0.4,1-0.5,1.4-0.1c0.4,0.4,0.5,1,0.1,1.4
		l-5.9,7C73.8,75.2,73.5,75.3,73.2,75.3z"/>
</g>
</svg>
