<?xml version="1.0" encoding="utf-8"?>
<!-- Generator: Adobe Illustrator 21.0.2, SVG Export Plug-In . SVG Version: 6.00 Build 0)  -->
<svg version="1.1" id="castle" xmlns="http://www.w3.org/2000/svg" xmlns:xlink="http://www.w3.org/1999/xlink" x="0px" y="0px"
	 viewBox="0 0 128 128" style="enable-background:new 0 0 128 128;" xml:space="preserve">
<style type="text/css">
	.st0{fill:#FBD000;}
	.st1{fill:#75B600;}
	.st2{fill:#EAEAEA;}
	.st3{fill:#D4D6D6;}
	.st4{fill:#663210;}
	.st5{fill:#FF4848;}
	.st6{fill:#FFFFFF;}
	.st7{fill:#AD5114;}
	.st8{fill:#993F0D;}
	.st9{opacity:0.5;fill:#FFFFFF;}
</style>
<g>
	<circle class="st0" cx="64" cy="64" r="64"/>
	<path class="st1" d="M15.3,105.5C27.1,119.3,44.5,128,64,128s36.9-8.7,48.7-22.5H15.3z"/>
	<rect x="15.6" y="49.9" class="st2" width="15.8" height="31.8"/>
	<rect x="15.6" y="50.4" class="st3" width="15.4" height="2.6"/>
	<path class="st4" d="M31,82.7H16c-0.6,0-1-0.4-1-1V49.9c0-0.6,0.4-1,1-1h15c0.6,0,1,0.4,1,1v31.8C32,82.2,31.6,82.7,31,82.7z
		 M17,80.7h13V50.9H17V80.7z"/>
	<polygon class="st5" points="32.9,50.1 23.5,36.1 14.2,50.1 	"/>
	<path class="st2" d="M45.8,66H43c-1.1,0-2,0.9-2,2v1c0,1.1-0.9,2-2,2h-2.9c-1.1,0-2-0.9-2-2v-1c0-1.1-0.9-2-2-2h-2.9
		c-1.1,0-2,0.9-2,2v1c0,1.1-0.9,2-2,2h-2.9c-1.1,0-2-0.9-2-2v-1c0-1.1-0.9-2-2-2h-2.9c-1.1,0-2,0.9-2,2v1c0,1.1-0.9,2-2,2H8.6
		c-1.1,0-2-0.9-2-2v-1c0-1.1-0.9-2-2-2H1.7c-0.5,0-1.2,0.4-1.6,0.7C0.7,81.5,6.3,95,15.3,105.5h30.5c1.1,0,2-0.9,2-2V68
		C47.8,66.9,46.9,66,45.8,66z"/>
	<path class="st4" d="M33,51H14c-0.4,0-0.7-0.1-0.9-0.4c-0.2-0.3-0.2-0.7,0-1l9.5-14.1c0.4-0.6,1.3-0.6,1.7,0l9.5,14.1
		c0.2,0.3,0.2,0.7,0,1C33.7,50.9,33.4,51,33,51z M15.9,49.1h15.2l-7.6-11.3L15.9,49.1z"/>
	<rect x="43" y="66.3" class="st3" width="3.8" height="38.5"/>
	<path class="st6" d="M26.8,64h-6c-0.6,0-1-0.4-1-1s0.4-1,1-1h6c0.6,0,1,0.4,1,1S27.3,64,26.8,64z"/>
	<rect x="97.2" y="49.9" class="st2" width="15.7" height="31.8"/>
	<rect x="97.5" y="50.4" class="st3" width="15.4" height="2.6"/>
	<path class="st4" d="M112,82.7H97c-0.6,0-1-0.4-1-1V49.9c0-0.6,0.4-1,1-1h15c0.6,0,1,0.4,1,1v31.8C113,82.2,112.6,82.7,112,82.7z
		 M98,80.7h13V50.9H98V80.7z"/>
	<polygon class="st5" points="95.7,50.1 105,36.1 114.3,50.1 	"/>
	<path class="st4" d="M114,51c0,0-18.1,0-18.1,0c-0.4,0-0.7-0.1-0.9-0.4c-0.2-0.3-0.2-0.7,0-1l9-14c0.4-0.6,1.3-0.6,1.6,0l8.9,13.9
		c0.2,0.2,0.3,0.4,0.3,0.7C115,50.7,114.6,51,114,51z M97.8,49.1h14.4L105,37.9L97.8,49.1z"/>
	<rect x="56.8" y="28.4" class="st2" width="15.8" height="30.2"/>
	<rect x="57.1" y="29.2" class="st3" width="15.4" height="2.6"/>
	<path class="st4" d="M72,59.5H57c-0.6,0-1-0.4-1-1V28.4c0-0.6,0.4-1,1-1h15c0.6,0,1,0.4,1,1v30.2C73,59.1,72.6,59.5,72,59.5z
		 M58,57.5h13V29.4H58V57.5z"/>
	<path class="st2" d="M81.8,46.7c0-1.1-0.9-2-2-2H77c-1.1,0-2,0.9-2,2v1c0,1.1-0.9,2-2,2h-2.9c-1.1,0-2-0.9-2-2v-1c0-1.1-0.9-2-2-2
		h-2.9c-1.1,0-2,0.9-2,2v1c0,1.1-0.9,2-2,2h-2.9c-1.1,0-2-0.9-2-2v-1c0-1.1-0.9-2-2-2h-2.9c-1.1,0-2,0.9-2,2v56.9c0,1.1,0.9,2,2,2
		h30.3c1.1,0,2-0.9,2-2V46.7z"/>
	<path class="st2" d="M127.9,66.3c-0.3-0.2-0.7-0.3-1.1-0.3h-2.9c-1.1,0-2,0.9-2,2v1c0,1.1-0.9,2-2,2h-2.9c-1.1,0-2-0.9-2-2v-1
		c0-1.1-0.9-2-2-2h-2.9c-1.1,0-2,0.9-2,2v1c0,1.1-0.9,2-2,2h-2.9c-1.1,0-2-0.9-2-2v-1c0-1.1-0.9-2-2-2h-2.9c-1.1,0-2,0.9-2,2v1
		c0,1.1-0.9,2-2,2h-2.9c-1.1,0-2-0.9-2-2v-1c0-1.1-0.9-2-2-2h-2.9c-1.1,0-2,0.9-2,2v35.5c0,1.1,0.9,2,2,2h29.9
		C121.7,94.9,127.4,81.3,127.9,66.3z"/>
	<path class="st7" d="M75.1,105.3v-6.5c0-6-4.7-11-10.5-11s-10.5,5-10.5,11v6.5"/>
	<path class="st4" d="M64.5,33.9c-1.6,0-2.5,1.4-2.5,3V41h5v-4.1C67,35.3,66.1,33.9,64.5,33.9z"/>
	<path class="st4" d="M23.5,55C22,55,21,56.3,21,58v4h5v-4C26,56.3,25.1,55,23.5,55z"/>
	<path class="st4" d="M104.5,54.9c-1.6,0-2.5,1.4-2.5,3V62h5v-4.1C107,56.3,106.1,54.9,104.5,54.9z"/>
	<rect x="83" y="66.3" class="st3" width="3" height="38.5"/>
	<polygon class="st5" points="55.3,28.6 64.6,14.5 73.9,28.6 	"/>
	<path class="st4" d="M82,106.5c-0.6,0-1-0.4-1-1V47c0-0.6-0.4-1-1-1h-3c-0.6,0-1,0.4-1,1v1c0,1.7-1.3,3-3,3h-3c-1.7,0-3-1.3-3-3v-1
		c0-0.6-0.4-1-1-1h-3c-0.6,0-1,0.4-1,1v1c0,1.7-1.3,3-3,3h-3c-1.7,0-3-1.3-3-3v-1c0-0.6-0.4-1-1-1h-3c-0.6,0-1,0.4-1,1v58.5
		c0,0.6-0.4,1-1,1s-1-0.4-1-1V47c0-1.7,1.3-3,3-3h3c1.7,0,3,1.3,3,3v1c0,0.6,0.4,1,1,1h3c0.6,0,1-0.4,1-1v-1c0-1.7,1.3-3,3-3h3
		c1.7,0,3,1.3,3,3v1c0,0.6,0.4,1,1,1h3c0.6,0,1-0.4,1-1v-1c0-1.7,1.3-3,3-3h3c1.7,0,3,1.3,3,3v58.5C83,106.1,82.6,106.5,82,106.5z"
		/>
	<path class="st4" d="M121,107H9c-0.6,0-1-0.4-1-1s0.5-1,1-1h112c0.6,0,1,0.4,1,1S121.5,107,121,107z"/>
	<path class="st4" d="M74,30C74,30,74,30,74,30H55.3c-0.4,0-0.7-0.2-0.9-0.5c-0.2-0.3-0.2-0.7,0-1L64.2,14c0.4-0.6,1.3-0.6,1.7,0
		l8.8,14.3c0.2,0.2,0.3,0.4,0.3,0.7C75,29.6,74.5,30,74,30z M57.1,28h15L65,16.4L57.1,28z"/>
	<path class="st6" d="M67.5,43h-6c-0.6,0-1-0.4-1-1s0.4-1,1-1h6c0.6,0,1,0.4,1,1S68.1,43,67.5,43z"/>
	<path class="st8" d="M64.6,87.8c-5.8,0-10.5,5-10.5,11v2.5c0-6,4.7-11,10.5-11s10.5,5,10.5,11v-2.5C75.1,92.8,70.4,87.8,64.6,87.8z
		"/>
	<path class="st6" d="M107.9,64h-6.8c-0.6,0-1.1-0.4-1.1-1s0.5-1,1.1-1h6.8c0.6,0,1.1,0.4,1.1,1S108.5,64,107.9,64z"/>
	<path class="st4" d="M75.1,106.3c-0.6,0-1-0.5-1-1v-6.8c0-5.7-4.3-10.4-9.5-10.4s-9.5,4.7-9.5,10.4v6.8c0,0.6-0.4,1-1,1
		c-0.6,0-1-0.5-1-1v-6.8c0-6.9,5.2-12.5,11.5-12.5C70.9,86,76,91.6,76,98.5v6.8C76,105.9,75.7,106.3,75.1,106.3z"/>
	<path class="st4" d="M60,105.8c-0.6,0-1-0.4-1-1V94c0-0.5,0.4-1,1-1s1,0.4,1,1v10.9C61,105.4,60.6,105.8,60,105.8z"/>
	<path class="st4" d="M65,99.8c-0.6,0-1-0.5-1-1.1V87.1c0-0.6,0.4-1.1,1-1.1c0.6,0,1,0.5,1,1.1v11.5C66,99.2,65.6,99.8,65,99.8z"/>
	<path class="st4" d="M69,103c-0.6,0-1-0.4-1-1V94c0-0.5,0.4-1,1-1s1,0.4,1,1v8.1C70,102.6,69.6,103,69,103z"/>
	<path class="st9" d="M27.1,48.5c-0.3,0-0.6-0.2-0.8-0.5l-3.8-5.8c-0.3-0.5-0.2-1.1,0.3-1.4c0.5-0.3,1.1-0.2,1.4,0.3l3.8,5.8
		c0.3,0.5,0.2,1.1-0.3,1.4C27.4,48.4,27.3,48.5,27.1,48.5z"/>
	<path class="st9" d="M68.1,26.6c-0.3,0-0.6-0.2-0.8-0.4l-3.3-5c-0.3-0.5-0.2-1.1,0.3-1.4c0.5-0.3,1.1-0.2,1.4,0.3l3.3,5
		c0.3,0.5,0.2,1.1-0.3,1.4C68.5,26.5,68.3,26.6,68.1,26.6z"/>
	<polyline class="st6" points="65.2,5.2 72.7,8 65.2,10.9 	"/>
	<path class="st9" d="M108.5,48.2c-0.3,0-0.6-0.2-0.8-0.4l-3.3-5c-0.3-0.5-0.2-1.1,0.3-1.4c0.5-0.3,1.1-0.2,1.4,0.3l3.3,5
		c0.3,0.5,0.2,1.1-0.3,1.4C108.9,48.1,108.7,48.2,108.5,48.2z"/>
	<path class="st4" d="M65,15.5c-0.6,0-1-0.4-1-1V5.2c0-0.6,0.4-1,1-1c0.6,0,1,0.4,1,1v9.3C66,15.1,65.6,15.5,65,15.5z"/>
	<path class="st4" d="M65.3,11.9c-0.4,0-0.8-0.2-1-0.6c-0.2-0.5,0.1-1.1,0.6-1.3L70.1,8l-5.2-1.9c-0.5-0.2-0.8-0.8-0.6-1.3
		c0.2-0.5,0.8-0.8,1.3-0.6l7.7,2.8C73.7,7.2,74,7.6,74,8c0,0.4-0.3,0.8-0.7,0.9l-7.7,2.8C65.5,11.8,65.4,11.9,65.3,11.9z"/>
	<polyline class="st6" points="23.7,27 31.2,29.8 23.7,32.7 	"/>
	<path class="st4" d="M23,37.3c-0.6,0-1-0.4-1-1V27c0-0.6,0.4-1,1-1c0.6,0,1,0.4,1,1v9.3C24,36.9,23.6,37.3,23,37.3z"/>
	<path class="st4" d="M23.1,33.7c-0.4,0-0.8-0.2-1-0.6c-0.2-0.5,0.1-1.1,0.6-1.3l5.3-1.9l-5.3-1.9c-0.5-0.2-0.8-0.8-0.6-1.3
		c0.2-0.5,0.8-0.8,1.4-0.6l7.9,2.8c0.4,0.1,0.7,0.5,0.7,0.9c0,0.4-0.3,0.8-0.7,0.9l-7.9,2.8C23.3,33.6,23.2,33.7,23.1,33.7z"/>
	<polyline class="st6" points="105.1,27 112.6,29.8 105.1,32.7 	"/>
	<path class="st4" d="M105,37.3c-0.5,0-1-0.4-1-1V27c0-0.6,0.4-1,1-1c0.5,0,1,0.4,1,1v9.3C105.9,36.9,105.5,37.3,105,37.3z"/>
	<path class="st4" d="M105.2,33.7c-0.4,0-0.8-0.2-1-0.6c-0.2-0.5,0.1-1.1,0.6-1.3l5.2-1.9l-5.2-1.9c-0.5-0.2-0.8-0.8-0.6-1.3
		c0.2-0.5,0.8-0.8,1.3-0.6l7.8,2.8c0.4,0.1,0.7,0.5,0.7,0.9c0,0.4-0.3,0.8-0.7,0.9l-7.8,2.8C105.4,33.6,105.3,33.7,105.2,33.7z"/>
	<path class="st6" d="M45.6,23.1c-2.4,0-4.3-1.9-4.3-4.3c0-2.4,1.9-4.3,4.3-4.3c2.4,0,4.3,1.9,4.3,4.3C49.9,21.2,48,23.1,45.6,23.1z
		 M45.6,16.5c-1.3,0-2.3,1-2.3,2.3c0,1.3,1,2.3,2.3,2.3c1.3,0,2.3-1,2.3-2.3C47.9,17.6,46.9,16.5,45.6,16.5z"/>
	<path class="st6" d="M96.8,31.7c0-0.4-0.4-0.8-1-0.9l-1.9-0.3c-0.5-0.1-1.1-0.6-1.1-1.1l-0.3-1.9c-0.1-0.5-0.5-1-0.9-1
		c-0.4,0-0.8,0.4-0.9,1l-0.3,1.9c-0.1,0.5-0.6,1.1-1.1,1.1l-1.9,0.3c-0.5,0.1-1,0.5-1,0.9c0,0.4,0.4,0.8,1,0.9l1.9,0.3
		c0.5,0.1,1.1,0.6,1.1,1.1l0.3,1.9c0.1,0.5,0.5,1,0.9,1c0.4,0,0.8-0.4,0.8-1l0.3-2.1c0.1-0.5,0.6-1,1.1-1.1l1.8-0.1
		C96.3,32.4,96.8,32.1,96.8,31.7z"/>
	<path class="st4" d="M58.5,58C57,58,56,59.3,56,61v4h5v-4C61,59.3,60.1,58,58.5,58z"/>
	<path class="st4" d="M70.5,58C69,58,68,59.3,68,61v4h5v-4C73,59.3,72.1,58,70.5,58z"/>
	<path class="st4" d="M92.5,78C91,78,90,79.3,90,81v4h5v-4C95,79.3,94.1,78,92.5,78z"/>
	<path class="st4" d="M104.5,78c-1.6,0-2.5,1.3-2.5,3v4h5v-4C107,79.3,106.1,78,104.5,78z"/>
	<path class="st4" d="M116.5,78c-1.6,0-2.5,1.3-2.5,3v4h5v-4C119,79.3,118.1,78,116.5,78z"/>
	<path class="st4" d="M58.5,70C57,70,56,71.3,56,73v4h5v-4C61,71.3,60.1,70,58.5,70z"/>
	<path class="st4" d="M70.5,70C69,70,68,71.3,68,73v4h5v-4C73,71.3,72.1,70,70.5,70z"/>
	<path class="st4" d="M11.5,78C10,78,9,79.3,9,81v4h5v-4C14,79.3,13.1,78,11.5,78z"/>
	<path class="st4" d="M23.5,78C22,78,21,79.3,21,81v4h5v-4C26,79.3,25.1,78,23.5,78z"/>
	<path class="st4" d="M35.5,78C34,78,33,79.3,33,81v4h5v-4C38,79.3,37.1,78,35.5,78z"/>
	<path class="st4" d="M128,65c0,0-0.7,0-1.2,0h-2.9c-1.7,0-2.9,1.3-2.9,3v1c0,0.6-0.5,1-1.1,1h-2.9c-0.6,0-1.1-0.4-1.1-1v-1
		c0-1.7-1.3-3-2.9-3h-2.9c-1.7,0-3.2,1.3-3.2,3v1c0,0.6-0.3,1-0.8,1H103c-0.6,0-1-0.4-1-1v-1c0-1.7-1-3-2.7-3H96c-1.7,0-3,1.3-3,3v1
		c0,0.6,0,1-0.5,1H89c-0.6,0-1-0.4-1-1v-1c0-1.7-0.8-3-2.4-3h-2.9c-0.6,0-1,0.4-1,1s0.4,1,1,1h2.9c0.6,0,0.4,0.4,0.4,1v1
		c0,1.7,1.3,3,3,3h3.5c1.7,0,2.5-1.3,2.5-3v-1c0-0.6,0.4-1,1-1h3c0.6,0,1,0.4,1,1v1c0,1.7,1.3,3,3,3h3.2c1.7,0,2.8-1.3,2.8-3v-1
		c0-0.6,0.6-1,1.2-1h2.9c0.6,0,0.9,0.4,0.9,1v1c0,1.7,1.4,3,3.1,3h2.9c1.7,0,3.1-1.3,3.1-3v-1c0-0.6,0.4-1,0.9-1h2.9
		c0.6,0,1.2,0,1.2,1C128,68,128,66,128,65z"/>
	<path class="st4" d="M46.8,65H43c-1.7,0-3,1.3-3,3v1c0,0.6-0.5,1-1,1h-2.9c-0.6,0-1.1-0.4-1.1-1v-1c0-1.7-1.3-3-2.9-3H29
		c-1.7,0-3,1.3-3,3v1c0,0.6-0.4,1-1,1h-3c-0.6,0-1-0.4-1-1v-1c0-1.7-1-3-2.6-3H15c-1.7,0-3,1.3-3,3v1c0,0.6-0.4,1-1,1H8
		c-0.6,0-1-0.4-1-1v-1c0-1.7-1.3-3-3-3H1.7C1.2,65,1,65,0,65.5C0,67,0,69,0,71l0.4-3c0-0.6,0.4-1,1-1H4c0.6,0,1,0.4,1,1v1
		c0,1.7,1.3,3,3,3h3.5c1.7,0,2.5-1.3,2.5-3v-1c0-0.6,0.4-1,1-1h3c0.6,0,1,0.4,1,1v1c0,1.7,1.3,3,3,3h3.2c1.7,0,2.8-1.3,2.8-3v-1
		c0-0.6,0.7-1,1.2-1h2.9c0.6,0,0.9,0.4,0.9,1v1c0,1.7,1.4,3,3.1,3H39c1.7,0,3-1.3,3-3v-1c0-0.6,0.4-1,1-1h3.9c0.6,0,1-0.4,1-1
		S47.4,65,46.8,65z"/>
</g>
</svg>
