<?xml version="1.0" encoding="utf-8"?>
<!-- Generator: Adobe Illustrator 21.0.2, SVG Export Plug-In . SVG Version: 6.00 Build 0)  -->
<svg version="1.1" id="document" xmlns="http://www.w3.org/2000/svg" xmlns:xlink="http://www.w3.org/1999/xlink" x="0px" y="0px"
	 viewBox="0 0 128 128" style="enable-background:new 0 0 128 128;" xml:space="preserve">
<style type="text/css">
	.st0{fill:#28A5C6;}
	.st1{opacity:0.5;fill:#FFFFFF;}
	.st2{fill:#D4D6D6;}
	.st3{fill:#0C508E;}
	.st4{fill:#EAEAEA;}
	.st5{fill:#ADADAD;}
	.st6{fill:#FFFFFF;}
</style>
<g>
	<path class="st0" d="M128,64c0,35.3-28.7,64-64,64C28.7,128,0,99.3,0,64S28.7,0,64,0C99.3,0,128,28.7,128,64"/>
	<path class="st1" d="M115.7,86.7c0-0.4-0.4-0.8-1-0.9l-1.9-0.3c-0.5-0.1-1.1-0.6-1.1-1.1l-0.3-1.9c-0.1-0.5-0.5-1-0.9-1
		c-0.4,0-0.8,0.4-0.9,1l-0.3,1.9c-0.1,0.5-0.6,1.1-1.1,1.1l-1.9,0.3c-0.5,0.1-1,0.5-1,0.9c0,0.4,0.4,0.8,1,0.9l1.9,0.3
		c0.5,0.1,1.1,0.6,1.1,1.1l0.3,1.9c0.1,0.5,0.5,1,0.9,1c0.4,0,0.8-0.4,0.9-1l0.3-2.1c0.1-0.5,0.6-1,1.1-1.1l1.8-0.1
		C115.2,87.4,115.7,87.1,115.7,86.7z"/>
	<path class="st1" d="M24.7,52.4c0-0.4-0.4-0.8-1-0.9l-1.9-0.3c-0.5-0.1-1.1-0.6-1.1-1.1l-0.3-1.9c-0.1-0.5-0.5-1-0.9-1
		c-0.4,0-0.8,0.4-0.9,1l-0.3,1.9c-0.1,0.5-0.6,1.1-1.1,1.1l-1.9,0.3c-0.5,0.1-1,0.5-1,0.9c0,0.4,0.4,0.8,1,0.9l1.9,0.3
		c0.5,0.1,1.1,0.6,1.1,1.1l0.3,1.9c0.1,0.5,0.5,1,0.9,1c0.4,0,0.8-0.4,0.9-1l0.3-2.1c0.1-0.5,0.6-1,1.1-1.1l1.8-0.1
		C24.2,53.2,24.7,52.8,24.7,52.4z"/>
	<path class="st1" d="M74,14.4c0-0.4-0.4-0.8-1-0.9l-1.9-0.3c-0.5-0.1-1.1-0.6-1.1-1.1l-0.3-1.9c-0.1-0.5-0.5-1-0.9-1
		c-0.4,0-0.8,0.4-0.9,1l-0.3,1.9c-0.1,0.5-0.6,1.1-1.1,1.1l-1.9,0.3c-0.5,0.1-1,0.5-1,0.9c0,0.4,0.4,0.8,1,0.9l1.9,0.3
		c0.5,0.1,1.1,0.6,1.1,1.1l0.3,1.9c0.1,0.5,0.5,1,0.9,1c0.4,0,0.8-0.4,0.9-1l0.3-2.1c0.1-0.5,0.6-1,1.1-1.1l1.8-0.1
		C73.5,15.2,74,14.8,74,14.4z"/>
	<path class="st1" d="M20,82c-2.2,0-4-1.8-4-4c0-2.2,1.8-4,4-4c2.2,0,4,1.8,4,4C24,80.2,22.2,82,20,82z M20,75.9
		c-1.2,0-2.1,1-2.1,2.1c0,1.2,1,2.1,2.1,2.1c1.2,0,2.1-1,2.1-2.1C22.1,76.8,21.2,75.9,20,75.9z"/>
	<path class="st1" d="M110,62c-2.2,0-4-1.8-4-4c0-2.2,1.8-4,4-4c2.2,0,4,1.8,4,4C114,60.2,112.2,62,110,62z M110,55.9
		c-1.2,0-2.1,1-2.1,2.1c0,1.2,1,2.1,2.1,2.1c1.2,0,2.1-1,2.1-2.1C112.1,56.8,111.2,55.9,110,55.9z"/>
	<path class="st1" d="M58,120c-2.2,0-4-1.8-4-4c0-2.2,1.8-4,4-4c2.2,0,4,1.8,4,4C62,118.2,60.2,120,58,120z M58,113.9
		c-1.2,0-2.1,1-2.1,2.1c0,1.2,1,2.1,2.1,2.1c1.2,0,2.1-1,2.1-2.1C60.1,114.8,59.2,113.9,58,113.9z"/>
	<path class="st2" d="M93.8,101.6c0,2.2-1.8,4-4,4H37.1c-2.2,0-4-1.8-4-4V33.9c0-2.2,1.8-4,4-4h52.7c2.2,0,4,1.8,4,4V101.6z"/>
	<path class="st3" d="M90,107H37c-2.8,0-5-2.3-5-5V34c0-2.8,2.3-5,5-5h53c2.8,0,5,2.3,5,5v68C95,104.7,92.7,107,90,107z M37,31
		c-1.7,0-3,1.4-3,3v68c0,1.7,1.4,3,3,3h53c1.7,0,3-1.4,3-3V34c0-1.7-1.4-3-3-3H37z"/>
	<path class="st4" d="M97.2,98.4c0,2.2-1.8,4-4,4H40.5c-2.2,0-4-1.8-4-4V30.7c0-2.2,1.8-4,4-4L93,26.8c2.2,0,4,1.8,4,4L97.2,98.4z"
		/>
	<path class="st3" d="M93,103H41c-2.8,0-5-2.2-5-5V31c0-2.8,2.2-5,5-5h52c2.8,0,5,2.2,5,5v67C98,100.8,95.8,103,93,103z M41,28
		c-1.7,0-3,1.3-3,3v67c0,1.7,1.3,3,3,3h52c1.7,0,3-1.3,3-3V31c0-1.7-1.3-3-3-3H41z"/>
	<path class="st3" d="M48.1,40c-4.8,0-8.1-2.8-8.1-6.9V23c0-3.5,3.5-6,6.7-6c3.2,0,5.3,2.4,5.3,6v4c0,0.6-0.4,1-1,1s-1-0.4-1-1v-4
		c0-2-0.9-4-3.3-4c-2.2,0-4.7,1.8-4.7,4v10.1c0,3.6,3.2,4.9,6.1,4.9c3.2,0,4.9-2.9,4.9-5.7V22.2c0-0.6,0.4-1,1-1s1,0.4,1,1v10.1
		C55,36.8,52.1,40,48.1,40z"/>
	<path class="st5" d="M63,53H45c-0.6,0-1-0.4-1-1s0.4-1,1-1h18c0.6,0,1,0.4,1,1S63.6,53,63,53z"/>
	<path class="st5" d="M86.5,53H68c-0.6,0-1-0.4-1-1s0.5-1,1-1h18.4c0.6,0,1,0.4,1,1S87,53,86.5,53z"/>
	<path class="st5" d="M64.4,60H45c-0.6,0-1-0.4-1-1s0.4-1,1-1h19.4c0.6,0,1,0.4,1,1S65,60,64.4,60z"/>
	<path class="st5" d="M89,60H70c-0.5,0-1-0.4-1-1s0.4-1,1-1h19c0.5,0,1,0.4,1,1S89.6,60,89,60z"/>
	<path class="st5" d="M55,67H45c-0.6,0-1-0.4-1-1s0.5-1,1-1H55c0.6,0,1,0.4,1,1S55.5,67,55,67z"/>
	<path class="st5" d="M63,74H45c-0.6,0-1-0.4-1-1s0.4-1,1-1h18c0.6,0,1,0.4,1,1S63.6,74,63,74z"/>
	<path class="st5" d="M86.9,74H68.1c-0.6,0-1.1-0.4-1.1-1s0.5-1,1.1-1h18.9c0.6,0,1.1,0.4,1.1,1S87.5,74,86.9,74z"/>
	<path class="st5" d="M69,67H59c-0.6,0-1-0.4-1-1s0.5-1,1-1H69c0.6,0,1,0.4,1,1S69.5,67,69,67z"/>
	<path class="st5" d="M83,67H73c-0.6,0-1-0.4-1-1s0.5-1,1-1H83c0.6,0,1,0.4,1,1S83.5,67,83,67z"/>
	<path class="st5" d="M55,81H45c-0.6,0-1-0.4-1-1s0.5-1,1-1H55c0.6,0,1,0.4,1,1S55.5,81,55,81z"/>
	<path class="st5" d="M63,88H45c-0.6,0-1-0.4-1-1s0.4-1,1-1h18c0.6,0,1,0.4,1,1S63.6,88,63,88z"/>
	<path class="st5" d="M86.9,88H68.1c-0.6,0-1.1-0.4-1.1-1s0.5-1,1.1-1h18.9c0.6,0,1.1,0.4,1.1,1S87.5,88,86.9,88z"/>
	<path class="st5" d="M69,81h-9.8c-0.6,0-1-0.4-1-1s0.5-1,1-1H69c0.6,0,1,0.4,1,1S69.5,81,69,81z"/>
	<path class="st5" d="M83,81h-9.8c-0.6,0-1-0.4-1-1s0.5-1,1-1H83c0.6,0,1,0.4,1,1S83.5,81,83,81z"/>
	<ellipse class="st2" cx="84" cy="39" rx="4" ry="4"/>
	<ellipse class="st2" cx="72" cy="39" rx="4" ry="4"/>
	<path class="st6" d="M90.2,32H60.7c-0.6,0-1-0.4-1-1s0.4-1,1-1h29.5c0.6,0,1,0.4,1,1S90.8,32,90.2,32z"/>
</g>
</svg>
