<?xml version="1.0" encoding="utf-8"?>
<!-- Generator: Adobe Illustrator 21.0.2, SVG Export Plug-In . SVG Version: 6.00 Build 0)  -->
<svg version="1.1" id="easter" xmlns="http://www.w3.org/2000/svg" xmlns:xlink="http://www.w3.org/1999/xlink" x="0px" y="0px"
	 viewBox="0 0 128 128" style="enable-background:new 0 0 128 128;" xml:space="preserve">
<style type="text/css">
	.st0{fill:#6AE5E1;}
	.st1{fill:#FFFFFF;}
	.st2{fill:#FC8BA4;}
	.st3{fill:#E2718F;}
	.st4{opacity:0.5;fill:#FFFFFF;}
	.st5{fill:#6B3C1C;}
	.st6{fill:#FBD000;}
	.st7{fill:#F4B10B;}
</style>
<g>
	<circle class="st0" cx="64" cy="64" r="64"/>
	<path class="st1" d="M56.5,22c0-0.4-0.4-0.8-1-0.9l-1.9-0.3c-0.5-0.1-1.1-0.6-1.1-1.1l-0.3-1.9c-0.1-0.5-0.5-1-0.9-1
		c-0.4,0-0.8,0.4-0.9,1l-0.3,1.9c-0.1,0.5-0.6,1.1-1.1,1.1l-1.9,0.3c-0.5,0.1-1,0.5-1,0.9c0,0.4,0.4,0.8,1,0.9l1.9,0.3
		c0.5,0.1,1.1,0.6,1.1,1.1l0.3,1.9c0.1,0.5,0.5,1,0.9,1c0.4,0,0.8-0.4,0.9-1l0.3-2.1c0.1-0.5,0.6-1,1.1-1.1l1.8-0.1
		C56,22.7,56.5,22.4,56.5,22z"/>
	<path class="st1" d="M119.7,74.9c0-0.4-0.4-0.8-1-0.9l-1.9-0.3c-0.5-0.1-1.1-0.6-1.1-1.1l-0.3-1.9c-0.1-0.5-0.5-1-0.9-1
		c-0.4,0-0.8,0.4-0.9,1l-0.3,1.9c-0.1,0.5-0.6,1.1-1.1,1.1l-1.9,0.3c-0.5,0.1-1,0.5-1,0.9c0,0.4,0.4,0.8,1,0.9l1.9,0.3
		c0.5,0.1,1.1,0.6,1.1,1.1l0.3,1.9c0.1,0.5,0.5,1,0.9,1c0.4,0,0.8-0.4,0.9-1l0.3-2.1c0.1-0.5,0.6-1,1.1-1.1l1.8-0.1
		C119.3,75.6,119.7,75.3,119.7,74.9z"/>
	<path class="st1" d="M55.2,116.6c0-0.4-0.4-0.8-1-0.9l-1.9-0.3c-0.5-0.1-1.1-0.6-1.1-1.1l-0.3-1.9c-0.1-0.5-0.5-1-0.9-1
		c-0.4,0-0.8,0.4-0.9,1l-0.3,1.9c-0.1,0.5-0.6,1.1-1.1,1.1l-1.9,0.3c-0.5,0.1-1,0.5-1,0.9c0,0.4,0.4,0.8,1,0.9l1.9,0.3
		c0.5,0.1,1.1,0.6,1.1,1.1l0.3,1.9c0.1,0.5,0.5,1,0.9,1c0.4,0,0.8-0.4,0.9-1l0.3-2.1c0.1-0.5,0.6-1,1.1-1.1l1.8-0.1
		C54.8,117.4,55.2,117,55.2,116.6z"/>
	<path class="st1" d="M84,118c-2.2,0-4-1.8-4-4c0-2.2,1.8-4,4-4c2.2,0,4,1.8,4,4C88,116.2,86.2,118,84,118z M84,111.9
		c-1.2,0-2.1,1-2.1,2.1c0,1.2,1,2.1,2.1,2.1c1.2,0,2.1-1,2.1-2.1C86.1,112.8,85.2,111.9,84,111.9z"/>
	<path class="st1" d="M9,66c-2.2,0-4-1.8-4-4c0-2.2,1.8-4,4-4c2.2,0,4,1.8,4,4C13,64.2,11.2,66,9,66z M9,59.9c-1.2,0-2.1,1-2.1,2.1
		c0,1.2,1,2.1,2.1,2.1c1.2,0,2.1-1,2.1-2.1C11.1,60.8,10.2,59.9,9,59.9z"/>
	<path class="st1" d="M80,17c-2.2,0-4-1.8-4-4c0-2.2,1.8-4,4-4c2.2,0,4,1.8,4,4C84,15.2,82.2,17,80,17z M80,10.9
		c-1.2,0-2.1,1-2.1,2.1c0,1.2,1,2.1,2.1,2.1c1.2,0,2.1-1,2.1-2.1C82.1,11.8,81.2,10.9,80,10.9z"/>
	<path class="st2" d="M74.3,64.9c4.6,16.6-3.5,33.3-18,37.4c-14.5,4-30.1-6.2-34.7-22.8C17,62.9,22.9,38.4,37.4,34.4
		C52,30.3,69.7,48.3,74.3,64.9z"/>
	<path class="st3" d="M53.5,92.5c-13.1,3.6-27-4.3-33-18.1c0.2,1.7,0.6,3.5,1,5.1c4.6,16.6,20.1,26.8,34.7,22.8
		c14.5-4,22.6-20.8,18-37.4c-0.5-1.6-1-3.3-1.7-4.9C74.5,74.9,66.7,88.9,53.5,92.5z"/>
	<path class="st3" d="M74.3,64.9c-3-10.8-11.5-22.3-21.1-27.8c-7,7.8-12.3,18.5-13.8,28.4c-2.3,15.9,5.1,30.8,17.3,36.7
		C70.9,98,78.8,81.4,74.3,64.9z"/>
	<path class="st4" d="M22.6,51.4l37.6-9c-2.2-2-4.5-3.8-6.9-5.2L26,43.8C24.7,46.1,23.5,48.7,22.6,51.4z"/>
	<path class="st4" d="M20.1,66.9L70,55c-1.2-2-2.5-4-3.9-5.9L20.6,60C20.3,62.2,20.1,64.6,20.1,66.9z"/>
	<path class="st4" d="M74.3,64.9c-0.1-0.4-0.2-0.8-0.4-1.2l-53,12.7c0.2,1.1,0.4,2.1,0.7,3.2c0.3,1.1,0.7,2.2,1.1,3.2l52.7-12.6
		C75.1,68.4,74.7,66.7,74.3,64.9z"/>
	<path class="st4" d="M75.1,80.1L27.5,91.4c1.6,2.1,3.4,3.9,5.4,5.5l40-9.6C73.9,85.1,74.6,82.6,75.1,80.1z"/>
	<path class="st5" d="M49.8,104c-13.2,0-25.2-10-29.2-24.2c-4.8-17.4,1.8-42.1,16.5-46.1c1.5-0.4,3-0.6,4.5-0.6
		C55.8,33,71,49.7,75.2,64.7c2.3,8.2,1.6,16.7-1.9,24c-3.5,7.3-9.5,12.4-16.8,14.4C54.3,103.7,52,104,49.8,104z M41.7,35
		c-1.4,0-2.7,0.2-4,0.5C26.3,38.7,17,59.5,22.5,79.2C26.3,92.6,37.5,102,49.8,102c2.1,0,4.2-0.3,6.2-0.8c6.8-1.9,12.3-6.6,15.6-13.4
		c3.3-6.8,3.9-14.8,1.8-22.6C69.3,51,55,35,41.7,35z"/>
	<path class="st1" d="M26.8,79c-0.4,0-0.8-0.3-1-0.7c-3.1-11.1-1.3-22-1.2-22.4c0.1-0.5,0.6-0.9,1.2-0.8c0.5,0.1,0.9,0.6,0.8,1.1
		c0,0.1-1.8,10.9,1.2,21.6c0.1,0.5-0.2,1.1-0.7,1.2C26.9,79,26.9,79,26.8,79z"/>
	<path class="st6" d="M106,72.3c-2.8,19.1-18.7,32.6-35.4,30.1c-16.7-2.5-28-20-25.2-39.1c2.8-19.1,20-41.5,36.7-39.1
		C98.8,26.8,108.8,53.2,106,72.3z"/>
	<path class="st7" d="M72.2,91.2C57.1,89,46.5,74.5,46.6,57.7c-0.5,1.9-1,3.8-1.2,5.7c-2.8,19.1,8.4,36.6,25.2,39.1
		c16.7,2.5,32.6-11,35.4-30.1c0.3-1.9,0.4-3.8,0.5-5.8C101.7,82.7,87.3,93.4,72.2,91.2z"/>
	<path class="st5" d="M74.8,104c-1.4,0-2.8-0.1-4.2-0.3c-8.4-1.2-15.8-6.2-20.8-13.8C45,82.3,43,72.8,44.5,63.3
		C47.2,44.7,63.3,23,79.9,23c0.9,0,1.8,0.1,2.7,0.2c17,2.5,27.9,29.3,24.9,49.4C104.8,90.5,90.8,104,74.8,104z M79.9,25
		c-12.8,0-30.2,16.9-33.4,38.6c-1.3,9,0.5,18,5.1,25.2c4.6,7.2,11.5,11.8,19.4,12.9c1.3,0.2,2.6,0.3,3.9,0.3
		c15,0,28.2-12.8,30.7-29.7c2.9-19.3-7.3-44.8-23.2-47.1C81.5,25.1,80.7,25,79.9,25z"/>
	<ellipse transform="matrix(0.1465 -0.9892 0.9892 0.1465 -2.2744 106.3641)" class="st4" cx="60.5" cy="54.5" rx="3.5" ry="3.5"/>
	<path class="st4" d="M79.1,53c-1.9-0.3-3.7,1-4,2.9c-0.3,1.9,1,3.7,3,4c1.9,0.3,3.7-1,4-2.9C82.3,55.1,81,53.3,79.1,53z"/>
	<ellipse transform="matrix(0.1465 -0.9892 0.9892 0.1465 39.2559 108.4958)" class="st4" cx="82.5" cy="31.5" rx="3.5" ry="3.5"/>
	<path class="st4" d="M68.1,65c-1.9-0.3-3.7,1-4,2.9c-0.3,1.9,1.1,3.7,3,4c1.9,0.3,3.7-1,4-3C71.3,67.1,70,65.3,68.1,65z"/>
	<ellipse transform="matrix(0.1463 -0.9892 0.9892 0.1463 -21.6848 105.8705)" class="st4" cx="50.5" cy="65.5" rx="3.5" ry="3.5"/>
	<ellipse transform="matrix(0.1463 -0.9892 0.9892 0.1463 4.3571 147.2736)" class="st4" cx="87.5" cy="71.1" rx="3.8" ry="3.8"/>
	<path class="st4" d="M72,39c-1.9-0.3-3.6,1-3.9,2.9c-0.3,1.9,1,3.7,2.9,4c1.9,0.3,3.6-1,3.9-2.9C75.2,41.1,73.9,39.3,72,39z"/>
	<ellipse transform="matrix(0.1464 -0.9892 0.9892 0.1464 33.0989 129.3559)" class="st4" cx="91.5" cy="45.5" rx="3.5" ry="3.5"/>
	<path class="st4" d="M64,90c-1.9-0.3-3.7,1-4,2.9c-0.3,1.9,1,3.7,2.9,4c1.9,0.3,3.7-1,4-2.9C67.2,92.1,65.9,90.3,64,90z"/>
	<ellipse transform="matrix(0.1465 -0.9892 0.9892 0.1465 -23.2003 164.1113)" class="st4" cx="83.5" cy="95.5" rx="3.5" ry="3.5"/>
	<ellipse transform="matrix(0.1465 -0.9892 0.9892 0.1465 -17.1698 145.0998)" class="st4" cx="75.5" cy="82.5" rx="3.5" ry="3.5"/>
	<ellipse transform="matrix(0.1464 -0.9892 0.9892 0.1464 -28.57 123.8914)" class="st4" cx="57.5" cy="78.5" rx="3.5" ry="3.5"/>
	<path class="st4" d="M98.5,56.1c-1.9,0-3.5,1.5-3.5,3.4c0,1.9,1.6,3.5,3.5,3.5c1.9,0,3.5-1.5,3.5-3.4
		C102,57.6,100.4,56.1,98.5,56.1z"/>
	<ellipse transform="matrix(0.1463 -0.9892 0.9892 0.1463 -1.0758 165.7524)" class="st4" cx="95.5" cy="83.5" rx="3.5" ry="3.5"/>
	<path class="st1" d="M98.4,77c-0.1,0-0.2,0-0.2,0c-0.5-0.1-0.8-0.7-0.7-1.2c2.4-9.2,2.1-18.2-0.8-26.5c-0.2-0.5,0.1-1,0.6-1.2
		c0.5-0.2,1,0.1,1.2,0.6c3,8.7,3.3,18,0.8,27.6C99.2,76.7,98.9,77,98.4,77z"/>
	<path class="st1" d="M94.9,43c-0.4,0-0.7-0.2-0.9-0.5c-2.8-5.1-5.7-7.8-5.8-7.9c-0.4-0.4-0.4-1,0-1.3c0.4-0.4,1-0.4,1.4,0
		c0.1,0.1,3.2,3,6.1,8.3c0.3,0.5,0.1,1-0.4,1.3C95.2,43,95.1,43,94.9,43z"/>
	<path class="st1" d="M51,64.9c0,0-0.1,0-0.2,0c-0.6-0.1-0.9-0.6-0.9-1.1c1.9-12.8,8.8-23.1,9.1-23.6c0.3-0.5,0.9-0.6,1.4-0.3
		c0.5,0.3,0.6,0.9,0.3,1.4C60.8,41.4,53.9,51.7,52,64C52,64.5,51.5,64.9,51,64.9z"/>
	<path class="st5" d="M118,105H105c-0.6,0-1-0.4-1-1s0.5-1,1-1H118c0.6,0,1,0.4,1,1S118.5,105,118,105z"/>
	<path class="st5" d="M96,105H9c-0.6,0-1-0.4-1-1s0.5-1,1-1h87c0.6,0,1,0.4,1,1S96.5,105,96,105z"/>
</g>
</svg>
