<?xml version="1.0" encoding="utf-8"?>
<!-- Generator: Adobe Illustrator 21.0.2, SVG Export Plug-In . SVG Version: 6.00 Build 0)  -->
<svg version="1.1" id="Layer_1" xmlns="http://www.w3.org/2000/svg" xmlns:xlink="http://www.w3.org/1999/xlink" x="0px" y="0px"
	 viewBox="0 0 128 128" style="enable-background:new 0 0 128 128;" xml:space="preserve">
<style type="text/css">
	.st0{fill:#D3D1D1;}
	.st1{fill:#FF4848;}
	.st2{fill:#E02020;}
	.st3{fill:#663210;}
	.st4{fill:#EAEAEA;}
	.st5{fill:#FFFFFF;}
	.st6{opacity:0.5;fill:#FFFFFF;}
</style>
<g>
	<circle class="st0" cx="64" cy="64" r="64"/>
	<path class="st1" d="M100.2,33L77.1,21C63.8,14,53.6,22.5,46.7,35.8l0,0c-5.1-2.3-9.1,0.9-11.7,5.9l-4.6,8.9
		c-6.8,13-2.5,22.4,8.6,28.1l23.2,12.1c13.3,6.9,29.8,1.7,36.7-11.6l6.7-12.9C112.4,53.1,113.5,39.9,100.2,33z"/>
	<path class="st2" d="M103.3,70.3C97,82.4,81.9,87.2,69.8,80.9L46.1,68.5c0,0-9.9-3.8-7.4-9.5c0,0,5.5,2.7,8.4,4.1
		c2.9,1.3,9.6,1.7,9.6,1.7l18.4,9.9c0,0,7.6,3.4,15.5,1.1C98.5,73.5,103.3,70.3,103.3,70.3z"/>
	<path class="st2" d="M108.4,59.4c-5.9,11.3-19.9,15.7-31.2,9.9l-16.2-8.4l-4.6,3.5c0,0,12.6,7,20.2,10.6
		C84,78.5,105.2,74.8,108.4,59.4"/>
	<path class="st3" d="M85,78c-4,0-8.1-1-11.9-3l-17.4-9.4c-0.5-0.3-0.7-0.9-0.4-1.4c0.3-0.5,0.9-0.7,1.3-0.4L74,73.1
		c11.7,6.3,26.1,1.6,32.2-10.5c0.3-0.5,0.9-0.7,1.3-0.4c0.5,0.3,0.7,0.9,0.4,1.4C103.3,72.7,94.3,78,85,78z"/>
	<path class="st2" d="M62.8,59.4c0,0-3.1,1.4-7.1,0.9c-4-0.5-9.8-3.3-12.3-4.7S39.8,54,39.2,55s-2,2.6,1.1,4.2
		c3.1,1.6,8.1,4.3,10.7,5.2C53.5,65.3,61,62.2,62.8,59.4z"/>
	<path class="st3" d="M74.9,95C74.9,95,74.9,95,74.9,95c-4.5,0-9-1.1-13-3.2L38.4,79.6c-12.4-6.5-15.6-17-9-29.7l4.7-9
		c2.5-4.7,5.7-7.2,9.4-7.2c0.9,0,1.9,0.2,2.9,0.5C52.4,22.9,59.9,17,68.1,17c3.2,0,6.4,0.9,9.7,2.6l23.3,12.1
		c12.2,6.3,14.2,18.8,5.8,35l-6.7,13C95.3,89.1,85.6,95,74.9,95z M43.4,35.7c-3.6,0-6.1,3.3-7.6,6.1l-4.7,9c-6.1,11.7-3.2,21,8.2,27
		L62.8,90c3.7,1.9,7.9,3,12.1,3c9.9,0,19-5.4,23.5-14.2l6.7-13c5.6-10.7,9.2-25-4.9-32.3L76.9,21.4c-3-1.6-6-2.4-8.8-2.4
		c-9.6,0-16.5,9.2-20.5,16.9c-0.2,0.5-0.8,0.7-1.3,0.5C45.4,36,44.4,35.7,43.4,35.7z"/>
	<path class="st3" d="M53.4,66c-1.8,0-3.6-0.4-5.3-1.3l-9.8-5.2c-0.5-0.3-0.7-0.9-0.4-1.4c0.3-0.5,0.8-0.7,1.3-0.4l9.8,5.2
		c4.7,2.5,10.5,0.6,12.9-4.2l1.1-2.1c1.2-2.3,1.4-5,0.6-7.4c-0.8-2.5-2.4-4.5-4.7-5.7l-12.2-6.5c-0.5-0.3-0.7-0.9-0.4-1.4
		c0.3-0.5,0.8-0.7,1.3-0.4l12.2,6.5c2.7,1.4,4.7,3.9,5.7,6.9c0.9,3,0.7,6.2-0.8,9l-1.1,2.1C61.6,63.7,57.5,66,53.4,66z"/>
	<path class="st1" d="M67.9,108.2c-2,3.9-6.9,5.4-10.8,3.4L30.6,97.9c-3.9-2-5.4-6.9-3.4-10.8l3.5-6.8c2-3.9,6.9-5.4,10.8-3.4
		L68,90.6c3.9,2,5.4,6.9,3.4,10.8L67.9,108.2z"/>
	<path class="st2" d="M59.8,107.3l-27-14c-3.3-1.7-5-5.5-4.2-9l-1.5,2.8c-2,3.9-0.5,8.8,3.4,10.8l26.5,13.8c3.9,2,8.8,0.5,10.8-3.4
		l1.1-2.2C66.6,108.3,62.9,108.9,59.8,107.3z"/>
	<ellipse transform="matrix(0.4614 -0.8872 0.8872 0.4614 -52.2359 86.9511)" class="st3" cx="45.5" cy="86.5" rx="3.5" ry="3.5"/>
	<ellipse transform="matrix(0.4614 -0.8872 0.8872 0.4614 -51.4177 102.2705)" class="st3" cx="58.5" cy="93.5" rx="3.5" ry="3.5"/>
	<path class="st3" d="M43.1,92.4c-1.7-0.9-3.8-0.2-4.7,1.5c-0.9,1.7-0.2,3.9,1.5,4.8c1.7,0.9,3.8,0.2,4.7-1.5
		C45.5,95.5,44.8,93.3,43.1,92.4z"/>
	<path class="st3" d="M55.4,99.4c-1.5-0.8-3.3-0.2-4,1.3c-0.8,1.5-0.2,3.3,1.3,4c1.5,0.8,3.3,0.2,4-1.3
		C57.4,101.9,56.9,100.1,55.4,99.4z"/>
	<path class="st3" d="M60.4,114c-1.4,0-2.9-0.4-4.1-1L29.8,99c-4.4-2.3-6.1-7.8-3.8-12.3l3.5-6.9c1.6-3,4.6-4.9,8-4.9
		c1.4,0,2.9,0.4,4.1,1L68.2,90c2.1,1.1,3.7,3,4.4,5.3c0.7,2.3,0.5,4.8-0.6,6.9l-3.5,6.9C66.9,112.1,63.8,114,60.4,114z M37.6,77
		c-2.6,0-5,1.5-6.2,3.8l-3.5,6.9c-1.8,3.5-0.4,7.7,3,9.5l26.5,13.9c1,0.5,2.1,0.8,3.2,0.8c2.6,0,5-1.5,6.2-3.8l3.5-6.9
		c0.9-1.7,1-3.6,0.5-5.4c-0.6-1.8-1.8-3.3-3.4-4.1L40.8,77.8C39.8,77.3,38.7,77,37.6,77z"/>
	<path class="st4" d="M58.6,95.4c-0.3,0-0.6-0.1-0.9-0.2l-13.1-6.8c-1-0.5-1.4-1.7-0.9-2.7c0.5-1,1.7-1.4,2.7-0.9l13.1,6.8
		c1,0.5,1.4,1.7,0.9,2.7C60,95,59.3,95.4,58.6,95.4z"/>
	<path class="st4" d="M54.1,104c-0.3,0-0.6-0.1-0.9-0.2L40,96.9c-1-0.5-1.4-1.7-0.9-2.7c0.5-1,1.7-1.4,2.7-0.9l13.1,6.8
		c1,0.5,1.4,1.7,0.9,2.7C55.5,103.6,54.8,104,54.1,104z"/>
	<path class="st5" d="M58.6,94.4c-0.2,0-0.3,0-0.5-0.1L45,87.4c-0.5-0.3-0.7-0.9-0.4-1.3c0.3-0.5,0.9-0.7,1.3-0.4L59,92.5
		c0.5,0.3,0.7,0.9,0.4,1.3C59.3,94.2,58.9,94.4,58.6,94.4z"/>
	<path class="st5" d="M54.1,103c-0.2,0-0.3,0-0.5-0.1L40.5,96c-0.5-0.3-0.7-0.9-0.4-1.3c0.3-0.5,0.9-0.7,1.3-0.4l13.1,6.8
		c0.5,0.3,0.7,0.9,0.4,1.3C54.8,102.8,54.5,103,54.1,103z"/>
	<path class="st6" d="M83.7,30.5c-0.2,0-0.3,0-0.5-0.1l-5.8-3c-0.5-0.3-0.7-0.9-0.4-1.3c0.3-0.5,0.9-0.7,1.3-0.4l5.8,3
		c0.5,0.3,0.7,0.9,0.4,1.3C84.4,30.3,84,30.5,83.7,30.5z"/>
	<path class="st6" d="M103.4,61.2c-0.1,0-0.3,0-0.4-0.1c-0.5-0.2-0.8-0.8-0.6-1.3c4.3-10.6,2.3-18.2-5.8-22.4l-9.6-5
		c-0.5-0.3-0.7-0.9-0.4-1.3c0.3-0.5,0.9-0.7,1.3-0.4l9.6,5c9.1,4.7,11.5,13.4,6.8,24.9C104.2,61,103.8,61.2,103.4,61.2z"/>
	<path class="st6" d="M59.8,56.8c-0.1,0-0.3,0-0.4-0.1c-0.5-0.2-0.7-0.8-0.4-1.3c2.4-4.7-2-7.7-2.5-8c-2.3-1.5-12.3-6.7-12.4-6.7
		c-0.5-0.3-0.7-0.9-0.4-1.3c0.3-0.5,0.9-0.7,1.3-0.4c0.4,0.2,10.2,5.3,12.6,6.8c3.2,2.1,5.4,6.1,3.2,10.6
		C60.6,56.6,60.2,56.8,59.8,56.8z"/>
	<path class="st6" d="M65.3,105.8c-0.1,0-0.3,0-0.4-0.1c-0.5-0.2-0.7-0.8-0.5-1.3l3.2-6.8c0.2-0.5,0.8-0.7,1.3-0.5
		c0.5,0.2,0.7,0.8,0.5,1.3l-3.2,6.8C66,105.6,65.7,105.8,65.3,105.8z"/>
	<path class="st6" d="M16,69.7c-2.2,0-4-1.8-4-4c0-2.2,1.8-4,4-4c2.2,0,4,1.8,4,4C20,68,18.2,69.7,16,69.7z M16,63.6
		c-1.2,0-2.1,1-2.1,2.1c0,1.2,0.9,2.1,2.1,2.1c1.2,0,2.1-0.9,2.1-2.1C18.1,64.6,17.2,63.6,16,63.6z"/>
	<path class="st6" d="M80,117c-2.2,0-4-1.8-4-4c0-2.2,1.8-4,4-4c2.2,0,4,1.8,4,4C84,115.2,82.2,117,80,117z M80,110.9
		c-1.2,0-2.1,1-2.1,2.1c0,1.2,1,2.1,2.1,2.1c1.2,0,2.1-1,2.1-2.1C82.1,111.8,81.2,110.9,80,110.9z"/>
	<path class="st6" d="M113.9,81.2c-2.3,0-4.1-1.8-4.1-4.1c0-2.3,1.8-4.1,4.1-4.1c2.3,0,4.1,1.8,4.1,4.1
		C118,79.4,116.1,81.2,113.9,81.2z M113.9,74.9c-1.2,0-2.2,1-2.2,2.2c0,1.2,1,2.2,2.2,2.2c1.2,0,2.2-1,2.2-2.2
		C116.1,75.9,115.1,74.9,113.9,74.9z"/>
	<path class="st6" d="M106.5,97.2c0-0.4-0.4-0.8-1-0.9l-1.9-0.3c-0.5-0.1-1.1-0.6-1.1-1.1l-0.3-1.9c-0.1-0.5-0.5-1-0.9-1
		c-0.4,0-0.8,0.4-0.9,1l-0.3,1.9c-0.1,0.5-0.6,1.1-1.1,1.1l-1.9,0.3c-0.5,0.1-1,0.5-1,0.9c0,0.4,0.4,0.8,1,0.9l1.9,0.3
		c0.5,0.1,1.1,0.6,1.1,1.1l0.3,1.9c0.1,0.5,0.5,1,0.9,1c0.4,0,0.8-0.4,0.8-1l0.3-2.1c0.1-0.5,0.6-1,1.1-1.1l1.8-0.1
		C106,98,106.5,97.6,106.5,97.2z"/>
	<path class="st6" d="M37.3,24.4c0-0.4-0.4-0.8-1-0.9l-1.9-0.3c-0.5-0.1-1.1-0.6-1.1-1.1L33,20.3c-0.1-0.5-0.5-1-0.9-1
		c-0.4,0-0.8,0.4-0.9,1L31,22.1c-0.1,0.5-0.6,1.1-1.1,1.1L28,23.5c-0.5,0.1-1,0.5-1,0.9c0,0.4,0.4,0.8,1,0.9l1.9,0.3
		c0.5,0.1,1.1,0.6,1.1,1.1l0.3,1.9c0.1,0.5,0.5,1,0.9,1c0.4,0,0.8-0.4,0.8-1l0.3-2.1c0.1-0.5,0.6-1,1.1-1.1l1.8-0.1
		C36.9,25.1,37.3,24.8,37.3,24.4z"/>
</g>
</svg>
