<?xml version="1.0" encoding="utf-8"?>
<!-- Generator: Adobe Illustrator 21.0.2, SVG Export Plug-In . SVG Version: 6.00 Build 0)  -->
<svg version="1.1" id="folder" xmlns="http://www.w3.org/2000/svg" xmlns:xlink="http://www.w3.org/1999/xlink" x="0px" y="0px"
	 viewBox="0 0 128 128" style="enable-background:new 0 0 128 128;" xml:space="preserve">
<style type="text/css">
	.st0{fill:#A7FCD0;}
	.st1{fill:#F4B10B;}
	.st2{fill:#663210;}
	.st3{fill:#FBD000;}
	.st4{fill:#FFFFFF;}
</style>
<g>
	<circle class="st0" cx="64" cy="64" r="64"/>
	<path class="st1" d="M28.4,87.8c0,4.4,3.6,8,8,8h61.3c4.4,0,8-3.6,8-8v-42c0-4.4-3.6-8-8-8H81.3c-4.4,0-10.1,0-12.6,0
		s-5.8-1.8-7.2-4c-1.5-2.2-4.9-4-7.6-4c-2.7,0-8.5,0-12.9,0h-4.5c-4.4,0-8,3.6-8,8V87.8z"/>
	<path class="st2" d="M97,97H37c-5,0-9-4-9-9V37c0-5,4-9,9-9h14c4.8,0,9.8,2.2,11.4,5c1.2,2.2,5.6,4,9.6,4h25c5,0,9,4,9,9v42
		C106,93,102,97,97,97z M37,30c-3.9,0-7,3.1-7,7v51c0,3.9,3.1,7,7,7h60c3.9,0,7-3.1,7-7V46c0-3.9-3.1-7-7-7H72
		c-4.8,0-9.8-2.2-11.4-5c-1.2-2.2-5.6-4-9.6-4H37z"/>
	<path class="st3" d="M95.5,51.2c-1.1-4.3-5.5-7.8-9.9-7.8H23.2c-4.4,0-7.1,3.5-6.1,7.8L26.3,88c1.1,4.3,5.5,7.8,9.9,7.8h62.3
		c4.4,0,7.1-3.5,6.1-7.8L95.5,51.2z"/>
	<path class="st2" d="M68,67H46c-0.5,0-1-0.4-1-1s0.4-1,1-1h22c0.5,0,1,0.4,1,1S68.6,67,68,67z"/>
	<path class="st2" d="M72,72h-6c-0.6,0-1-0.4-1-1s0.5-1,1-1h6c0.6,0,1,0.4,1,1S72.5,72,72,72z"/>
	<path class="st1" d="M104.5,88l-2.3-8.3c1.1,4.3-1.7,8.3-6.1,8.3H33.8c-3.7,0-7.5-3.1-9.2-6.4l1.6,6.4c1.1,4.3,5.5,7.8,9.9,7.8
		h62.3C102.8,95.8,105.5,92.3,104.5,88z"/>
	<path class="st2" d="M60,72H47c-0.6,0-1-0.4-1-1s0.5-1,1-1h13c0.6,0,1,0.4,1,1S60.5,72,60,72z"/>
	<path class="st2" d="M98.7,97H36.3c-4.8,0-9.6-3.8-10.7-8.6L17.2,51c-0.5-2.4-0.1-4.6,1.3-6.4c1.4-1.7,3.4-2.7,5.9-2.7h61.5
		c4.8,0,9.6,3.8,10.8,8.5l9.1,37.5c0.6,2.4,0.2,4.6-1.2,6.3C103.2,96.1,101.2,97,98.7,97z M24.4,44c-1.8,0-3.3,0.7-4.3,1.9
		c-1,1.2-1.3,2.9-0.9,4.7L27.5,88c0.9,3.8,4.8,7,8.7,7h62.5c1.8,0,3.3-0.7,4.3-1.9c1-1.2,1.2-2.9,0.8-4.6L94.7,51
		c-0.9-3.8-5-7-8.9-7H24.4z"/>
	<path class="st4" d="M98,82.5c-0.4,0-0.8-0.3-1-0.7C97,81.6,91.4,61,89.8,54.6c-1.4-5.6-3.8-5.6-7-5.6H49.2c-0.5,0-1-0.4-1-1
		c0-0.6,0.4-1,1-1h33.6c3.4,0,7.2,0,9,7.1c1.6,6.4,7.2,26.9,7.2,27.2c0.1,0.5-0.2,1.1-0.7,1.2C98.2,82.5,98.1,82.5,98,82.5z"/>
	<path class="st4" d="M39,49H25.9c-0.6,0-1-0.4-1-1c0-0.6,0.5-1,1-1H39c0.6,0,1,0.4,1,1C40,48.6,39.5,49,39,49z"/>
	<path class="st4" d="M61,118c-2.2,0-4-1.8-4-4c0-2.2,1.8-4,4-4c2.2,0,4,1.8,4,4C65,116.2,63.2,118,61,118z M61,111.9
		c-1.2,0-2.1,1-2.1,2.1c0,1.2,1,2.1,2.1,2.1c1.2,0,2.1-1,2.1-2.1C63.1,112.8,62.2,111.9,61,111.9z"/>
	<path class="st4" d="M48,18c-2.2,0-4-1.8-4-4c0-2.2,1.8-4,4-4c2.2,0,4,1.8,4,4C52,16.2,50.2,18,48,18z M48,11.9
		c-1.2,0-2.1,1-2.1,2.1c0,1.2,1,2.1,2.1,2.1c1.2,0,2.1-1,2.1-2.1C50.1,12.8,49.1,11.9,48,11.9z"/>
	<path class="st4" d="M87.8,24.8c0-0.4-0.4-0.8-1-0.9L85,23.7c-0.5-0.1-1.1-0.6-1.1-1.1l-0.3-1.9c-0.1-0.5-0.5-1-0.9-1
		c-0.4,0-0.8,0.4-0.9,1l-0.3,1.9c-0.1,0.5-0.6,1.1-1.1,1.1l-1.9,0.3c-0.5,0.1-1,0.5-1,0.9c0,0.4,0.4,0.8,1,0.9l1.9,0.3
		c0.5,0.1,1.1,0.6,1.1,1.1l0.3,1.9c0.1,0.5,0.5,1,0.9,1c0.4,0,0.8-0.4,0.8-1l0.3-2.1c0.1-0.5,0.6-1,1.1-1.1l1.8-0.1
		C87.4,25.5,87.8,25.2,87.8,24.8z"/>
	<path class="st4" d="M17.8,77.8c0-0.4-0.4-0.8-1-0.9L15,76.7c-0.5-0.1-1.1-0.6-1.1-1.1l-0.3-1.9c-0.1-0.5-0.5-1-0.9-1
		c-0.4,0-0.8,0.4-0.9,1l-0.3,1.9c-0.1,0.5-0.6,1.1-1.1,1.1l-1.9,0.3c-0.5,0.1-1,0.5-1,0.9c0,0.4,0.4,0.8,1,0.9l1.9,0.3
		c0.5,0.1,1.1,0.6,1.1,1.1l0.3,1.9c0.1,0.5,0.5,1,0.9,1c0.4,0,0.8-0.4,0.8-1l0.3-2.1c0.1-0.5,0.6-1,1.1-1.1l1.8-0.1
		C17.4,78.5,17.8,78.2,17.8,77.8z"/>
	<path class="st4" d="M122.3,64.8c0-0.4-0.4-0.8-1-0.9l-1.9-0.3c-0.5-0.1-1.1-0.6-1.1-1.1l-0.3-1.9c-0.1-0.5-0.5-1-0.9-1
		c-0.4,0-0.8,0.4-0.9,1l-0.3,1.9c-0.1,0.5-0.6,1.1-1.1,1.1l-1.9,0.3c-0.5,0.1-1,0.5-1,0.9c0,0.4,0.4,0.8,1,0.9l1.9,0.3
		c0.5,0.1,1.1,0.6,1.1,1.1l0.3,1.9c0.1,0.5,0.5,1,0.9,1c0.4,0,0.8-0.4,0.8-1l0.3-2.1c0.1-0.5,0.6-1,1.1-1.1l1.8-0.1
		C121.9,65.5,122.3,65.2,122.3,64.8z"/>
</g>
</svg>
