<?xml version="1.0" encoding="utf-8"?>
<!-- Generator: Adobe Illustrator 21.0.2, SVG Export Plug-In . SVG Version: 6.00 Build 0)  -->
<svg version="1.1" id="Layer_1" xmlns="http://www.w3.org/2000/svg" xmlns:xlink="http://www.w3.org/1999/xlink" x="0px" y="0px"
	 viewBox="0 0 128 128" style="enable-background:new 0 0 128 128;" xml:space="preserve">
<style type="text/css">
	.st0{fill:#FC8BA4;}
	.st1{fill:#F74541;}
	.st2{fill:#633C22;}
	.st3{fill:#F9D4CA;}
	.st4{fill:#EFBFB4;}
	.st5{fill:#FFFFFF;}
	.st6{fill:#F29F8F;}
	.st7{fill:#442611;}
	.st8{fill:#FF9E99;}
	.st9{fill:#915B36;}
	.st10{opacity:0.5;fill:#FFFFFF;}
</style>
<circle class="st0" cx="64" cy="64" r="64"/>
<g>
	<circle class="st0" cx="64" cy="64" r="64"/>
	<path class="st1" d="M64.5,127.8c10.1,0,19.6-2.3,28-6.5C91,106.9,78.9,95.7,64.1,95.7c-14.7,0-26.7,11-28.4,25.3
		C44.4,125.3,54.1,127.8,64.5,127.8z"/>
	<path class="st2" d="M38,105c-2.2,0-4-1.8-4-4V51.4c0-2.2,0.8-5.6,1.7-7.6c0,0,11.4-23.7,28.6-23.7c17.2,0,28.9,23.7,28.9,23.7
		c1,2,1.8,5.4,1.8,7.6V101c0,2.2-1.8,4-4,4H38z"/>
	<path class="st1" d="M64.5,127.8c10.1,0,19.6-2.3,28-6.5C91,106.9,78.9,95.7,64.1,95.7c-14.7,0-26.7,11-28.4,25.3
		C44.4,125.3,54.1,127.8,64.5,127.8z"/>
	<path class="st3" d="M69,99.4c0,2.3-2,3.6-4,3.6s-4-1.3-4-3.6l0-8.9c0-2.3,2-3.5,4-3.5s4,1.2,4,3.5V99.4z"/>
	<path class="st3" d="M28.6,63.3c0,3,2.4,5.4,5.4,5.4c3,0,5.4-2.7,5.4-5.7c0-3-2.4-5.2-5.4-5.2C31,57.9,28.6,60.3,28.6,63.3z"/>
	<path class="st3" d="M100.5,63.3c0,3-2.4,5.4-5.4,5.4c-3,0-5.4-2.7-5.4-5.7c0-3,2.4-5.2,5.4-5.2C98.1,57.9,100.5,60.3,100.5,63.3z"
		/>
	<path class="st3" d="M64.3,27.2c14.9,0,27,12.1,27,27v10.8c0,14.9-12.1,27-27,27c-14.9,0-27-12.1-27-27V54.2
		C37.4,39.3,49.4,27.2,64.3,27.2z"/>
	<path d="M45,66c0-2.1,1.8-4,4-4c2.2,0,4,1.9,4,4H45z"/>
	<path class="st4" d="M64.3,86.3c-14.9,0-27-12.1-27-27v5.6c0,14.9,12.1,27,27,27c14.9,0,27-12.1,27-27v-5.6
		C91.3,74.3,79.2,86.3,64.3,86.3z"/>
	<path d="M74,66c0-2.1,1.8-4,4-4c2.2,0,4,1.9,4,4H74z"/>
	<path class="st5" d="M71,77c0,3.4-2.5,6-6,6c-3.5,0-6-2.6-6-6H71z"/>
	<path class="st6" d="M50,71.5c0,1.4-1,2.5-2.3,2.5h-3.4C43,74,42,72.9,42,71.5l0,0c0-1.4,1-2.5,2.3-2.5h3.4C49,69,50,70.1,50,71.5
		L50,71.5z"/>
	<path class="st6" d="M87,71.5c0,1.4-1,2.5-2.3,2.5h-3.4C80,74,79,72.9,79,71.5l0,0c0-1.4,1-2.5,2.3-2.5h3.4C86,69,87,70.1,87,71.5
		L87,71.5z"/>
	<path class="st7" d="M52,58H46c-0.5,0-1-0.4-1-1s0.4-1,1-1H52c0.5,0,1,0.4,1,1S52.6,58,52,58z"/>
	<path class="st7" d="M81.9,58h-6.9c-0.6,0-1.1-0.4-1.1-1s0.5-1,1.1-1h6.9c0.6,0,1.1,0.4,1.1,1S82.5,58,81.9,58z"/>
	<path class="st2" d="M64.3,20.1C36.5,20.1,35,48,35,48.4v35.2h5V51.2h49.1v32.4H94V51.2C94,51.2,94.5,20.1,64.3,20.1z"/>
	<path class="st8" d="M86.5,118.1c-0.4,0-0.8-0.2-0.9-0.6c-0.6-1.5-1.2-2.8-1.8-4c-0.3-0.5-0.1-1.1,0.4-1.4c0.5-0.3,1.1-0.1,1.4,0.4
		c0.7,1.3,1.3,2.7,1.9,4.3c0.2,0.5-0.1,1.1-0.6,1.3C86.8,118,86.6,118.1,86.5,118.1z"/>
	<path class="st8" d="M82.4,110.4c-0.3,0-0.6-0.1-0.8-0.4c-2.6-3.5-5.6-5.1-8.1-6.2c-0.5-0.2-0.7-0.8-0.5-1.3
		c0.2-0.5,0.8-0.7,1.3-0.5c2.8,1.3,6,2.9,8.9,6.9c0.3,0.4,0.2,1.1-0.2,1.4C82.8,110.4,82.6,110.4,82.4,110.4z"/>
	<path class="st9" d="M89,43.8c-0.4,0-0.8-0.3-0.9-0.7c-1.8-5.1-5.3-9.7-9.8-12.8c-0.5-0.3-0.6-0.9-0.3-1.4c0.3-0.5,0.9-0.6,1.4-0.3
		c4.9,3.3,8.6,8.2,10.6,13.8c0.2,0.5-0.1,1.1-0.6,1.3C89.2,43.8,89.1,43.8,89,43.8z"/>
	<path class="st9" d="M72.3,27.3c-0.1,0-0.2,0-0.3-0.1c-2.6-0.9-5.2-1.3-7.9-1.3c-0.6,0-1-0.4-1-1c0-0.6,0.4-1,1-1
		c2.9,0,5.8,0.5,8.5,1.4c0.5,0.2,0.8,0.7,0.6,1.3C73.1,27,72.7,27.3,72.3,27.3z"/>
	<path class="st7" d="M90,52H39c-0.6,0-1-0.4-1-1s0.4-1,1-1h51c0.6,0,1,0.4,1,1S90.6,52,90,52z"/>
	<path class="st4" d="M67,71c0,1.1-1,2-2,2c-1,0-2-0.9-2-2v-5c0-1.1,1-2,2-2c1,0,2,0.9,2,2V71z"/>
	<path class="st10" d="M117.5,53.2c0-0.4-0.4-0.8-1-0.9l-1.9-0.3c-0.5-0.1-1.1-0.6-1.1-1.1l-0.3-1.9c-0.1-0.5-0.5-1-0.9-1
		c-0.4,0-0.8,0.4-0.9,1l-0.3,1.9c-0.1,0.5-0.6,1.1-1.1,1.1l-1.9,0.3c-0.5,0.1-1,0.5-1,0.9c0,0.4,0.4,0.8,1,0.9l1.9,0.3
		c0.5,0.1,1.1,0.6,1.1,1.1l0.3,1.9c0.1,0.5,0.5,1,0.9,1c0.4,0,0.8-0.4,0.9-1l0.3-2.1c0.1-0.5,0.6-1,1.1-1.1l1.8-0.1
		C117,54,117.5,53.6,117.5,53.2z"/>
	<path class="st10" d="M27.5,82.2c0-0.4-0.4-0.8-1-0.9l-1.9-0.3c-0.5-0.1-1.1-0.6-1.1-1.1l-0.3-1.9c-0.1-0.5-0.5-1-0.9-1
		c-0.4,0-0.8,0.4-0.9,1L21.2,80c-0.1,0.5-0.6,1.1-1.1,1.1l-1.9,0.3c-0.5,0.1-1,0.5-1,0.9s0.4,0.8,1,0.9l1.9,0.3
		c0.5,0.1,1.1,0.6,1.1,1.1l0.3,1.9c0.1,0.5,0.5,1,0.9,1c0.4,0,0.8-0.4,0.9-1l0.3-2.1c0.1-0.5,0.6-1,1.1-1.1l1.8-0.1
		C27,83,27.5,82.6,27.5,82.2z"/>
	<path class="st10" d="M21,47c-2.2,0-4-1.8-4-4c0-2.2,1.8-4,4-4c2.2,0,4,1.8,4,4C25,45.2,23.2,47,21,47z M21,40.9
		c-1.2,0-2.1,0.9-2.1,2.1c0,1.2,1,2.1,2.1,2.1c1.2,0,2.1-0.9,2.1-2.1C23.1,41.8,22.2,40.9,21,40.9z"/>
	<path class="st10" d="M98,29c-2.2,0-4-1.8-4-4c0-2.2,1.8-4,4-4c2.2,0,4,1.8,4,4C102,27.2,100.2,29,98,29z M98,22.9
		c-1.2,0-2.1,0.9-2.1,2.1c0,1.2,1,2.1,2.1,2.1c1.2,0,2.1-0.9,2.1-2.1C100.1,23.8,99.2,22.9,98,22.9z"/>
	<path class="st10" d="M107,90c-2.2,0-4-1.8-4-4c0-2.2,1.8-4,4-4c2.2,0,4,1.8,4,4C111,88.2,109.2,90,107,90z M107,83.9
		c-1.2,0-2.1,0.9-2.1,2.1c0,1.2,1,2.1,2.1,2.1c1.2,0,2.1-0.9,2.1-2.1C109.1,84.8,108.2,83.9,107,83.9z"/>
	<path class="st7" d="M101,63c0-3.2-1.9-5.6-5-6v-5.6c0,0,0,0,0-0.1h-0.1c0-0.1,0.1-0.2,0.1-0.3c0-17.9-13.9-31.9-31.7-31.9
		C46.8,19.1,33,33.1,33,51c0,0.1,0,0.2,0.1,0.3H33c0,0,0,0,0,0.1V57c-3.1,0.5-5,2.8-5,6c0,3.2,1.9,6.5,5,7l0,31c0,2.8,2.2,5,5,5h2.9
		c-3.2,4.1-5.4,9-6.1,14.5c0.6,0.3,1.3,0.7,1.9,1C38,108.7,47.7,98.9,60,97v2.3c0,2.7,2.1,4.6,5,4.6c2.9,0,5-1.9,5-4.6v-2
		c11.4,2.5,20.2,12.2,21.5,24.4c0.6-0.3,1.3-0.6,1.9-0.9c-0.7-5.6-2.9-10.7-6.2-14.9H91c2.8,0,5-2.2,5-5l0-31
		C99.1,69.5,101,66.2,101,63z M30,63c0-2.1,1-3.5,3-4l0,9C31,67.5,30,65.1,30,63z M68,99.4c0,2-1.6,2.6-3,2.6c-1.4,0-3-0.7-3-2.6
		v-6.7c0.8,0.1,2.2,0.3,3,0.3c1.2,0,1.8-0.3,3-0.5V99.4z M94,51.4V101c0,1.7-1.3,3-3,3h-5.5c-4.1-4.4-9.5-7.4-15.5-8.7v-3.2
		c10.7-2.2,19.2-10.5,21.6-21h-2.1C86.7,82.4,77.2,91,65,91s-23.1-8.6-25.9-19.8h-2.1c2.5,11,11.6,19.5,22.9,21.3V95
		c-6.8,0.9-12.9,4.2-17.4,9H38c-1.7,0-3-1.3-3-3V51.4c0,0,0,0,0-0.1h-0.1c0-0.1,0.1-0.2,0.1-0.3c0-16.8,12.9-29.9,29.3-29.9
		C81,21.1,94,34.2,94,51C94,51.1,94,51.2,94,51.4L94,51.4C94,51.4,94,51.4,94,51.4z M96,68l0-9c2,0.4,3,1.9,3,4
		C99,65.1,98,67.6,96,68z"/>
	<g>
		<rect x="35" y="70.4" class="st2" width="5" height="13.2"/>
		<rect x="89.1" y="70.4" class="st2" width="4.9" height="13.2"/>
	</g>
</g>
</svg>
