<?xml version="1.0" encoding="utf-8"?>
<!-- Generator: Adobe Illustrator 21.0.2, SVG Export Plug-In . SVG Version: 6.00 Build 0)  -->
<svg version="1.1" id="glasses" xmlns="http://www.w3.org/2000/svg" xmlns:xlink="http://www.w3.org/1999/xlink" x="0px" y="0px"
	 viewBox="0 0 128 128" style="enable-background:new 0 0 128 128;" xml:space="preserve">
<style type="text/css">
	.st0{fill:#6AE5E1;}
	.st1{fill:#FFFFFF;}
	.st2{fill:#EA291C;}
	.st3{fill:#A03513;}
	.st4{opacity:0.7;fill:#074370;}
	.st5{opacity:0.5;fill:#FFFFFF;}
</style>
<g>
	<circle class="st0" cx="64" cy="64" r="64"/>
	<path class="st1" d="M66,28c-2.2,0-4-1.8-4-4c0-2.2,1.8-4,4-4c2.2,0,4,1.8,4,4C70,26.2,68.2,28,66,28z M66,21.9
		c-1.2,0-2.1,1-2.1,2.1c0,1.2,1,2.1,2.1,2.1c1.2,0,2.1-1,2.1-2.1C68.1,22.8,67.2,21.9,66,21.9z"/>
	<path class="st1" d="M78,111c-2.2,0-4-1.8-4-4c0-2.2,1.8-4,4-4c2.2,0,4,1.8,4,4C81.9,109.2,80.2,111,78,111z M78,104.9
		c-1.2,0-2.1,0.9-2.1,2.1c0,1.2,0.9,2.1,2.1,2.1c1.2,0,2.1-0.9,2.1-2.1C80.1,105.9,79.1,104.9,78,104.9z"/>
	<path class="st2" d="M8.1,59.3c0,0,69.8-5.8,87.1,8.4c17.3,14.3,17.5,17,20.4,19c2.9,2,5.8-2.3,2.8-6.1
		c-5.7-7.2-19.1-19.1-27.3-22.2c-18-6.8-84.1-8-84.1-8"/>
	<path class="st1" d="M87.4,30.6c0-0.4,0.4-0.8,1-0.9l1.9-0.3c0.5-0.1,1.1-0.6,1.1-1.1l0.3-1.9c0.1-0.5,0.5-1,0.9-1
		c0.4,0,0.8,0.4,0.9,1l0.3,1.9c0.1,0.5,0.6,1.1,1.1,1.1l1.9,0.3c0.5,0.1,1,0.5,1,0.9c0,0.4-0.4,0.8-1,0.9l-1.9,0.3
		c-0.5,0.1-1.1,0.6-1.1,1.1l-0.3,1.9c-0.1,0.5-0.5,1-0.9,1c-0.4,0-0.8-0.4-0.9-1l-0.3-2.1c-0.1-0.5-0.6-1-1.1-1.1l-1.8-0.1
		C87.9,31.3,87.4,31,87.4,30.6z"/>
	<path class="st1" d="M30.4,31.2c0-0.4,0.4-0.8,1-0.9l1.9-0.3c0.5-0.1,1.1-0.6,1.1-1.1l0.3-1.9c0.1-0.5,0.5-1,0.9-1
		c0.4,0,0.8,0.4,0.9,1l0.3,1.9c0.1,0.5,0.6,1.1,1.1,1.1l1.9,0.3c0.5,0.1,1,0.5,1,0.9c0,0.4-0.4,0.8-1,0.9l-1.9,0.3
		c-0.5,0.1-1.1,0.6-1.1,1.1l-0.3,1.9c-0.1,0.5-0.5,1-0.9,1c-0.4,0-0.8-0.4-0.9-1l-0.3-2.1c-0.1-0.5-0.6-1-1.1-1.1L31.4,32
		C30.9,32,30.4,31.6,30.4,31.2z"/>
	<path class="st3" d="M117.4,88.2c-0.7,0-1.4-0.2-2.1-0.7c-1.1-0.7-1.8-1.6-2.9-2.8c-2.1-2.4-6.1-6.8-17.6-16.3
		C78,54.6,8.9,60.2,8.2,60.3c-0.5,0-1-0.4-1.1-0.9c0-0.6,0.4-1,0.9-1.1c2.9-0.2,70.6-5.7,88.1,8.7c11.6,9.5,15.7,14.1,17.8,16.5
		c1.1,1.2,1.7,1.9,2.6,2.5c0.9,0.6,1.6,0.2,1.9-0.1c0.8-0.9,1-2.8-0.5-4.6c-5.4-6.8-18.6-18.7-27-21.9c-17.7-6.6-83.4-8-84-8
		c-0.6,0-1-0.5-1-1c0-0.6,0.5-1,1-1c2.7,0.1,66.7,1.4,84.7,8.1c8.7,3.2,22.3,15.5,27.9,22.5c2.1,2.7,1.8,5.6,0.4,7.2
		C119.2,87.8,118.3,88.2,117.4,88.2z"/>
	<path class="st2" d="M119.1,59.3c0,0-69.8-5.8-87.1,8.4c-17.3,14.3-17.5,17-20.4,19c-2.9,2-5.8-2.3-2.8-6.1
		c5.7-7.2,19.1-19.1,27.3-22.2c18-6.8,84.1-8,84.1-8"/>
	<path class="st3" d="M9.6,88.2c-0.9,0-1.7-0.4-2.4-1.1c-1.4-1.5-1.8-4.5,0.4-7.2c5.6-7,19.2-19.2,27.8-22.5
		c18-6.7,81.9-8.1,84.6-8.1c0,0,0,0,0,0c0.5,0,1,0.4,1,1c0,0.6-0.4,1-1,1c-0.7,0-66.3,1.4-84,8c-8.3,3.1-21.5,15-27,21.9
		c-1.4,1.8-1.3,3.6-0.5,4.6c0.3,0.3,1,0.8,1.9,0.1c0.9-0.6,1.5-1.3,2.6-2.5c2.2-2.4,6.2-6.9,17.8-16.5c7.4-6.1,24.4-9.4,50.8-9.8
		c19.5-0.3,37.1,1.1,37.2,1.1c0.6,0,1,0.5,0.9,1.1c0,0.6-0.5,1-1.1,0.9c-0.7-0.1-69.8-5.6-86.6,8.2c-11.5,9.5-15.5,13.9-17.6,16.3
		c-1.1,1.2-1.9,2.1-2.9,2.8C11,88,10.3,88.2,9.6,88.2z"/>
	<path class="st4" d="M109.4,55.3c2,1.8,4,10,1.2,16.4c-2.8,6.4-8.9,14-22.7,10.9c-13.8-3-15.6-20.3-12.7-25.6
		c2.9-5.3,9.8-7.6,20.6-6.1C106.7,52.5,109.4,55.3,109.4,55.3z"/>
	<path class="st4" d="M17.9,55.3c-2,1.8-4,10-1.2,16.4c2.8,6.4,8.9,14,22.7,10.9c13.8-3,15.6-20.3,12.7-25.6
		c-2.9-5.3-9.8-7.6-20.6-6.1C20.7,52.5,17.9,55.3,17.9,55.3z"/>
	<path class="st2" d="M101.2,47c-14.2-1.3-31.3-1-37.5-0.8C57.6,46,40.5,45.7,26.2,47c-10.6,0.9-16,2.7-18.7,3.2
		c-1.8,0.3-2.2,1.5-2.1,2.4c0.1,0.9,0.2,2.4,0.5,4.1c0.3,1.7,1,2.4,1.9,2.6c1.1,0.2,2.5,1,3,3.9c1,5.2,0.4,25.8,23.5,25.1
		c23.1-0.7,25.8-26.4,25.8-26.4s0.5-5.5,3.6-5.5c3.1,0,3.6,5.5,3.6,5.5S70,87.5,93.1,88.2c23.1,0.7,22.5-19.9,23.5-25.1
		c0.5-2.5,1.5-3.4,2.5-3.8c1.1-0.4,2-1,2.4-2.3c0.3-1.2,0.5-3,0.4-4c0-1-0.4-2.7-3-3.1C116,49.5,110.6,47.8,101.2,47z M39.5,82.3
		c-13.4,3.4-19.5-3-21.7-9.5c-2.3-6.7-0.1-14.8,1.4-16.7c1.5-2,4.3-3.5,12.6-4.3c10.7-1,17.3,0.7,20.1,5.9
		C54.8,63,51.5,79.2,39.5,82.3z M75.8,57.8c2.8-5.2,9.5-6.9,20.1-5.9c8.3,0.8,11,2.3,12.6,4.3c1.5,2,3.7,10.1,1.4,16.7
		c-2.3,6.5-8.3,12.9-21.7,9.5C76.2,79.2,72.9,63,75.8,57.8z"/>
	<path class="st3" d="M94.2,89C94.2,89,94.2,89,94.2,89c-0.4,0-0.8,0-1.2,0c-23.8-0.7-26.9-26.9-26.9-27.1c-0.1-1.2-0.8-4.6-2.6-4.6
		c-1.8,0-2.5,3.4-2.6,4.6c0,0.3-3.1,26.4-26.9,27.1C12.6,89.7,10.6,72.6,9.8,65.4c-0.1-0.9-0.2-1.6-0.3-2.2
		c-0.3-1.9-1.1-2.9-2.2-3.1c-0.7-0.1-2.4-0.7-2.8-3.4c-0.2-1.3-0.3-2.5-0.4-3.4L4,52.6c-0.1-1.3,0.5-3.5,2.9-4
		c3-0.7,8.2-1.7,18.9-2.7c7.1-0.6,15.8-1,25.7-1c5.1,0,9.4,0.1,12,0.2c2.6-0.1,6.9-0.2,12-0.2c9.9,0,18.6,0.3,25.7,1
		c8.9,0.8,15.3,1.7,18,2.5c3.4,1,3.7,3.7,3.7,4.5c0,1.1-0.1,3-0.5,4.3c-0.4,1.4-1.4,2.4-3,2.9c-1.2,0.4-1.7,1.8-1.9,3
		c-0.1,0.5-0.2,1.3-0.3,2.2C116.5,72.5,114.6,89,94.2,89z M63.5,55.3c3.2,0,4.4,4,4.6,6.4c0,0,0.7,6.3,4.2,12.5
		c4.6,8.2,11.6,12.5,20.8,12.8c19.7,0.6,21.4-14.6,22.2-21.8c0.1-0.9,0.2-1.7,0.3-2.3c0.6-3,2.1-4.1,3.2-4.5c1-0.3,1.5-0.8,1.7-1.6
		c0.3-1,0.4-2.7,0.4-3.7c0-0.6-0.3-2.1-2.3-2.7c-2.6-0.8-9-1.7-17.6-2.4C94,47.3,85.4,47,75.5,47c-5.1,0-9.3,0.1-12,0.2
		c-2.7-0.1-6.9-0.2-12-0.2c-9.9,0-18.4,0.3-25.5,0.9c-10.6,0.9-15.7,1.9-18.6,2.6C5.9,50.9,6,52.4,6,52.4l0.1,0.8
		c0.1,0.9,0.2,2,0.4,3.3c0.1,0.6,0.4,1.6,1.1,1.7c1.2,0.2,3.2,1,3.9,4.7c0.1,0.6,0.2,1.4,0.3,2.3C12.6,72.4,14.4,87.6,34,87
		c9.2-0.3,16.2-4.6,20.8-12.8c3.5-6.2,4.2-12.5,4.2-12.5C59.2,59.3,60.4,55.3,63.5,55.3z M95.2,84.1c-2.2,0-4.6-0.3-7.2-1
		c-5.2-1.3-9.5-5.2-12-10.8c-2.3-5.3-2.8-11.5-1-14.6c2.5-4.4,7.6-6.6,15.7-6.6c1.6,0,3.4,0.1,5.4,0.3c8.6,0.8,11.5,2.4,13.2,4.5
		c1.9,2.4,3.9,10.7,1.6,17.4C109.5,77.2,105.5,84.1,95.2,84.1z M90.7,53c-7.4,0-11.8,1.8-13.9,5.6c-1.3,2.3-1.2,7.7,1.1,12.9
		c1.3,2.9,4.4,8.1,10.6,9.7c2.4,0.6,4.6,0.9,6.7,0.9c9,0,12.5-6,13.8-9.5c2.2-6.3,0.1-13.8-1.3-15.5c-1.2-1.5-3.5-3-11.8-3.8
		C94,53.1,92.3,53,90.7,53z M32.2,84c-10.6,0-14.6-6.8-16.1-10.9c-2.4-6.6-0.3-15,1.6-17.3c1.8-2.2,4.8-3.8,13.6-4.5
		c2-0.2,3.8-0.3,5.5-0.3c8.3,0,13.6,2.2,16.1,6.6c1.8,3.2,1.4,9.3-1,14.6c-2.6,5.7-7,9.5-12.3,10.8C36.9,83.7,34.4,84,32.2,84z
		 M36.8,53c-1.6,0-3.4,0.1-5.3,0.3c-8.6,0.8-10.9,2.3-12.2,3.8c-1.4,1.7-3.6,9.2-1.3,15.5c1.3,3.6,4.9,9.5,14.2,9.5
		c2.1,0,4.4-0.3,6.9-0.9c6.4-1.6,9.6-6.7,11-9.7c2.4-5.2,2.4-10.6,1.1-12.9C49,54.8,44.4,53,36.8,53z"/>
	<path class="st1" d="M49,101.1c0-0.4,0.4-0.8,1-0.9l1.9-0.3c0.5-0.1,1.1-0.6,1.1-1.1l0.3-1.9c0.1-0.5,0.5-1,0.9-1
		c0.4,0,0.8,0.4,0.9,1l0.3,1.9c0.1,0.5,0.6,1.1,1.1,1.1l1.9,0.3c0.5,0.1,1,0.5,1,0.9s-0.4,0.8-1,0.9l-1.9,0.3
		c-0.5,0.1-1.1,0.6-1.1,1.1l-0.3,1.9c-0.1,0.5-0.5,1-0.9,1c-0.4,0-0.8-0.4-0.8-1l-0.3-2.1c-0.1-0.5-0.6-1-1.1-1.1l-1.8-0.1
		C49.5,101.8,49,101.5,49,101.1z"/>
	<path class="st5" d="M97,81C97,81,97,81,97,81c-17-0.5-18-13.5-18-13.6c0-0.6,0.4-1,0.9-1.1c0.5,0,1,0.4,1,0.9
		C81,67.7,81.9,78.6,97,79c0.5,0,1,0.5,1,1C98,80.6,97.6,81,97,81z"/>
	<path class="st5" d="M102.1,78c-0.3,0-0.6-0.1-0.8-0.3c-0.4-0.4-0.4-1,0-1.4c2.8-2.5,4.3-5.5,4.6-9.4c0-0.6,0.6-1,1.2-0.9
		c0.6,0,1,0.5,1,1.1c-0.4,4.3-2.1,7.8-5.3,10.6C102.6,77.9,102.4,78,102.1,78z"/>
	<path class="st5" d="M45.3,76.1c-0.3,0-0.5-0.1-0.7-0.3c-0.4-0.4-0.4-1.1,0-1.4c3.1-2.9,4.6-12.4,2.4-15.7
		c-1.6-2.4-8.8-2.8-12.9-2.6c-0.6,0-1-0.4-1.1-1c0-0.6,0.4-1,0.9-1.1c1.2-0.1,11.9-0.6,14.7,3.5c2.7,4,1.2,14.6-2.7,18.3
		C45.8,76,45.5,76.1,45.3,76.1z"/>
	<path class="st5" d="M70,60c-0.4,0-0.8-0.3-0.9-0.8c-0.4-2.3-1.3-4-2.7-5c-2-1.4-4.3-1-4.3-1c-0.5,0.1-1-0.3-1.1-0.8
		c-0.1-0.6,0.2-1.1,0.8-1.2c0.1,0,3.1-0.6,5.7,1.3c1.8,1.3,3,3.4,3.5,6.3c0.1,0.6-0.2,1.1-0.8,1.2C70.2,60,70.1,60,70,60z"/>
	<path class="st1" d="M115.4,52.9c0-0.4-0.4-0.8-1-0.9l-4.8-0.8c-0.5-0.1-1.1-0.6-1.2-1.2l-0.8-4.8c-0.1-0.5-0.5-1-0.9-1
		c-0.4,0-0.8,0.4-0.9,1l-0.8,4.8c-0.1,0.5-0.6,1.1-1.2,1.2l-4.8,0.8c-0.5,0.1-1,0.5-1,0.9c0,0.4,0.4,0.8,1,0.9l4.7,0.6
		c0.5,0.1,1.1,0.6,1.2,1.1l0.9,5c0.1,0.5,0.5,1,0.9,1c0.4,0,0.8-0.4,0.9-1l0.9-5.1c0.1-0.5,0.6-1,1.2-1.1l4.7-0.6
		C115,53.7,115.4,53.3,115.4,52.9z"/>
</g>
</svg>
