<?xml version="1.0" encoding="utf-8"?>
<!-- Generator: Adobe Illustrator 21.0.2, SVG Export Plug-In . SVG Version: 6.00 Build 0)  -->
<svg version="1.1" id="greenenergy" xmlns="http://www.w3.org/2000/svg" xmlns:xlink="http://www.w3.org/1999/xlink" x="0px"
	 y="0px" viewBox="0 0 128 128" style="enable-background:new 0 0 128 128;" xml:space="preserve">
<style type="text/css">
	.st0{fill:#3AD0F9;}
	.st1{fill:#FFFFFF;}
	.st2{fill:#663210;}
	.st3{fill:#D4D6D6;}
	.st4{fill:#84DB14;}
	.st5{fill:#6B3C1C;}
</style>
<g>
	<circle class="st0" cx="64" cy="64" r="64"/>
	<path class="st1" d="M98.3,34.7c-2.1,0-3.9-1.7-3.9-3.9c0-2.1,1.7-3.9,3.9-3.9c2.1,0,3.9,1.7,3.9,3.9
		C102.1,33,100.4,34.7,98.3,34.7z M98.3,28.8c-1.1,0-2.1,0.9-2.1,2.1c0,1.1,0.9,2.1,2.1,2.1c1.1,0,2.1-0.9,2.1-2.1
		C100.3,29.7,99.4,28.8,98.3,28.8z"/>
	<path class="st1" d="M38.8,67.9c0-0.4-0.4-0.8-1-0.9L36,66.8c-0.5-0.1-1.1-0.6-1.1-1.1l-0.3-1.9c-0.1-0.5-0.5-1-0.9-1
		c-0.4,0-0.8,0.4-0.9,1l-0.3,1.9c-0.1,0.5-0.6,1.1-1.1,1.1l-1.9,0.3c-0.5,0.1-1,0.5-1,0.9s0.4,0.8,1,0.9l1.9,0.3
		c0.5,0.1,1.1,0.6,1.1,1.1l0.3,1.9c0.1,0.5,0.5,1,0.9,1c0.4,0,0.8-0.4,0.9-1l0.3-2.1c0.1-0.5,0.6-1,1.1-1.1l1.8-0.1
		C38.4,68.7,38.8,68.3,38.8,67.9z"/>
	<path class="st2" d="M34,33c-0.6,0-1-0.5-1-1.1c0-2.8,0.3-5.5,1-8.2c0.1-0.6,0.7-0.9,1.2-0.7c0.5,0.2,0.8,0.7,0.7,1.3
		c-0.6,2.5-1,5-1,7.6C35,32.5,34.6,33,34,33z"/>
	<path class="st2" d="M117.4,105H103c-0.6,0-1-0.4-1-1c0-0.6,0.4-1,1-1h14.4c0.6,0,1,0.4,1,1C118.4,104.5,118,105,117.4,105z"/>
	<path class="st2" d="M95,105H10.3c-0.6,0-1-0.4-1-1c0-0.6,1.1-1,1.7-1h84c0.6,0,1,0.4,1,1C96,104.5,95.6,105,95,105z"/>
	<polygon class="st1" points="66,31.3 61.3,27.5 81.9,4.6 84.1,6.4 	"/>
	<path class="st2" d="M66,32.3c-0.2,0-0.5-0.1-0.6-0.2l-4.7-3.8c-0.2-0.2-0.3-0.4-0.4-0.7c0-0.3,0.1-0.5,0.3-0.7L81.2,3.9
		c0.4-0.4,1-0.4,1.4-0.1l2.2,1.8c0.4,0.3,0.5,0.9,0.2,1.4L66.8,31.9c-0.2,0.2-0.4,0.4-0.7,0.4C66.1,32.3,66,32.3,66,32.3z
		 M62.8,27.4l3,2.4L82.7,6.5L82,6L62.8,27.4z"/>
	<polygon class="st1" points="62.8,27.7 61.4,33.6 31.8,24.9 32.4,22.1 	"/>
	<path class="st2" d="M61.4,34.6c-0.1,0-0.2,0-0.3,0l-29.6-8.7c-0.5-0.2-0.8-0.7-0.7-1.2l0.7-2.7c0.1-0.5,0.6-0.8,1.2-0.8l30.3,5.6
		c0.3,0,0.5,0.2,0.7,0.4c0.1,0.2,0.2,0.5,0.1,0.8l-1.4,5.8c-0.1,0.3-0.2,0.5-0.5,0.6C61.7,34.5,61.5,34.6,61.4,34.6z M33,24.2
		l27.6,8.1l0.9-3.8l-28.3-5.2L33,24.2z"/>
	<polygon class="st1" points="64.7,28.6 61.9,28.6 59.7,104 66.9,104 	"/>
	<polygon class="st3" points="60.2,86 66.4,86 66.3,82 60.3,82 	"/>
	<path class="st2" d="M66.9,105h-7.2c-0.3,0-0.5-0.1-0.7-0.3c-0.2-0.2-0.3-0.5-0.3-0.7l2.2-75.4c0-0.5,0.5-1,1-1h2.8
		c0.5,0,1,0.4,1,1l2.2,75.4c0,0.3-0.1,0.5-0.3,0.7C67.4,104.9,67.2,105,66.9,105z M60.7,103h5.1l-2.1-73.4h-0.9L60.7,103z"/>
	<polygon class="st1" points="66.5,29.3 60.8,31.4 73,59.7 75.6,58.7 	"/>
	<path class="st2" d="M73,60.7c-0.4,0-0.8-0.2-0.9-0.6L59.9,31.8c-0.1-0.3-0.1-0.5,0-0.8c0.1-0.3,0.3-0.4,0.6-0.5l5.6-2.1
		c0.3-0.1,0.5-0.1,0.8,0c0.2,0.1,0.4,0.3,0.5,0.6l9.2,29.4c0.2,0.5-0.1,1.1-0.6,1.2l-2.6,1C73.2,60.7,73.1,60.7,73,60.7z M62.2,32
		l11.4,26.5l0.8-0.3l-8.6-27.5L62.2,32z"/>
	<circle class="st1" cx="63.8" cy="30.9" r="5.8"/>
	<path class="st2" d="M63.5,37c-3.6,0-6.5-2.9-6.5-6.5c0-3.6,2.9-6.5,6.5-6.5c3.6,0,6.5,2.9,6.5,6.5C70,34.1,67.1,37,63.5,37z
		 M63.5,25.9c-2.5,0-4.6,2.1-4.6,4.6c0,2.5,2.1,4.6,4.6,4.6c2.5,0,4.6-2.1,4.6-4.6C68.1,28,66,25.9,63.5,25.9z"/>
	<circle class="st1" cx="63.8" cy="30.9" r="2.1"/>
	<path class="st2" d="M63.5,34c-1.9,0-3.5-1.6-3.5-3.5c0-1.9,1.6-3.5,3.5-3.5c1.9,0,3.5,1.6,3.5,3.5C67,32.4,65.4,34,63.5,34z
		 M63.5,29c-0.8,0-1.5,0.7-1.5,1.5c0,0.8,0.7,1.5,1.5,1.5c0.8,0,1.5-0.7,1.5-1.5C65,29.7,64.3,29,63.5,29z"/>
	<path class="st1" d="M70,80c0,1.1-1.3,2-3,2h-7c-1.7,0-3-0.9-3-2s1.3-2,3-2h7C68.7,78,70,78.9,70,80z"/>
	<path class="st2" d="M67,83h-7c-2.2,0-4-1.3-4-3s1.8-3,4-3h7c2.2,0,4,1.3,4,3S69.2,83,67,83z M60,79c-1.2,0-2,0.6-2,1s0.8,1,2,1h7
		c1.2,0,2-0.6,2-1s-0.8-1-2-1H60z"/>
	<path class="st1" d="M114,51c0-1.1-1.3-2-3-2H97.1c-1.7,0-3,0.9-3,2s-1.1,2-2.5,2c-1.4,0-2.5,0.9-2.5,2s1.3,2,3,2h10
		c1.7,0,3-0.9,3-2s1.3-2,3-2h3C112.7,53,114,52.1,114,51z"/>
	<path class="st1" d="M44,42c0-1.1-1-2-2.3-2h-1.9c-1.2,0-1.9-1-1.9-2c0-1-0.8-2-2-2H22c-1.2,0-2,1-2,2c0,1-0.9,2-2.1,2h-2.3
		c-1.2,0-2.3,0.8-2.3,1.9c0,1.1,1.4,2.1,2.7,2.1h6c1.2,0,2.3,0.6,2.3,1.5c0,0.9-1,1.6-2.3,1.6h-1.1c-1.2,0-1.9,0.9-1.9,1.9
		s0.6,2,1.9,2h6.2c1.2,0,1.9-1,1.9-2c0-1,0.8-2,2-2h2c1.2,0,2-1,2-2c0-1,0.8-1,2-1h5C43.2,44,44,43.1,44,42z"/>
	<ellipse class="st4" cx="21.5" cy="87" rx="7.5" ry="9"/>
	<ellipse class="st4" cx="84.5" cy="82.5" rx="7.5" ry="11.5"/>
	<path class="st5" d="M21,104c-0.6,0-1-0.4-1-1V89c0-0.6,0.4-1,1-1s1,0.4,1,1v14C22,103.6,21.6,104,21,104z"/>
	<path class="st5" d="M84,104c-0.6,0-1-0.4-1-1V80c0-0.6,0.4-1,1-1s1,0.4,1,1v23C85,103.6,84.6,104,84,104z"/>
	<path class="st5" d="M85,88c-0.3,0-0.5-0.1-0.7-0.3c-0.4-0.4-0.4-1,0-1.4l3-3c0.4-0.4,1-0.4,1.4,0c0.4,0.4,0.4,1,0,1.4l-3,3
		C85.5,87.9,85.3,88,85,88z"/>
	<path class="st1" d="M25,88c-0.6,0-1-0.4-1-1c0-3.2-2.3-4-2.3-4.1c-0.5-0.2-0.8-0.7-0.6-1.3c0.2-0.5,0.7-0.8,1.3-0.6
		c0.2,0,3.7,1.3,3.7,5.9C26,87.6,25.6,88,25,88z"/>
	<path class="st1" d="M88,80.2c-0.6,0-1-0.4-1-1c0-2.2-2.6-4.2-2.6-4.2c-0.4-0.3-0.5-1-0.2-1.4c0.3-0.4,1-0.5,1.4-0.2
		c0.1,0.1,3.4,2.6,3.4,5.8C89,79.8,88.6,80.2,88,80.2z"/>
	<path class="st5" d="M84.5,95c-4.7,0-8.5-5.6-8.5-12.5S79.8,70,84.5,70S93,75.6,93,82.5S89.2,95,84.5,95z M84.5,72
		C81,72,78,76.8,78,82.5S81,93,84.5,93S91,88.2,91,82.5S88,72,84.5,72z"/>
	<path class="st5" d="M21.5,97c-4.7,0-8.5-4.5-8.5-10s3.8-10,8.5-10S30,81.5,30,87S26.2,97,21.5,97z M21.5,79c-3.6,0-6.5,3.6-6.5,8
		s2.9,8,6.5,8s6.5-3.6,6.5-8S25.1,79,21.5,79z"/>
	<path class="st2" d="M55,58c-0.1,0-0.2,0-0.3,0c-6.1-1.5-11.4-4.7-15.5-9.3c-0.4-0.4-0.3-1,0.1-1.4c0.4-0.4,1.1-0.3,1.4,0.1
		c3.8,4.3,8.8,7.3,14.4,8.7c0.5,0.1,0.9,0.7,0.7,1.2C55.9,57.7,55.4,58,55,58z"/>
	<path class="st2" d="M74,58c-0.4,0-0.7-0.2-0.9-0.6c-0.2-0.5,0-1.1,0.5-1.3c2-0.9,3.9-2,5.6-3.4c5.1-4,8.6-9.7,9.8-16
		c0.1-0.5,0.6-0.9,1.1-0.8c0.5,0.1,0.9,0.6,0.8,1.1c-1.3,6.8-5.1,12.9-10.6,17.1c-1.9,1.4-3.9,2.7-6.1,3.6C74.2,58,74.1,58,74,58z"
		/>
	<path class="st2" d="M91,30c-0.5,0-0.9-0.4-0.9-0.9c-0.3-3.7-1.3-7.3-2.9-10.6c-0.2-0.5-0.1-1.1,0.4-1.4c0.5-0.3,1-0.1,1.3,0.4
		c1.8,3.5,2.8,7.4,3.1,11.4C91.9,29.5,91.6,29.9,91,30C91,30,91,30,91,30z"/>
</g>
</svg>
