<?xml version="1.0" encoding="utf-8"?>
<!-- Generator: Adobe Illustrator 21.0.2, SVG Export Plug-In . SVG Version: 6.00 Build 0)  -->
<svg version="1.1" id="guitar" xmlns="http://www.w3.org/2000/svg" xmlns:xlink="http://www.w3.org/1999/xlink" x="0px" y="0px"
	 viewBox="0 0 128 128" style="enable-background:new 0 0 128 128;" xml:space="preserve">
<style type="text/css">
	.st0{fill:#FACF00;}
	.st1{fill:#FF4848;}
	.st2{fill:#E02020;}
	.st3{fill:#7A4242;}
	.st4{fill:#663210;}
	.st5{fill:#FFFFFF;}
	.st6{opacity:0.5;fill:#FFFFFF;}
</style>
<g>
	<circle class="st0" cx="64" cy="64" r="64"/>
	<path class="st1" d="M69.7,38.7c-0.3-1.8-3.3-3.6-9.5,0.7c-6.2,4.3-7.8,13.5-14.6,17.5c-6.8,4-17.9,4.5-24.2,9.9
		c-6.3,5.3-9,15.4,2.7,30c11.6,14.6,23,15.7,28.5,9.9c5.5-5.9,11-19.8,14.9-22.3c3.9-2.5,15.4-6.1,16.5-9.7c1.2-3.6,0.3-6.3-2.8-4.4
		c-3.1,1.9-9,2.7-10.6-1c-1.6-3.6,0.3-11.6,0.3-11.6s0.3-3.2-2.5-3.7c-2.8-0.5-4.4-5.3-3.7-8.3C65.4,42.6,70.1,40.9,69.7,38.7z"/>
	<path class="st2" d="M66.9,77c-0.8-2.2-5.4-4.4-10.6-3.9c-4.4,0.3-8.2,0.2-12.4,7.8c-4.2,7.6-0.7,18.3,4.4,20
		c5.1,1.7,8.5-9.4,12.2-13.6C64.1,83,67.7,79.2,66.9,77z"/>
	<rect x="37.6" y="79.2" transform="matrix(0.7517 -0.6595 0.6595 0.7517 -46.2827 47.2704)" class="st3" width="4" height="11.8"/>
	<path class="st4" d="M42,91.9c-0.3,0-0.6-0.1-0.8-0.3l-7.9-9.1c-0.2-0.2-0.3-0.5-0.3-0.7c0-0.3,0.1-0.5,0.3-0.7l3.1-2.7
		c0.4-0.4,1.1-0.3,1.4,0.1l7.9,9.1c0.2,0.2,0.3,0.5,0.3,0.7c0,0.3-0.1,0.5-0.3,0.7l-3.1,2.7C42.4,91.8,42.2,91.9,42,91.9z
		 M35.5,81.8l6.6,7.6l1.5-1.3L37,80.5L35.5,81.8z"/>
	<rect x="50.5" y="68.9" transform="matrix(0.8674 -0.4975 0.4975 0.8674 -30.5569 35.8288)" class="st3" width="3" height="12.8"/>
	<path class="st4" d="M54.1,83c-0.1,0-0.2,0-0.3,0c-0.3-0.1-0.5-0.2-0.7-0.5l-7-11.4C46,70.8,46,70.6,46,70.3
		c0.1-0.3,0.3-0.5,0.5-0.6l2.8-1.5c0.5-0.3,1.2-0.1,1.5,0.4l7,11.4c0.3,0.5,0.1,1.1-0.4,1.4l-2.8,1.5C54.4,83,54.3,83,54.1,83z
		 M48.6,70.9l5.9,9.6l0.9-0.5l-5.9-9.6L48.6,70.9z"/>
	<circle class="st5" cx="37.8" cy="99.5" r="2"/>
	<path class="st4" d="M38,102c-1.7,0-3-1.3-3-3s1.3-3,3-3s3,1.3,3,3S39.7,102,38,102z M38,98c-0.5,0-1,0.4-1,1s0.4,1,1,1s1-0.4,1-1
		S38.5,98,38,98z"/>
	<circle class="st5" cx="60" cy="53" r="2"/>
	<path class="st4" d="M60,56c-1.7,0-3-1.3-3-3s1.3-3,3-3s3,1.3,3,3S61.7,56,60,56z M60,52c-0.5,0-1,0.4-1,1s0.4,1,1,1s1-0.4,1-1
		S60.5,52,60,52z"/>
	<path class="st4" d="M44.8,111c-6.8,0-14.5-4.8-21.5-13.5C17.3,89.9,15,83.8,15,79c0-7,3.5-10.8,5.8-12.8c3.8-3.2,9.1-4.7,14.2-6.1
		c3.9-1.1,7.5-2.1,10.4-3.8c3.4-2,5.4-5.3,7.5-8.8c1.9-3.2,4-6.5,7.1-8.7c2.7-1.9,5.2-2.8,7.2-2.8c2.4,0,3.8,2,3.8,3
		c0,1.6-0.9,2.6-2.3,3.8c-1.1,1-2.3,2-2.6,3.2c-0.4,1.7,0,4.1,1.1,5.7c0.4,0.6,1,1.3,1.8,1.4c3,0.6,3.5,3.4,3.3,4.8c0,0,0,0.1,0,0.1
		C71.8,60.2,71,66,71.9,69c0.5,1.7,2.6,2,4.1,2c1.8,0,3.7-0.6,5.2-1.5C82,69,82.3,69,83,69c2,0,1.9,0.1,2.4,0.7
		c0.8,1.1,0.8,3,0.1,5.4c-0.9,2.8-6.2,5.2-11.4,7.4c-2.3,1-4.5,2-5.7,2.8c-1.8,1.2-4.4,5.6-6.8,10c-2.6,4.5-5.2,9.2-8,12.1
		C51.3,109.7,48.3,111,44.8,111z M67.2,38c-1.1,0-3.1,0.4-6,2.5c-2.8,1.9-4.6,4.9-6.6,8.1c-2.2,3.5-4.4,7.2-8.2,9.4
		c-3.1,1.8-7,2.9-10.8,4c-4.9,1.4-10,2.9-13.4,5.7C20.1,69.4,17,73,17,79c0,4.4,2.2,10.1,7.9,17.3c6.6,8.2,13.7,12.8,19.9,12.8
		c2.9,0,5.4-1,7.3-3c2.6-2.7,5.2-7.3,7.7-11.8c2.8-4.9,5.2-9.2,7.5-10.6c1.4-0.9,3.6-1.9,6-2.9c4.1-1.8,9.6-4.2,10.3-6.2
		c0.6-1.8,0.5-3.1,0.2-3.6c-0.1-0.1-0.1-0.1-0.3-0.1c-0.2,0-0.6,0.1-1.2,0.5c-1.7,1.1-4.2,1.7-6.3,1.7c-2.9,0-4.9-1.1-5.8-3.2
		c-1.6-3.7,0-11.2,0.2-12.1c0-0.4,0-2.2-1.7-2.6c-1.2-0.2-2.3-1-3.1-2.3c-1.3-2-1.9-5-1.3-7.2c0.4-1.8,1.9-3.1,3.2-4.3
		c0.9-0.8,1.9-1.7,1.8-2.2C69.1,38.6,68.5,38,67.2,38z"/>
	<polygon class="st3" points="113.9,25.9 108.8,20.1 59.7,61.8 66.2,69.2 	"/>
	<path class="st4" d="M66.2,70.2C66.1,70.2,66.1,70.2,66.2,70.2c-0.3,0-0.6-0.1-0.8-0.3L59,62.5c-0.2-0.2-0.3-0.5-0.2-0.7
		c0-0.3,0.1-0.5,0.4-0.7l49.1-41.7c0.4-0.4,1-0.3,1.4,0.1l5,5.7c0.4,0.4,0.3,1-0.1,1.4L66.8,69.9C66.6,70.1,66.4,70.2,66.2,70.2z
		 M61.1,61.9l5.1,5.8l46.2-41.9l-3.7-4.2L61.1,61.9z"/>
	<polygon class="st1" points="126.8,16.5 118.6,9.6 107.6,21.2 112.7,27.1 	"/>
	<rect x="60.7" y="59.8" transform="matrix(0.7517 -0.6595 0.6595 0.7517 -28.2428 57.4853)" class="st3" width="3" height="12.8"/>
	<path class="st4" d="M64.9,73C64.9,73,64.9,73,64.9,73c-0.3,0-0.5-0.1-0.7-0.3l-8-9.2C56.1,63.3,56,63,56,62.8
		c0-0.3,0.1-0.5,0.3-0.7l2.1-1.9c0.4-0.3,1-0.3,1.3,0.1l8,9.2c0.3,0.4,0.3,1-0.1,1.3l-2.1,1.9C65.4,72.9,65.2,73,64.9,73z
		 M58.3,62.9l6.7,7.8l0.7-0.6L59,62.3L58.3,62.9z"/>
	<path class="st4" d="M112.7,28.1c-0.3,0-0.6-0.1-0.8-0.3l-5.1-5.8c-0.3-0.4-0.3-1,0-1.3l11-11.6c0.4-0.4,1-0.4,1.4-0.1l8.3,6.9
		c0.2,0.2,0.4,0.5,0.4,0.8c0,0.3-0.2,0.6-0.4,0.8l-14.2,10.6C113.1,28,112.9,28.1,112.7,28.1z M108.9,21.3l3.9,4.5l12.4-9.3
		l-6.6-5.5L108.9,21.3z"/>
	<line class="st5" x1="109.4" y1="15.9" x2="110.4" y2="17.3"/>
	<path class="st4" d="M110.4,18.3c-0.3,0-0.6-0.1-0.8-0.4l-1-1.4c-0.3-0.4-0.2-1.1,0.2-1.4c0.4-0.3,1.1-0.2,1.4,0.2l1,1.4
		c0.3,0.4,0.2,1.1-0.2,1.4C110.8,18.2,110.6,18.3,110.4,18.3z"/>
	<line class="st5" x1="112.2" y1="13.1" x2="113.2" y2="14.5"/>
	<path class="st4" d="M113.2,15.5c-0.3,0-0.6-0.1-0.8-0.4l-1-1.4c-0.3-0.4-0.2-1.1,0.2-1.4c0.4-0.3,1.1-0.2,1.4,0.2l1,1.4
		c0.3,0.4,0.2,1.1-0.2,1.4C113.6,15.4,113.4,15.5,113.2,15.5z"/>
	<line class="st5" x1="117" y1="24.7" x2="118.5" y2="25.6"/>
	<path class="st4" d="M118.5,26.6c-0.2,0-0.4,0-0.5-0.2l-1.4-0.9c-0.5-0.3-0.6-0.9-0.3-1.4c0.3-0.5,0.9-0.6,1.4-0.3l1.4,0.9
		c0.5,0.3,0.6,0.9,0.3,1.4C119.1,26.4,118.8,26.6,118.5,26.6z"/>
	<line class="st5" x1="120.8" y1="21.9" x2="122.2" y2="22.8"/>
	<path class="st4" d="M122.2,23.8c-0.2,0-0.4,0-0.5-0.2l-1.4-0.9c-0.5-0.3-0.6-0.9-0.3-1.4c0.3-0.5,0.9-0.6,1.4-0.3l1.4,0.9
		c0.5,0.3,0.6,0.9,0.3,1.4C122.9,23.6,122.6,23.8,122.2,23.8z"/>
	<line class="st5" x1="124.4" y1="19" x2="125.8" y2="19.9"/>
	<path class="st4" d="M125.8,20.9c-0.2,0-0.4,0-0.5-0.2l-1.4-0.9c-0.5-0.3-0.6-0.9-0.3-1.4c0.3-0.5,0.9-0.6,1.4-0.3l1.4,0.9
		c0.5,0.3,0.6,0.9,0.3,1.4C126.5,20.7,126.1,20.9,125.8,20.9z"/>
	<line class="st5" x1="115" y1="10" x2="116" y2="11.4"/>
	<path class="st4" d="M116,12.4c-0.3,0-0.6-0.1-0.8-0.4l-1-1.4c-0.3-0.4-0.2-1.1,0.2-1.4c0.4-0.3,1.1-0.2,1.4,0.2l1,1.4
		c0.3,0.4,0.2,1.1-0.2,1.4C116.4,12.3,116.2,12.4,116,12.4z"/>
	<circle class="st4" cx="121.5" cy="16.8" r="0.8"/>
	<circle class="st4" cx="118.1" cy="19.4" r="0.8"/>
	<circle class="st4" cx="114.5" cy="22.2" r="0.8"/>
	<circle class="st4" cx="112.7" cy="20" r="0.8"/>
	<circle class="st4" cx="115.3" cy="17" r="0.8"/>
	<circle class="st4" cx="118" cy="14.3" r="0.8"/>
	<line class="st5" x1="84.1" y1="41.5" x2="89.5" y2="47.5"/>
	<path class="st4" d="M89.5,48.5c-0.3,0-0.5-0.1-0.7-0.3l-5.3-6c-0.4-0.4-0.3-1,0.1-1.4c0.4-0.4,1-0.3,1.4,0.1l5.3,6
		c0.4,0.4,0.3,1-0.1,1.4C89.9,48.4,89.7,48.5,89.5,48.5z"/>
	<line class="st5" x1="70.2" y1="53.2" x2="75.6" y2="59.2"/>
	<path class="st4" d="M75.6,60.2c-0.3,0-0.5-0.1-0.7-0.3l-5.3-6c-0.4-0.4-0.3-1,0.1-1.4c0.4-0.4,1-0.3,1.4,0.1l5.3,6
		c0.4,0.4,0.3,1-0.1,1.4C76,60.2,75.8,60.2,75.6,60.2z"/>
	<line class="st5" x1="99.2" y1="28.6" x2="103.9" y2="34.2"/>
	<path class="st4" d="M103.9,35.2c-0.3,0-0.6-0.1-0.8-0.4l-4.7-5.6c-0.4-0.4-0.3-1.1,0.1-1.4c0.4-0.4,1.1-0.3,1.4,0.1l4.7,5.6
		c0.4,0.4,0.3,1.1-0.1,1.4C104.4,35.1,104.1,35.2,103.9,35.2z"/>
	<path class="st5" d="M60.9,44c-0.3,0-0.5-0.1-0.7-0.3c-0.4-0.4-0.4-1.2,0-1.6c1.3-1.5,2.5-2.5,3.6-3c0.5-0.2,1.1,0.1,1.3,0.6
		c0.2,0.6-0.1,1.2-0.6,1.5c-0.8,0.4-1.8,1.2-2.9,2.5C61.4,43.9,61.1,44,60.9,44z"/>
	<path class="st5" d="M35,66.4c-0.4,0-0.8-0.3-0.9-0.7c-0.1-0.5,0.2-1.1,0.7-1.2c0.9-0.2,1.7-0.5,2.7-0.7l0.9-0.2
		c7.7-2.1,12.2-5.2,15-10.6c1.5-2.9,3.2-5.5,4.8-7.6c0.3-0.4,0.9-0.5,1.4-0.2c0.4,0.3,0.5,0.9,0.2,1.4c-1.5,2-3.1,4.5-4.6,7.3
		c-3.9,7.4-10.7,10-16.2,11.5l-0.9,0.2c-0.9,0.2-1.8,0.5-2.6,0.7C35.2,66.4,35.1,66.4,35,66.4z"/>
	<path class="st5" d="M20.1,81c-0.5,0-1-0.4-1-0.9c0-0.2-0.7-5,2.6-9.2c1.6-2.1,4.1-3.7,7.9-5c0.5-0.2,1.2,0.1,1.4,0.6
		c0.2,0.5-0.1,1.1-0.6,1.3c-3.4,1.2-5.6,2.5-6.9,4.3c-2.7,3.5-2.2,7.7-2.2,7.7c0.1,0.6-0.3,1.1-0.9,1.1C20.2,81,20.2,81,20.1,81z"/>
	<path class="st5" d="M42.2,88.6c-0.3,0-0.6-0.1-0.8-0.3l-4.7-5.4c-0.4-0.4-0.3-1,0.1-1.4c0.4-0.4,1-0.3,1.4,0.1l4.7,5.4
		c0.4,0.4,0.3,1-0.1,1.4C42.6,88.5,42.4,88.6,42.2,88.6z"/>
	<path class="st5" d="M44.6,108.1c-2.6,0-4.9-0.8-5.1-0.8c-0.5-0.2-0.8-0.8-0.6-1.3s0.8-0.8,1.3-0.7c0.1,0,7.2,2.4,10-1.8
		c0.3-0.5,0.9-0.6,1.4-0.3c0.5,0.3,0.6,1,0.3,1.5C50.1,107.4,47.1,108.1,44.6,108.1z"/>
	<path class="st5" d="M71.9,80c-0.4,0-0.8-0.3-1-0.7c-0.2-0.5,0.1-1.1,0.7-1.3c0.1,0,5.8-1.9,8.7-4.7c0.4-0.4,1.1-0.4,1.4,0.1
		c0.4,0.4,0.4,1.1-0.1,1.5c-3.3,3.1-9.2,5.1-9.5,5.2C72.1,80,72,80,71.9,80z"/>
	<path class="st6" d="M95.9,36.1c-0.3,0-0.6-0.1-0.8-0.4c-0.4-0.4-0.3-1.1,0.1-1.4l11.3-9.5c0.4-0.4,1.1-0.3,1.4,0.1
		c0.4,0.4,0.3,1.1-0.1,1.4l-11.3,9.5C96.4,36,96.1,36.1,95.9,36.1z"/>
	<path class="st6" d="M64.1,63c-0.3,0-0.6-0.1-0.8-0.4c-0.4-0.4-0.3-1.1,0.1-1.4l28.4-24c0.4-0.4,1.1-0.3,1.4,0.1
		c0.4,0.4,0.3,1.1-0.1,1.4l-28.4,24C64.6,62.9,64.4,63,64.1,63z"/>
	<path class="st5" d="M25,50c-2.2,0-4-1.8-4-4c0-2.2,1.8-4,4-4c2.2,0,4,1.8,4,4C29,48.2,27.2,50,25,50z M25,43.9
		c-1.2,0-2.1,1-2.1,2.1c0,1.2,1,2.1,2.1,2.1c1.2,0,2.1-1,2.1-2.1C27.1,44.8,26.2,43.9,25,43.9z"/>
	<path class="st5" d="M78,24.9c-2.2,0-4-1.8-4-4c0-2.2,1.8-4,4-4c2.2,0,4,1.8,4,4C82,23.1,80.2,24.9,78,24.9z M78,18.8
		c-1.2,0-2.1,0.9-2.1,2.1c0,1.2,0.9,2.1,2.1,2.1c1.2,0,2.1-0.9,2.1-2.1C80.2,19.8,79.2,18.8,78,18.8z"/>
	<path class="st5" d="M71,114.9c-2.2,0-4-1.8-4-4c0-2.2,1.8-4,4-4c2.2,0,4,1.8,4,4C75,113.2,73.2,114.9,71,114.9z M71,108.9
		c-1.2,0-2.1,0.9-2.1,2.1c0,1.2,1,2.1,2.1,2.1c1.2,0,2.1-0.9,2.1-2.1C73.1,109.8,72.2,108.9,71,108.9z"/>
	<path class="st5" d="M98,96.9c-2.2,0-4-1.8-4-4c0-2.2,1.8-4,4-4c2.2,0,4,1.8,4,4C102,95.2,100.2,96.9,98,96.9z M98,90.9
		c-1.2,0-2.1,0.9-2.1,2.1c0,1.2,1,2.1,2.1,2.1c1.2,0,2.1-0.9,2.1-2.1C100.1,91.8,99.2,90.9,98,90.9z"/>
	<path class="st5" d="M110.8,65.4c0-0.4-0.4-0.8-1-0.9l-1.9-0.3c-0.5-0.1-1.1-0.6-1.1-1.1l-0.3-1.9c-0.1-0.5-0.5-1-0.9-1
		c-0.4,0-0.8,0.4-0.9,1l-0.3,1.9c-0.1,0.5-0.6,1.1-1.1,1.1l-1.9,0.3c-0.5,0.1-1,0.5-1,0.9c0,0.4,0.4,0.8,1,0.9l1.9,0.3
		c0.5,0.1,1.1,0.6,1.1,1.1l0.3,1.9c0.1,0.5,0.5,1,0.9,1c0.4,0,0.8-0.4,0.8-1l0.3-2.1c0.1-0.5,0.6-1,1.1-1.1l1.8-0.1
		C110.3,66.1,110.8,65.8,110.8,65.4z"/>
	<path class="st5" d="M55.3,20.8c0-0.4-0.4-0.8-1-0.9l-1.9-0.3c-0.5-0.1-1.1-0.6-1.1-1.1l-0.3-1.9c-0.1-0.5-0.5-1-0.9-1
		c-0.4,0-0.8,0.4-0.9,1l-0.3,1.9c-0.1,0.5-0.6,1.1-1.1,1.1l-1.9,0.3c-0.5,0.1-1,0.5-1,0.9c0,0.4,0.4,0.8,1,0.9l1.9,0.3
		c0.5,0.1,1.1,0.6,1.1,1.1l0.3,1.9c0.1,0.5,0.5,1,0.9,1c0.4,0,0.8-0.4,0.8-1l0.3-2.1c0.1-0.5,0.6-1,1.1-1.1l1.8-0.1
		C54.9,21.5,55.3,21.2,55.3,20.8z"/>
</g>
</svg>
