<?xml version="1.0" encoding="utf-8"?>
<!-- Generator: Adobe Illustrator 21.0.2, SVG Export Plug-In . SVG Version: 6.00 Build 0)  -->
<svg version="1.1" id="halloween" xmlns="http://www.w3.org/2000/svg" xmlns:xlink="http://www.w3.org/1999/xlink" x="0px" y="0px"
	 viewBox="0 0 128 128" style="enable-background:new 0 0 128 128;" xml:space="preserve">
<style type="text/css">
	.st0{fill:#A7FCD0;}
	.st1{fill:#FFFFFF;}
	.st2{fill:#663210;}
	.st3{fill:#F99900;}
	.st4{fill:#E08605;}
	.st5{fill:#75B600;}
	.st6{opacity:0.5;fill:#FFFFFF;}
</style>
<g>
	<circle class="st0" cx="64" cy="64" r="64"/>
	<path class="st1" d="M32,27c-2.2,0-4-1.8-4-4c0-2.2,1.8-4,4-4c2.2,0,4,1.8,4,4C36,25.2,34.2,27,32,27z M32,20.9
		c-1.2,0-2.1,1-2.1,2.1c0,1.2,1,2.1,2.1,2.1c1.2,0,2.1-1,2.1-2.1C34.1,21.8,33.2,20.9,32,20.9z"/>
	<path class="st1" d="M108,42c-2.2,0-4-1.8-4-4c0-2.2,1.8-4,4-4c2.2,0,4,1.8,4,4C112,40.2,110.2,42,108,42z M108,35.9
		c-1.2,0-2.1,1-2.1,2.1c0,1.2,1,2.1,2.1,2.1c1.2,0,2.1-1,2.1-2.1C110.1,36.8,109.2,35.9,108,35.9z"/>
	<path class="st1" d="M85.5,18c0-0.4-0.4-0.8-1-0.9l-1.9-0.3c-0.5-0.1-1.1-0.6-1.1-1.1l-0.3-1.9c-0.1-0.5-0.5-1-0.9-1
		c-0.4,0-0.8,0.4-0.9,1l-0.3,1.9c-0.1,0.5-0.6,1.1-1.1,1.1l-1.9,0.3c-0.5,0.1-1,0.5-1,0.9c0,0.4,0.4,0.8,1,0.9l1.9,0.3
		c0.5,0.1,1.1,0.6,1.1,1.1l0.3,1.9c0.1,0.5,0.5,1,0.9,1c0.4,0,0.8-0.4,0.8-1l0.3-2.1c0.1-0.5,0.6-1,1.1-1.1l1.8-0.1
		C85,18.7,85.5,18.4,85.5,18z"/>
	<path class="st1" d="M122.8,73.4c0-0.4-0.4-0.8-1-0.9l-1.9-0.3c-0.5-0.1-1.1-0.6-1.1-1.1l-0.3-1.9c-0.1-0.5-0.5-1-0.9-1
		c-0.4,0-0.8,0.4-0.9,1l-0.3,1.9c-0.1,0.5-0.6,1.1-1.1,1.1l-1.9,0.3c-0.5,0.1-1,0.5-1,0.9c0,0.4,0.4,0.8,1,0.9l1.9,0.3
		c0.5,0.1,1.1,0.6,1.1,1.1l0.3,1.9c0.1,0.5,0.5,1,0.9,1c0.4,0,0.8-0.4,0.8-1l0.3-2.1c0.1-0.5,0.6-1,1.1-1.1l1.8-0.1
		C122.3,74.1,122.8,73.7,122.8,73.4z"/>
	<path class="st1" d="M18.5,53.1c0-0.4-0.4-0.8-1-0.9L15.6,52c-0.5-0.1-1.1-0.6-1.1-1.1L14.2,49c-0.1-0.5-0.5-1-0.9-1
		c-0.4,0-0.8,0.4-0.9,1l-0.3,1.9c-0.1,0.5-0.6,1.1-1.1,1.1l-1.9,0.3c-0.5,0.1-1,0.5-1,0.9s0.4,0.8,1,0.9l1.9,0.3
		c0.5,0.1,1.1,0.6,1.1,1.1l0.3,1.9c0.1,0.5,0.5,1,0.9,1c0.4,0,0.8-0.4,0.8-1l0.3-2.1c0.1-0.5,0.6-1,1.1-1.1l1.8-0.1
		C18,53.8,18.5,53.5,18.5,53.1z"/>
	<path class="st2" d="M117.7,105H10.1c-0.6,0-1-0.4-1-1s0.4-1,1-1h107.5c0.6,0,1,0.4,1,1S118.2,105,117.7,105z"/>
	<path class="st3" d="M47.4,38.1c0,0-9.4-4.2-15.9,2.3C25,46.9,15.6,67.2,20.7,86.7c5.2,20,22.9,19.3,26.2,15.1
		C50.1,97.6,47.4,38.1,47.4,38.1z"/>
	<path class="st4" d="M54.5,37.2c-2.1-1.5-12.1-3.2-17.8,13.7c-2.7,7.8-4.1,17-4.2,25.2c-0.2,10.8,2.9,18.9,7.1,23.2
		c5,5.2,19.6,4.3,21.4-3C62.7,89.1,63.9,44,54.5,37.2z"/>
	<path class="st3" d="M57.8,34.4c-2.1-1.6-12.1-3.3-17.8,14.5c-2.7,8.3-4.1,17.9-4.2,26.6c-0.2,11.4,2.9,19.9,7.1,24.5
		c5,5.5,19.6,4.5,21.4-3.1C66,89.2,67.2,41.5,57.8,34.4z"/>
	<path class="st3" d="M80.1,38.1c0,0,9.4-4.2,15.9,2.3c6.6,6.4,15.9,26.8,10.9,46.3c-5.2,20-22.9,19.3-26.2,15.1
		C77.4,97.6,80.1,38.1,80.1,38.1z"/>
	<path class="st5" d="M61.9,35.1c0-1.1-0.2-2.9-0.3-4c0,0-0.3-2.2-2.5-4.3c-2.2-2.1-4.2-3.1-4.2-3.1c-1-0.5-1.2-1.5-0.4-2.3l1.8-1.9
		c0.8-0.8,2.1-0.9,2.9-0.2c0,0,8.3,6.8,5.6,14.1S61.9,35.1,61.9,35.1z"/>
	<path class="st4" d="M75,72.1c0,19.1-7.1,30.6-15.9,30.6c-8.8,0-15.9-11.5-15.9-30.6c0-19.1,4.8-38.6,15.9-38.6
		C70.3,33.5,75,53,75,72.1z"/>
	<path class="st2" d="M62.4,38.2c-1,0-1.6-1.1-1.7-3c0-1.1-0.2-2.8-0.3-3.9c0,0-0.3-1.9-2.1-3.7c-2-1.9-3.8-2.9-3.8-2.9
		c-0.7-0.4-1.2-1-1.4-1.8c-0.1-0.7,0.1-1.5,0.7-2.1l1.8-1.9c1.1-1.1,3-1.2,4.2-0.2C60,19,68.3,26,65.4,33.9
		C64.2,37,63.4,38.2,62.4,38.2z M57.7,20c-0.3,0-0.6,0.1-0.8,0.3l-1.8,1.9c-0.1,0.1-0.2,0.3-0.2,0.4c0,0.1,0.1,0.2,0.3,0.3
		c0.1,0,2.1,1.1,4.3,3.2c2.3,2.3,2.7,4.8,2.7,4.9c0.1,1.1,0.3,2.9,0.3,4.1c0,0.1,0,0.2,0,0.3c0.2-0.5,0.6-1.2,0.9-2.3
		c2.4-6.5-5-12.9-5.1-12.9C58.3,20.1,58,20,57.7,20z"/>
	<path class="st4" d="M73.4,36.9c2-1.5,11.6-3.2,17.2,13.9c2.6,8,4,17.3,4.1,25.7c0.1,11-2.8,19.2-6.8,23.6
		c-4.9,5.3-18.9,4.3-20.7-3C65.5,89.7,64.3,43.8,73.4,36.9z"/>
	<path class="st3" d="M69.7,34.4c2.1-1.6,12.1-3.3,17.8,14.5c2.7,8.3,4.1,17.9,4.2,26.6c0.2,11.4-2.9,19.9-7.1,24.5
		c-5,5.5-19.6,4.5-21.4-3.1C61.5,89.2,60.3,41.5,69.7,34.4z"/>
	<path class="st4" d="M82.2,72.3c0,19-6.5,30.4-14.6,30.4S53.1,91.3,53.1,72.3c0-19,4.4-38.3,14.6-38.3C77.8,34,82.2,53.3,82.2,72.3
		z"/>
	<path class="st3" d="M78.5,72.3c0,20.1-6.5,32.2-14.6,32.2S49.4,92.4,49.4,72.3c0-20.1,4.4-40.6,14.6-40.6
		C74.2,31.7,78.5,52.2,78.5,72.3z"/>
	<path class="st4" d="M86.3,90.4c-3.6,3.1-10.7,3.9-16.1,2.3c-1.9,1.5-4,2.2-6.2,2.2c-2.3,0-4.4-0.8-6.3-2.3
		c-5.4,1.7-12.8,1-16.4-2.2c-5.9,1.3-16-0.5-21.8-10.5c0.2,2.3,0.6,4.6,1.2,6.8c5,19.1,21.3,19.3,25.6,15.6
		c3.6,1.5,8.4,1.5,12.2,0.1c1.7,1.4,3.6,2.1,5.5,2.1c1.9,0,3.7-0.7,5.4-2c3.7,1.3,8.4,1.2,11.9-0.2c4.4,3.7,20.6,3.5,25.6-15.6
		c0.6-2.3,1-4.6,1.2-6.8C102.3,89.9,92.2,91.7,86.3,90.4z"/>
	<path class="st2" d="M74.9,104.4c-1.9,0-3.8-0.3-5.4-0.8c-0.5-0.2-0.8-0.7-0.7-1.2c0.2-0.5,0.7-0.8,1.2-0.7
		c5,1.5,11.2,0.4,13.9-2.4c1.7-1.8,3.1-4.2,4.2-7.2c0.2-0.5,0.8-0.8,1.3-0.6c0.5,0.2,0.8,0.8,0.6,1.3c-1.2,3.2-2.8,5.8-4.6,7.8
		C83.1,103.3,78.9,104.4,74.9,104.4z"/>
	<path class="st2" d="M64.2,105c-1.6,0-3.7-0.1-5.7-1.4c-1.6,0.5-3.3,0.7-5.1,0.7c-2.3,0-4.7-0.4-6.8-1.2c-1.7,1.1-4.2,1.8-7,1.8
		c-11.3,0-17.8-9.2-20.1-17.9C14.2,67,24.3,46.2,30.7,40c2.7-2.6,6-3.9,10-3.9c2,0,3.8,0.3,5,0.7c3.3-3.3,6.5-4,8.7-4
		c1.5,0,2.8,0.4,3.6,0.8c1.9-1.7,4-2.6,6.2-2.6c2.2,0,4.3,0.8,6.1,2.5c0.9-0.4,2.1-0.6,3.3-0.6c2.2,0,5.4,0.7,8.7,4
		c1.3-0.3,3.1-0.7,5-0.7c4,0,7.3,1.3,10,3.9c6.4,6.2,16.6,27,11.2,47c-2.3,8.6-8.8,17.9-20.1,17.9c0,0,0,0,0,0c-2.8,0-5.3-0.7-7-1.8
		c-3.7,1.3-8.2,1.5-11.7,0.5C67.9,104.9,65.8,105,64.2,105z M58.7,101.5c0.2,0,0.4,0.1,0.6,0.2c1.3,1,2.8,1.4,4.9,1.4
		c1.5,0,3.2-0.2,4.8-1.4c0.3-0.2,0.6-0.3,0.9-0.2c1.4,0.5,3,0.7,4.7,0.7c2.3,0,4.6-0.4,6.6-1.2c0.3-0.1,0.7-0.1,1,0.2
		c1.2,1,3.6,1.7,6.1,1.7c3.2,0,14.1-1.2,18.1-16.4c5.1-19.3-4.6-39.2-10.7-45.1c-2.3-2.2-5.1-3.3-8.6-3.3c-2.1,0-3.9,0.4-5.1,0.8
		c-0.4,0.1-0.8,0-1-0.3c-2.9-3.1-5.7-3.8-7.6-3.8c-1.4,0-2.4,0.4-2.9,0.7c-0.4,0.3-0.9,0.2-1.3-0.1c-1.6-1.6-3.3-2.4-5.2-2.4
		c-2,0-3.7,0.8-5.4,2.6c-0.4,0.4-1,0.4-1.4,0.1c0,0-0.1-0.1-0.1-0.1c-0.4-0.3-1.4-0.8-3-0.8c-1.9,0-4.7,0.7-7.6,3.8
		c-0.3,0.3-0.7,0.4-1,0.3c-1.2-0.3-3-0.8-5.1-0.8c-3.4,0-6.3,1.1-8.6,3.3C26,47.3,16.3,67.2,21.4,86.5c4,15.2,14.9,16.4,18.1,16.4
		c2.5,0,4.9-0.6,6.1-1.7c0.3-0.2,0.7-0.3,1-0.2c3.6,1.4,8.3,1.6,11.6,0.4C58.4,101.5,58.6,101.5,58.7,101.5z"/>
	<path class="st2" d="M64,105c-3.3,0-8-1.5-11.5-9.3c-0.2-0.5,0-1.1,0.5-1.3c0.5-0.2,1.1,0,1.3,0.5c2.4,5.4,5.8,8.1,9.7,8.1
		c3.8,0,7.1-2.6,9.5-7.7c0.2-0.5,0.8-0.7,1.3-0.5c0.5,0.2,0.7,0.8,0.5,1.3C71.9,103.6,67.2,105,64,105z"/>
	<path class="st2" d="M52.8,45.8c-0.1,0-0.2,0-0.3,0c-0.5-0.2-0.8-0.7-0.7-1.2c2.7-9,6.9-13.8,12.2-13.8c3.8,0,7.1,2.5,9.6,7.4
		c0.3,0.5,0.1,1.1-0.4,1.3c-0.5,0.3-1.1,0.1-1.3-0.4c-2.2-4.2-4.8-6.3-7.9-6.3c-5.4,0-8.5,6.7-10.3,12.4
		C53.6,45.5,53.2,45.8,52.8,45.8z"/>
	<path class="st2" d="M52.5,104.2c-4.2,0-8.4-1.2-10.9-3.9c-0.4-0.4-0.3-1,0.1-1.4c0.4-0.4,1-0.3,1.4,0.1c2.9,3.1,9.5,4.2,14.8,2.5
		c0.5-0.2,1.1,0.1,1.3,0.6c0.2,0.5-0.1,1.1-0.6,1.3C56.6,103.9,54.6,104.2,52.5,104.2z"/>
	<path class="st2" d="M40,49.9c-0.1,0-0.2,0-0.3,0c-0.5-0.2-0.8-0.7-0.6-1.3c3.5-10.8,8.6-14.5,12.1-15.6c3.1-1,5.9-0.3,7.2,0.7
		c0.4,0.3,0.5,1,0.2,1.4c-0.3,0.4-1,0.5-1.4,0.2c-0.7-0.6-2.9-1.1-5.4-0.3c-3.2,1-7.6,4.3-10.8,14.3C40.8,49.6,40.4,49.9,40,49.9z"
		/>
	<path class="st2" d="M87.6,49.9c-0.4,0-0.8-0.3-1-0.7c-0.8-2.4-1.7-4.6-2.7-6.4c-3.1-5.8-6.5-7.6-8.8-8.1c-2.1-0.5-3.8,0.1-4.4,0.6
		c-0.4,0.3-1.1,0.2-1.4-0.2c-0.3-0.4-0.2-1.1,0.2-1.4c1.1-0.9,3.5-1.5,6.1-0.9c2.7,0.6,6.6,2.6,10.1,9.1c1.1,2,2,4.2,2.8,6.8
		c0.2,0.5-0.1,1.1-0.6,1.3C87.8,49.9,87.7,49.9,87.6,49.9z"/>
	<path class="st2" d="M38.4,69c-2.2,0-3.1-1.6-2-3.5l4.1-7.1c1.1-1.9,2.9-1.9,4,0l4.1,7.1c1.1,1.9,0.2,3.5-2,3.5H38.4z"/>
	<path class="st2" d="M80.4,69c-2.2,0-3.1-1.6-2-3.5l4.1-7.1c1.1-1.9,2.9-1.9,4,0l4.1,7.1c1.1,1.9,0.2,3.5-2,3.5H80.4z"/>
	<path class="st2" d="M87,75.6c-6.3,4.4-14,6.9-22.3,6.9c-3.5,0-6.8-0.4-10-1.3l-0.6,1.1c-0.5,0.9-1.6,1.3-2.6,0.9L51.1,83
		c-0.9-0.4-1.4-1.6-0.9-2.5l0.3-0.6c-3-1.1-5.8-2.6-8.3-4.4c-1.6-1.1-3,0.2-1.9,1.9c4.9,8.1,14,13.6,24.4,13.6
		c10.6,0,19.8-5.6,24.7-14C90.3,75.4,88.7,74.5,87,75.6z"/>
	<path class="st6" d="M103.7,81.8c0,0-0.1,0-0.1,0c-0.5-0.1-0.9-0.6-0.8-1.1c0-0.1,1.3-10.9-1.4-20.8c-0.8-3-2.2-6.3-3.9-9.5
		c-0.3-0.5-0.1-1.1,0.3-1.4c0.5-0.3,1-0.1,1.3,0.4c1.8,3.3,3.2,6.7,4.1,9.9c2.8,10.3,1.5,21.1,1.5,21.6
		C104.6,81.5,104.2,81.8,103.7,81.8z"/>
	<path class="st6" d="M95.4,46.5c-0.3,0-0.6-0.1-0.8-0.4c-2.2-3.1-3.8-4.4-4.2-4.5c-0.5-0.2-0.8-0.7-0.7-1.2
		c0.2-0.5,0.7-0.8,1.2-0.7c1.7,0.5,4.5,4.1,5.3,5.2c0.3,0.4,0.2,1.1-0.2,1.4C95.8,46.5,95.6,46.5,95.4,46.5z"/>
	<path class="st6" d="M75,62c-0.6,0-1-0.4-1-1c0-6.7-4.3-19.3-6.7-22.8c-0.8-1.1-1.9-1.7-3.3-1.6c-1.7,0.1-3.4,1.2-3.9,2.2
		c-0.2,0.5-0.9,0.7-1.4,0.4c-0.5-0.2-0.7-0.8-0.5-1.3c0.9-1.7,3.3-3.1,5.6-3.3c2.1-0.1,3.9,0.7,5.1,2.4C71.9,41.3,76,54.3,76,61
		C76,61.6,75.5,62,75,62z"/>
	<path class="st6" d="M52.9,75.9c-0.4,0-0.8-0.4-0.8-0.9c-0.3-4.9,0.2-15.1,0.2-15.5c0-0.6,0.4-1,0.9-0.9c0.5,0,0.8,0.5,0.8,1.1
		c0,0.1-0.5,10.5-0.2,15.2C53.8,75.3,53.5,75.8,52.9,75.9C53,75.9,53,75.9,52.9,75.9z"/>
	<path class="st6" d="M23.1,80c-0.5,0-0.9-0.4-0.9-0.9c-1.1-11.4,2.7-20.5,2.9-20.9c0.2-0.5,0.8-0.7,1.2-0.5
		c0.5,0.2,0.7,0.8,0.5,1.3c0,0.1-3.8,9-2.7,19.9C24.1,79.5,23.7,79.9,23.1,80C23.2,80,23.2,80,23.1,80z"/>
	<path class="st6" d="M61.3,26.8c-0.4,0-0.7-0.2-0.9-0.5c-1.1-2.1-3.2-3.2-3.2-3.2c-0.5-0.3-0.7-0.9-0.4-1.4
		c0.3-0.5,0.9-0.7,1.3-0.4c0.1,0.1,2.7,1.4,4,4c0.3,0.5,0.1,1.1-0.4,1.4C61.6,26.7,61.4,26.8,61.3,26.8z"/>
</g>
</svg>
