<?xml version="1.0" encoding="utf-8"?>
<!-- Generator: Adobe Illustrator 21.0.2, SVG Export Plug-In . SVG Version: 6.00 Build 0)  -->
<svg version="1.1" id="home" xmlns="http://www.w3.org/2000/svg" xmlns:xlink="http://www.w3.org/1999/xlink" x="0px" y="0px"
	 viewBox="0 0 128 128" style="enable-background:new 0 0 128 128;" xml:space="preserve">
<style type="text/css">
	.st0{fill:#FBD000;}
	.st1{fill:#FFFFFF;}
	.st2{fill:#6B3C1C;}
	.st3{fill:#D4D6D6;}
	.st4{fill:#AD5114;}
	.st5{fill:#3AD0F9;}
	.st6{fill:#663210;}
	.st7{fill:#EAEAEA;}
	.st8{fill:#FF4848;}
	.st9{fill:#E8372E;}
	.st10{opacity:0.5;fill:#FFFFFF;}
	.st11{fill:#75B600;}
	.st12{fill:#5C8E0D;}
</style>
<g>
	<circle class="st0" cx="64" cy="64" r="64"/>
	<path class="st1" d="M49,116c-2.2,0-4-1.8-4-4c0-2.2,1.8-4,4-4c2.2,0,4,1.8,4,4C53,114.2,51.2,116,49,116z M49,109.9
		c-1.2,0-2.1,1-2.1,2.1c0,1.2,1,2.1,2.1,2.1c1.2,0,2.1-1,2.1-2.1C51.1,110.8,50.2,109.9,49,109.9z"/>
	<path class="st1" d="M86,25c-2.2,0-4-1.8-4-4c0-2.2,1.8-4,4-4c2.2,0,4,1.8,4,4C90,23.2,88.2,25,86,25z M86,18.9
		c-1.2,0-2.1,1-2.1,2.1c0,1.2,1,2.1,2.1,2.1c1.2,0,2.1-1,2.1-2.1C88.1,19.8,87.2,18.9,86,18.9z"/>
	<path class="st2" d="M118,104H9c-0.6,0-1-0.4-1-1s0.5-1,1-1h109c0.6,0,1,0.4,1,1S118.5,104,118,104z"/>
	<rect x="19" y="43" class="st1" width="36" height="60"/>
	<path class="st3" d="M54.8,77H19.5c-0.6,0-1-0.4-1-1s0.4-1,1-1h35.3c0.6,0,1,0.4,1,1S55.3,77,54.8,77z"/>
	<path class="st3" d="M54.8,84H19.5c-0.6,0-1-0.4-1-1s0.4-1,1-1h35.3c0.6,0,1,0.4,1,1S55.3,84,54.8,84z"/>
	<path class="st3" d="M54.8,91H19.5c-0.6,0-1-0.4-1-1s0.4-1,1-1h35.3c0.6,0,1,0.4,1,1S55.3,91,54.8,91z"/>
	<rect x="32" y="74" class="st4" width="10" height="19"/>
	<rect x="28" y="98" class="st3" width="18" height="5"/>
	<rect x="30.1" y="93" class="st3" width="13.8" height="5"/>
	<path class="st3" d="M54.8,56H19.5c-0.6,0-1-0.4-1-1s0.4-1,1-1h35.3c0.6,0,1,0.4,1,1S55.3,56,54.8,56z"/>
	<path class="st3" d="M54.8,63H19.5c-0.6,0-1-0.4-1-1c0-0.6,0.4-1,1-1h35.3c0.6,0,1,0.4,1,1C55.8,62.6,55.3,63,54.8,63z"/>
	<path class="st3" d="M54.8,70.1H19.5c-0.6,0-1-0.4-1-1c0-0.6,0.4-1,1-1h35.3c0.6,0,1,0.4,1,1C55.8,69.6,55.3,70.1,54.8,70.1z"/>
	<path class="st3" d="M54.8,99H19.5c-0.6,0-1-0.4-1-1s0.4-1,1-1h35.3c0.6,0,1,0.4,1,1S55.3,99,54.8,99z"/>
	<path class="st5" d="M51,87c0,1.1-0.9,2-2,2h-1c-1.1,0-2-0.9-2-2V76c0-1.1,0.9-2,2-2h1c1.1,0,2,0.9,2,2V87z"/>
	<path class="st5" d="M28,87c0,1.1-0.9,2-2,2h-1c-1.1,0-2-0.9-2-2V76c0-1.1,0.9-2,2-2h1c1.1,0,2,0.9,2,2V87z"/>
	<path class="st6" d="M39,86H37c-0.5,0-1-0.4-1-1s0.4-1,1-1H39c0.5,0,1,0.4,1,1S39.6,86,39,86z"/>
	<rect x="55" y="48" class="st1" width="54" height="55"/>
	<rect x="56" y="49" class="st7" width="3" height="54"/>
	<rect x="55" y="49" class="st7" width="54" height="2.8"/>
	<path class="st3" d="M109,56H55.2c-0.6,0-1-0.4-1-1s0.4-1,1-1H109c0.6,0,1,0.4,1,1S109.6,56,109,56z"/>
	<path class="st3" d="M109,63H55.2c-0.6,0-1-0.4-1-1s0.4-1,1-1H109c0.6,0,1,0.4,1,1S109.6,63,109,63z"/>
	<path class="st3" d="M109,70H55.2c-0.6,0-1-0.4-1-1s0.4-1,1-1H109c0.6,0,1,0.4,1,1S109.6,70,109,70z"/>
	<path class="st3" d="M109,77H55.2c-0.6,0-1-0.4-1-1s0.4-1,1-1H109c0.6,0,1,0.4,1,1S109.6,77,109,77z"/>
	<path class="st3" d="M109,83.9H55.2c-0.6,0-1-0.4-1-1c0-0.6,0.4-1,1-1H109c0.6,0,1,0.4,1,1C110,83.5,109.6,83.9,109,83.9z"/>
	<path class="st3" d="M109,91H55.2c-0.6,0-1-0.4-1-1c0-0.6,0.4-1,1-1H109c0.6,0,1,0.4,1,1C110,90.5,109.6,91,109,91z"/>
	<path class="st3" d="M109,98H55.2c-0.6,0-1-0.4-1-1s0.4-1,1-1H109c0.6,0,1,0.4,1,1S109.6,98,109,98z"/>
	<path class="st1" d="M68,17.1c0-0.4-0.4-0.8-1-0.9L65.2,16c-0.5-0.1-1.1-0.6-1.1-1.1L63.7,13c-0.1-0.5-0.5-1-0.9-1
		c-0.4,0-0.8,0.4-0.9,1l-0.3,1.9c-0.1,0.5-0.6,1.1-1.1,1.1l-1.9,0.3c-0.5,0.1-1,0.5-1,0.9c0,0.4,0.4,0.8,1,0.9l1.9,0.3
		c0.5,0.1,1.1,0.6,1.1,1.1l0.3,1.9c0.1,0.5,0.5,1,0.9,1c0.4,0,0.8-0.4,0.9-1l0.3-2.1c0.1-0.5,0.6-1,1.1-1.1l1.8-0.1
		C67.6,17.9,68,17.5,68,17.1z"/>
	<path class="st1" d="M82.3,115.1c0-0.4-0.4-0.8-1-0.9l-1.9-0.3c-0.5-0.1-1.1-0.6-1.1-1.1L78,111c-0.1-0.5-0.5-1-0.9-1
		s-0.8,0.4-0.9,1l-0.3,1.9c-0.1,0.5-0.6,1.1-1.1,1.1l-1.9,0.3c-0.5,0.1-1,0.5-1,0.9c0,0.4,0.4,0.8,1,0.9l1.9,0.3
		c0.5,0.1,1.1,0.6,1.1,1.1l0.3,1.9c0.1,0.5,0.5,1,0.9,1s0.8-0.4,0.9-1l0.3-2.1c0.1-0.5,0.6-1,1.1-1.1l1.8-0.1
		C81.8,115.9,82.3,115.5,82.3,115.1z"/>
	<path class="st6" d="M55,104H19c-0.6,0-1-0.4-1-1V43c0-0.6,0.4-1,1-1h36c0.6,0,1,0.4,1,1v60C56,103.6,55.6,104,55,104z M20,102h34
		V44H20V102z"/>
	<path class="st6" d="M109,104H55c-0.6,0-1-0.4-1-1V48c0-0.6,0.4-1,1-1h54c0.6,0,1,0.4,1,1v55C110,103.6,109.6,104,109,104z M56,102
		h52V49H56V102z"/>
	<path class="st8" d="M115.1,44.5c1,1.9,0.1,3.5-2.1,3.5H53c-2.2,0-4-1.8-4-4v-7c0-2.2,1.8-4,4-4h52c2.2,0,4.8,1.6,5.9,3.5
		L115.1,44.5z"/>
	<path class="st6" d="M113.4,49H53.1c-2.6,0-5.5-1.9-6.4-4.4l-3-7.6c-0.5-1.3-0.4-2.6,0.3-3.6c0.7-1,1.8-1.5,3.2-1.5h58.2
		c2.6,0,5.6,1.8,6.8,4.1l4.3,7.9c0.7,1.2,0.7,2.5,0.1,3.5C116,48.4,114.9,49,113.4,49z M47.1,34c-0.7,0-1.3,0.2-1.6,0.7
		c-0.3,0.4-0.3,1,0,1.7l3,7.6c0.7,1.7,2.7,3.1,4.6,3.1h60.4c0.7,0,1.2-0.2,1.4-0.6c0.2-0.4,0.1-0.9-0.2-1.5l-4.3-7.9
		c-0.9-1.6-3.2-3-5-3H47.1z"/>
	<path class="st8" d="M18.1,48c-1.7,0-2.2-1.1-1.3-2.5l19-27.1c0.9-1.4,2.5-1.4,3.4,0l19,27.1c0.9,1.4,0.4,2.5-1.3,2.5H18.1z"/>
	<path class="st1" d="M21.3,47l14.2-20.3c1.1-1.6,3-1.6,4.1,0L53.8,47"/>
	<path class="st7" d="M35.5,31.7c1.1-1.6,3-1.6,4.1,0L50.3,47h3.5L39.6,26.7c-1.1-1.6-3-1.6-4.1,0L21.3,47h3.5L35.5,31.7z"/>
	<path class="st6" d="M57,49H18.1c-1.2,0-2.1-0.5-2.5-1.3s-0.3-1.8,0.4-2.8l19-27.5c0.6-0.9,1.6-1.5,2.5-1.5s1.9,0.5,2.5,1.5
		l19,27.5c0.7,1,0.8,2,0.4,2.8S58.2,49,57,49z M37.6,18c-0.3,0-0.6,0.2-0.9,0.6l-19,27.5c-0.3,0.4-0.3,0.7-0.3,0.7
		c0,0,0.2,0.2,0.7,0.2H57c0.5,0,0.7-0.1,0.7-0.2c0,0,0-0.3-0.3-0.7l-19-27.5C38.2,18.2,37.9,18,37.6,18z"/>
	<path class="st6" d="M53.8,48c-0.3,0-0.6-0.1-0.8-0.4L38.8,27.3c-0.7-1-1.7-1-2.4,0L22.1,47.6c-0.3,0.5-0.9,0.6-1.4,0.2
		c-0.5-0.3-0.6-0.9-0.2-1.4l14.2-20.3c0.7-1,1.8-1.6,2.9-1.6s2.1,0.6,2.9,1.6l14.2,20.3c0.3,0.5,0.2,1.1-0.2,1.4
		C54.2,47.9,54,48,53.8,48z"/>
	<circle class="st5" cx="37" cy="41" r="3"/>
	<path class="st6" d="M37,45c-2.2,0-4-1.8-4-4s1.8-4,4-4s4,1.8,4,4S39.2,45,37,45z M37,39c-1.1,0-2,0.9-2,2s0.9,2,2,2s2-0.9,2-2
		S38.1,39,37,39z"/>
	<path class="st6" d="M42,94H32c-0.6,0-1-0.4-1-1V74c0-0.6,0.4-1,1-1h10c0.6,0,1,0.4,1,1v19C43,93.6,42.6,94,42,94z M33,92h8V75h-8
		V92z"/>
	<path class="st6" d="M49,90h-1c-1.7,0-3-1.3-3-3V76c0-1.7,1.3-3,3-3h1c1.7,0,3,1.3,3,3v11C52,88.7,50.7,90,49,90z M48,75
		c-0.6,0-1,0.4-1,1v11c0,0.6,0.4,1,1,1h1c0.6,0,1-0.4,1-1V76c0-0.6-0.4-1-1-1H48z"/>
	<path class="st6" d="M26,90h-1c-1.7,0-3-1.3-3-3V76c0-1.7,1.3-3,3-3h1c1.7,0,3,1.3,3,3v11C29,88.7,27.7,90,26,90z M25,75
		c-0.6,0-1,0.4-1,1v11c0,0.6,0.4,1,1,1h1c0.6,0,1-0.4,1-1V76c0-0.6-0.4-1-1-1H25z"/>
	<path class="st5" d="M42,64c0,1.1-0.9,2-2,2h-6c-1.1,0-2-0.9-2-2v-9c0-1.1,0.9-2,2-2h6c1.1,0,2,0.9,2,2V64z"/>
	<path class="st6" d="M42,59H32c-0.6,0-1-0.4-1-1s0.4-1,1-1h10c0.6,0,1,0.4,1,1S42.6,59,42,59z"/>
	<path class="st6" d="M40,67h-6c-1.7,0-3-1.3-3-3v-9c0-1.7,1.3-3,3-3h6c1.7,0,3,1.3,3,3v9C43,65.7,41.7,67,40,67z M34,54
		c-0.6,0-1,0.4-1,1v9c0,0.6,0.4,1,1,1h6c0.6,0,1-0.4,1-1v-9c0-0.6-0.4-1-1-1H34z"/>
	<path class="st1" d="M36,63c-0.4,0-0.7-0.2-0.9-0.6c-0.2-0.5,0-1.1,0.4-1.3l2-1c0.5-0.2,1.1,0,1.3,0.4c0.2,0.5,0,1.1-0.4,1.3l-2,1
		C36.3,63,36.2,63,36,63z"/>
	<path class="st5" d="M75,69c0,1.1-0.9,2-2,2h-6c-1.1,0-2-0.9-2-2v-9c0-1.1,0.9-2,2-2h6c1.1,0,2,0.9,2,2V69z"/>
	<path class="st6" d="M75,64H65c-0.6,0-1-0.4-1-1s0.4-1,1-1h10c0.6,0,1,0.4,1,1S75.6,64,75,64z"/>
	<path class="st6" d="M73,72h-6c-1.7,0-3-1.3-3-3v-9c0-1.7,1.3-3,3-3h6c1.7,0,3,1.3,3,3v9C76,70.7,74.7,72,73,72z M67,59
		c-0.6,0-1,0.4-1,1v9c0,0.6,0.4,1,1,1h6c0.6,0,1-0.4,1-1v-9c0-0.6-0.4-1-1-1H67z"/>
	<path class="st1" d="M69,68c-0.4,0-0.7-0.2-0.9-0.6c-0.2-0.5,0-1.1,0.4-1.3l2-1c0.5-0.2,1.1,0,1.3,0.4c0.2,0.5,0,1.1-0.4,1.3l-2,1
		C69.3,68,69.2,68,69,68z"/>
	<path class="st5" d="M97,69c0,1.1-0.9,2-2,2h-6c-1.1,0-2-0.9-2-2v-9c0-1.1,0.9-2,2-2h6c1.1,0,2,0.9,2,2V69z"/>
	<path class="st6" d="M97,64H87c-0.6,0-1-0.4-1-1s0.4-1,1-1h10c0.6,0,1,0.4,1,1S97.6,64,97,64z"/>
	<path class="st6" d="M95,72h-6c-1.7,0-3-1.3-3-3v-9c0-1.7,1.3-3,3-3h6c1.7,0,3,1.3,3,3v9C98,70.7,96.7,72,95,72z M89,59
		c-0.6,0-1,0.4-1,1v9c0,0.6,0.4,1,1,1h6c0.6,0,1-0.4,1-1v-9c0-0.6-0.4-1-1-1H89z"/>
	<path class="st1" d="M91,68c-0.4,0-0.7-0.2-0.9-0.6c-0.2-0.5,0-1.1,0.4-1.3l2-1c0.5-0.2,1.1,0,1.3,0.4c0.2,0.5,0,1.1-0.4,1.3l-2,1
		C91.3,68,91.2,68,91,68z"/>
	<path class="st5" d="M75,90c0,1.1-0.9,2-2,2h-6c-1.1,0-2-0.9-2-2v-9c0-1.1,0.9-2,2-2h6c1.1,0,2,0.9,2,2V90z"/>
	<path class="st6" d="M75,85H65c-0.6,0-1-0.4-1-1s0.4-1,1-1h10c0.6,0,1,0.4,1,1S75.6,85,75,85z"/>
	<path class="st6" d="M73,93h-6c-1.7,0-3-1.3-3-3v-9c0-1.7,1.3-3,3-3h6c1.7,0,3,1.3,3,3v9C76,91.7,74.7,93,73,93z M67,80
		c-0.6,0-1,0.4-1,1v9c0,0.6,0.4,1,1,1h6c0.6,0,1-0.4,1-1v-9c0-0.6-0.4-1-1-1H67z"/>
	<path class="st1" d="M69,89c-0.4,0-0.7-0.2-0.9-0.6c-0.2-0.5,0-1.1,0.4-1.3l2-1c0.5-0.2,1.1,0,1.3,0.4c0.2,0.5,0,1.1-0.4,1.3l-2,1
		C69.3,89,69.2,89,69,89z"/>
	<path class="st5" d="M97,90c0,1.1-0.9,2-2,2h-6c-1.1,0-2-0.9-2-2v-9c0-1.1,0.9-2,2-2h6c1.1,0,2,0.9,2,2V90z"/>
	<path class="st6" d="M97,85H87c-0.6,0-1-0.4-1-1s0.4-1,1-1h10c0.6,0,1,0.4,1,1S97.6,85,97,85z"/>
	<path class="st6" d="M95,93h-6c-1.7,0-3-1.3-3-3v-9c0-1.7,1.3-3,3-3h6c1.7,0,3,1.3,3,3v9C98,91.7,96.7,93,95,93z M89,80
		c-0.6,0-1,0.4-1,1v9c0,0.6,0.4,1,1,1h6c0.6,0,1-0.4,1-1v-9c0-0.6-0.4-1-1-1H89z"/>
	<path class="st1" d="M91,89c-0.4,0-0.7-0.2-0.9-0.6c-0.2-0.5,0-1.1,0.4-1.3l2-1c0.5-0.2,1.1,0,1.3,0.4c0.2,0.5,0,1.1-0.4,1.3l-2,1
		C91.3,89,91.2,89,91,89z"/>
	<path class="st6" d="M46,104H28c-0.6,0-1-0.4-1-1v-5c0-0.6,0.4-1,1-1h18c0.6,0,1,0.4,1,1v5C47,103.6,46.6,104,46,104z M29,102h16
		v-3H29V102z"/>
	<path class="st6" d="M43.9,99H30.1c-0.6,0-1-0.4-1-1v-5c0-0.6,0.4-1,1-1h13.8c0.6,0,1,0.4,1,1v5C44.9,98.6,44.4,99,43.9,99z
		 M31.1,97h11.8v-3H31.1V97z"/>
	<path class="st1" d="M49,87c-0.6,0-1-0.4-1-1v-9c0-0.6,0.4-1,1-1s1,0.4,1,1v9C50,86.6,49.6,87,49,87z"/>
	<path class="st1" d="M26,87c-0.6,0-1-0.4-1-1v-9c0-0.6,0.4-1,1-1s1,0.4,1,1v9C27,86.6,26.6,87,26,87z"/>
	<path class="st9" d="M107,44h-8.5c-0.6,0-1-0.4-1-1s0.4-1,1-1h8.5c0.6,0,1,0.4,1,1S107.6,44,107,44z"/>
	<path class="st9" d="M90.8,44H79.9c-0.6,0-1-0.4-1-1s0.4-1,1-1h10.9c0.6,0,1,0.4,1,1S91.3,44,90.8,44z"/>
	<path class="st9" d="M74,44H63.2c-0.6,0-1-0.4-1-1s0.5-1,1-1H74c0.6,0,1,0.4,1,1S74.5,44,74,44z"/>
	<path class="st9" d="M101.8,39h-9.6c-0.6,0-1-0.4-1-1s0.4-1,1-1h9.6c0.6,0,1,0.4,1,1S102.4,39,101.8,39z"/>
	<path class="st9" d="M86,39H75.2c-0.6,0-1-0.4-1-1s0.4-1,1-1H86c0.6,0,1,0.4,1,1S86.6,39,86,39z"/>
	<path class="st9" d="M68.9,39H58.1c-0.6,0-1.1-0.4-1.1-1s0.5-1,1.1-1h10.9c0.6,0,1.1,0.4,1.1,1S69.5,39,68.9,39z"/>
	<path class="st10" d="M54.8,45.7c-0.3,0-0.6-0.1-0.8-0.4l-16-23c-0.3-0.5-0.2-1.1,0.3-1.4c0.5-0.3,1.1-0.2,1.4,0.3l16,23
		c0.3,0.5,0.2,1.1-0.3,1.4C55.2,45.6,55,45.7,54.8,45.7z"/>
	<path class="st10" d="M101.4,37H83.8c-0.6,0-1-0.4-1-1s0.4-1,1-1h17.6c0.6,0,1,0.4,1,1S101.9,37,101.4,37z"/>
	<path class="st10" d="M78.9,37H58c-0.6,0-1-0.4-1-1s0.4-1,1-1h20.9c0.6,0,1,0.4,1,1S79.4,37,78.9,37z"/>
	<ellipse class="st11" cx="113.3" cy="79.5" rx="10.7" ry="12.9"/>
	<path class="st12" d="M113.3,86c-5,0-9.2-4.1-10.4-9.7c-0.2,1-0.3,2.1-0.3,3.2c0,7.1,4.8,12.9,10.7,12.9c5.9,0,10.7-5.8,10.7-12.9
		c0-1.1-0.1-2.2-0.3-3.2C122.5,81.8,118.3,86,113.3,86z"/>
	<path class="st6" d="M113.5,93c-6.3,0-11.5-6.1-11.5-13.5c0-7.4,5.2-13.5,11.5-13.5c6.3,0,11.5,6.1,11.5,13.5
		C125,86.9,119.8,93,113.5,93z M113.5,67.9c-5.3,0-9.5,5.2-9.5,11.6c0,6.4,4.3,11.6,9.5,11.6c5.3,0,9.5-5.2,9.5-11.6
		C123,73.1,118.8,67.9,113.5,67.9z"/>
	<path class="st6" d="M113,103.4c-0.6,0-1-0.4-1-1V82.4c0-0.6,0.4-1,1-1c0.6,0,1,0.4,1,1v20.1C114,103,113.6,103.4,113,103.4z"/>
	<path class="st1" d="M118.3,80.5c-0.6,0-1-0.4-1-1c0-5-3.6-6.2-3.6-6.2c-0.5-0.2-0.8-0.7-0.6-1.3c0.2-0.5,0.7-0.8,1.3-0.6
		c0.2,0.1,5,1.7,5,8.1C119.3,80,118.9,80.5,118.3,80.5z"/>
	<circle class="st11" cx="20.9" cy="89.9" r="5.3"/>
	<path class="st12" d="M20.9,91.9c-2.3,0-4.3-1.5-5-3.6c-0.2,0.5-0.3,1.1-0.3,1.6c0,2.9,2.4,5.3,5.3,5.3c2.9,0,5.2-2.4,5.2-5.3
		c0-0.6-0.1-1.1-0.3-1.6C25.2,90.3,23.2,91.9,20.9,91.9z"/>
	<path class="st6" d="M20.8,96c-3.2,0-6.8-2.5-6.8-6.1c0-3.5,3.4-6.9,6.8-6.9c3.3,0,6.2,3.2,6.2,6.9C27,93.3,24.3,96,20.8,96z
		 M20.8,85c-2.3,0-4.8,2.5-4.8,4.9c0,2.4,2.6,4.1,4.8,4.1c2.4,0,4.2-1.8,4.2-4.1C25,87.6,23.2,85,20.8,85z"/>
	<rect x="17" y="98.4" class="st8" width="6.7" height="4.3"/>
	<path class="st6" d="M24,104h-6c-0.6,0-1-0.4-1-1v-5c0-0.6,0.4-1,1-1h6c0.6,0,1,0.4,1,1v5C25,103.6,24.6,104,24,104z M19,102h4v-3
		h-4V102z"/>
	<path class="st6" d="M21,99.3c-0.6,0-1-0.4-1-1v-2.3c0-0.6,0.4-1,1-1s1,0.4,1,1v2.3C22,98.8,21.6,99.3,21,99.3z"/>
	<circle class="st11" cx="52.9" cy="89.9" r="5.3"/>
	<path class="st12" d="M52.9,91.9c-2.3,0-4.3-1.5-5-3.6c-0.2,0.5-0.3,1.1-0.3,1.6c0,2.9,2.4,5.3,5.3,5.3c2.9,0,5.2-2.4,5.2-5.3
		c0-0.6-0.1-1.1-0.3-1.6C57.1,90.3,55.2,91.9,52.9,91.9z"/>
	<path class="st6" d="M52.9,96c-3.2,0-6.9-2.5-6.9-6.1c0-3.5,3.4-6.9,6.9-6.9c3.3,0,6.2,3.2,6.2,6.9C59.1,93.3,56.4,96,52.9,96z
		 M52.9,85c-2.4,0-4.9,2.5-4.9,4.9c0,2.4,2.6,4.1,4.9,4.1c2.4,0,4.2-1.8,4.2-4.1C57.1,87.6,55.2,85,52.9,85z"/>
	<rect x="49.3" y="98.4" class="st8" width="6.7" height="4.3"/>
	<path class="st6" d="M56,104h-6c-0.6,0-1-0.4-1-1v-5c0-0.6,0.4-1,1-1h6c0.6,0,1,0.4,1,1v5C57,103.6,56.6,104,56,104z M51,102h4v-3
		h-4V102z"/>
	<path class="st6" d="M53,99.3c-0.6,0-1-0.4-1-1v-2.3c0-0.6,0.4-1,1-1s1,0.4,1,1v2.3C54,98.8,53.6,99.3,53,99.3z"/>
</g>
</svg>
