<?xml version="1.0" encoding="utf-8"?>
<!-- Generator: Adobe Illustrator 21.0.2, SVG Export Plug-In . SVG Version: 6.00 Build 0)  -->
<svg version="1.1" id="hospital" xmlns="http://www.w3.org/2000/svg" xmlns:xlink="http://www.w3.org/1999/xlink" x="0px" y="0px"
	 viewBox="0 0 128 128" style="enable-background:new 0 0 128 128;" xml:space="preserve">
<style type="text/css">
	.st0{fill:#3AD0F9;}
	.st1{fill:#EAEAEA;}
	.st2{fill:#FF4848;}
	.st3{fill:#D4D6D6;}
	.st4{fill:#663210;}
	.st5{fill:#FFFFFF;}
	.st6{fill:#E02020;}
	.st7{opacity:0.5;fill:#FFFFFF;}
</style>
<g>
	<circle class="st0" cx="64" cy="64" r="64"/>
	<path class="st1" d="M0,64c0,23,12.2,43.2,30.4,54.5c2.2,1.3,4.5,2.5,6.8,3.5V54.7H0.7C0.2,57.8,0,60.9,0,64z"/>
	<path class="st2" d="M0,64C0,64,0,64,0,64l37.2,0.2V50H1.6C0.5,54.5,0,59.2,0,64z"/>
	<path class="st1" d="M127.3,54.9H90.9v67.2c0.3-0.1,0.6-0.3,1-0.4C113.2,111.3,128,89.4,128,64C128,60.9,127.8,57.9,127.3,54.9z"/>
	<path class="st3" d="M30,118.3c2.2,1.4,4.6,2.6,7,3.7V64.3h-7V118.3z"/>
	<polygon class="st3" points="0.2,69 37.2,69 37.2,64.9 0,64.9 	"/>
	<path class="st3" d="M127.8,69h-37v-4.1h37.2C127.9,66.3,127.9,67.6,127.8,69z"/>
	<path class="st3" d="M98,118.3c-2.2,1.4-4.6,2.6-7,3.7V64.3h7V118.3z"/>
	<rect x="37.2" y="34.9" class="st1" width="53.5" height="92"/>
	<rect x="37.2" y="44.5" class="st3" width="53.1" height="3.5"/>
	<path class="st4" d="M90,128H37c-0.6,0-1-0.4-1-1V35c0-0.5,0.4-1,1-1l53-1c0.3,0,0.5,0.1,0.7,0.3c0.2,0.2,0.3,0.4,0.3,0.7v93
		C91,127.6,90.6,128,90,128z M38,126h51V35l-51,1V126z"/>
	<rect x="52" y="112.7" class="st5" width="26.5" height="14.1"/>
	<rect x="51.5" y="113.4" class="st1" width="26.5" height="3.6"/>
	<path class="st4" d="M78,128H51c-0.6,0-1-0.4-1-1v-14c0-0.6,0.4-1,1-1h27c0.6,0,1,0.4,1,1v14C79,127.6,78.6,128,78,128z M52,126h25
		v-12H52V126z"/>
	<path class="st2" d="M93.9,41c0,2.2-1.8,4-4,4L38,44.4c-2.2,0-4-1.8-4-4v-6.1c0-2.2,1.8-4,4-4h51.9c2.2,0,4,1.8,4,4V41z"/>
	<path class="st6" d="M89.9,40.2H38c-2.2,0-4-1.8-4-4v4.2c0,2.2,1.8,4,4,4h51.9c2.2,0,4-1.8,4-4v-4.2C93.9,38.4,92.1,40.2,89.9,40.2
		z"/>
	<path class="st4" d="M90,45H38c-2.8,0-5-2.2-5-5v-6c0-2.8,2.2-5,5-5h52c2.8,0,5,2.2,5,5v6C95,42.8,92.8,45,90,45z M38,31
		c-1.7,0-3,1.3-3,3v6c0,1.7,1.3,3,3,3h52c1.7,0,3-1.3,3-3v-6c0-1.7-1.3-3-3-3H38z"/>
	<circle class="st5" cx="64" cy="30" r="9.5"/>
	<path class="st4" d="M64,40c-5.5,0-10-4.5-10-10c0-5.5,4.5-10,10-10c5.5,0,10,4.5,10,10C74,35.5,69.5,40,64,40z M64,21.9
		c-4.5,0-8.1,3.6-8.1,8.1c0,4.5,3.6,8.1,8.1,8.1c4.5,0,8.1-3.6,8.1-8.1C72.1,25.5,68.5,21.9,64,21.9z"/>
	<path class="st4" d="M118,128H10c-0.6,0-1-0.4-1-1s0.5-1,1-1h108c0.6,0,1,0.4,1,1S118.5,128,118,128z"/>
	<path class="st2" d="M90.9,64.2h37c0,0,0-0.1,0-0.1c0-4.8-0.5-9.5-1.6-14H90.9V64.2z"/>
	<path class="st6" d="M90.9,63.8h37c0-1.5-0.1-3-0.2-4.5H90.9V63.8z"/>
	<rect y="59" class="st6" width="37.2" height="4.8"/>
	<path class="st4" d="M89.9,50v14.1c0,0.6,0.4,0.8,1,0.8h37c0-0.4,0-0.6,0-1c0-0.3,0-0.7,0-1H91V51h35.6c-0.1-0.7-0.3-1.3-0.5-2
		H90.9C90.3,49,89.9,49.5,89.9,50z"/>
	<path class="st4" d="M64,127.2c-0.6,0-1-0.4-1-1v-13.1c0-0.6,0.4-1,1-1s1,0.4,1,1v13.1C65,126.8,64.6,127.2,64,127.2z"/>
	<path class="st4" d="M60.9,122h-1.9c-0.6,0-1.1-0.4-1.1-1s0.5-1,1.1-1h1.9c0.6,0,1.1,0.4,1.1,1S61.5,122,60.9,122z"/>
	<path class="st4" d="M69.9,122h-1.9c-0.6,0-1.1-0.4-1.1-1s0.5-1,1.1-1h1.9c0.6,0,1.1,0.4,1.1,1S70.5,122,69.9,122z"/>
	<path class="st4" d="M64,35.3c-0.6,0-1-0.4-1-1v-8.9c0-0.6,0.4-1,1-1s1,0.4,1,1v8.9C65,34.9,64.6,35.3,64,35.3z"/>
	<path class="st4" d="M68.4,31h-8.9c-0.6,0-1-0.4-1-1s0.4-1,1-1h8.9c0.6,0,1,0.4,1,1S68.9,31,68.4,31z"/>
	<path class="st5" d="M106,37.1c-2.2,0-4-1.8-4-4.1c0-2.2,1.8-4.1,4-4.1c2.2,0,4,1.8,4,4.1C110,35.3,108.2,37.1,106,37.1z M106,30.9
		c-1.2,0-2.1,1-2.1,2.2c0,1.2,1,2.2,2.1,2.2c1.2,0,2.1-1,2.1-2.2C108.1,31.9,107.2,30.9,106,30.9z"/>
	<path class="st5" d="M38.9,24c-2.3,0-4.1-1.8-4.1-4c0-2.2,1.9-4,4.1-4c2.3,0,4.1,1.8,4.1,4C43,22.2,41.1,24,38.9,24z M38.9,17.9
		c-1.2,0-2.2,1-2.2,2.1c0,1.2,1,2.1,2.2,2.1c1.2,0,2.2-1,2.2-2.1C41.1,18.8,40.1,17.9,38.9,17.9z"/>
	<path class="st5" d="M86.7,17.5c0-0.4-0.4-0.8-1-0.9l-1.9-0.3c-0.5-0.1-1.1-0.6-1.1-1.1l-0.3-1.9c-0.1-0.5-0.5-1-0.9-1
		c-0.4,0-0.8,0.4-0.9,1l-0.3,1.9c-0.1,0.5-0.6,1.1-1.1,1.1l-1.9,0.3c-0.5,0.1-1,0.5-1,0.9s0.4,0.8,1,0.9l1.9,0.3
		c0.5,0.1,1.1,0.6,1.1,1.1l0.3,1.9c0.1,0.5,0.5,1,0.9,1c0.4,0,0.8-0.4,0.8-1l0.3-2.1c0.1-0.5,0.6-1,1.1-1.1l1.8-0.1
		C86.3,18.3,86.7,17.9,86.7,17.5z"/>
	<path class="st5" d="M26.2,37c0-0.4-0.4-0.8-1-0.9l-1.9-0.3c-0.5-0.1-1.1-0.6-1.1-1.1l-0.3-1.9c-0.1-0.5-0.5-1-0.9-1
		c-0.4,0-0.8,0.4-0.9,1l-0.3,1.9c-0.1,0.5-0.6,1.1-1.1,1.1l-1.9,0.3c-0.5,0.1-1,0.5-1,0.9c0,0.4,0.4,0.8,1,0.9l1.9,0.3
		c0.5,0.1,1.1,0.6,1.1,1.1l0.3,1.9c0.1,0.5,0.5,1,0.9,1c0.4,0,0.8-0.4,0.8-1l0.3-2.1c0.1-0.5,0.6-1,1.1-1.1l1.8-0.1
		C25.8,37.7,26.2,37.4,26.2,37z"/>
	<path class="st7" d="M89,35H77c-0.5,0-1-0.4-1-1s0.4-1,1-1H89c0.5,0,1,0.4,1,1S89.6,35,89,35z"/>
	<path class="st7" d="M51,35H39c-0.6,0-1-0.4-1-1s0.5-1,1-1H51c0.6,0,1,0.4,1,1S51.5,35,51,35z"/>
	<path class="st7" d="M123.9,55h-6.9c-0.6,0-1.1-0.4-1.1-1s0.5-1,1.1-1h6.9c0.6,0,1.1,0.4,1.1,1S124.5,55,123.9,55z"/>
	<path class="st7" d="M112,55H95c-0.6,0-1-0.4-1-1s0.4-1,1-1h17c0.6,0,1,0.4,1,1S112.6,55,112,55z"/>
	<path class="st7" d="M32,55H5c-0.6,0-1-0.4-1-1s0.4-1,1-1h27c0.6,0,1,0.4,1,1S32.6,55,32,55z"/>
	<path class="st4" d="M37,49H1.8c-0.2,0.7-0.3,1.3-0.5,2H36v12H0c0,0.3,0,0.7,0,1c0,0.3,0,0.7,0,1h37.2c0.6,0,0.8-0.3,0.8-0.8V50
		C38,49.5,37.6,49,37,49z"/>
	<path class="st0" d="M53.3,62.2c0,1.1-0.9,2-2,2h-5c-1.1,0-2-0.9-2-2v-7.3c0-1.1,0.9-2,2-2h5c1.1,0,2,0.9,2,2V62.2z"/>
	<path class="st4" d="M51,65h-5c-1.7,0-3-1.3-3-3v-7c0-1.6,1.3-3,3-3l5,0.1c1.6,0,3,1.4,3,3V62C54,63.7,52.7,65,51,65z M46,54
		c-0.6,0-1,0.4-1,1v7c0,0.6,0.4,1,1,1h5c0.6,0,1-0.4,1-1v-6.9c0-0.5-0.5-1.1-1-1.1H46L46,54z"/>
	<path class="st5" d="M47.8,60.2c-0.3,0-0.5-0.1-0.7-0.3c-0.4-0.4-0.4-1,0-1.4l2.4-2.4c0.4-0.4,1-0.4,1.4,0c0.4,0.4,0.4,1,0,1.4
		L48.6,60C48.4,60.2,48.1,60.2,47.8,60.2z"/>
	<path class="st0" d="M68.3,62.2c0,1.1-0.9,2-2,2h-5c-1.1,0-2-0.9-2-2v-7.3c0-1.1,0.9-2,2-2h5c1.1,0,2,0.9,2,2V62.2z"/>
	<path class="st4" d="M66,65h-5c-1.7,0-3-1.3-3-3v-7c0-1.6,1.3-3,3-3l5,0.1c1.6,0,3,1.4,3,3V62C69,63.7,67.7,65,66,65z M61,54
		c-0.6,0-1,0.4-1,1v7c0,0.6,0.4,1,1,1h5c0.6,0,1-0.4,1-1v-6.9c0-0.5-0.5-1.1-1-1.1H61L61,54z"/>
	<path class="st5" d="M62.8,60.2c-0.3,0-0.5-0.1-0.7-0.3c-0.4-0.4-0.4-1,0-1.4l2.4-2.4c0.4-0.4,1-0.4,1.4,0c0.4,0.4,0.4,1,0,1.4
		L63.6,60C63.4,60.2,63.1,60.2,62.8,60.2z"/>
	<path class="st0" d="M83.3,62.2c0,1.1-0.9,2-2,2h-5c-1.1,0-2-0.9-2-2v-7.3c0-1.1,0.9-2,2-2h5c1.1,0,2,0.9,2,2V62.2z"/>
	<path class="st4" d="M81,65h-5c-1.7,0-3-1.3-3-3v-7c0-1.6,1.3-3,3-3l5,0.1c1.6,0,3,1.4,3,3V62C84,63.7,82.7,65,81,65z M76,54
		c-0.5,0-1,0.4-1,1v7c0,0.6,0.4,1,1,1h5c0.6,0,1-0.4,1-1v-6.9c0-0.5-0.5-1.1-1-1.1H76L76,54z"/>
	<path class="st5" d="M77.8,60.2c-0.3,0-0.5-0.1-0.7-0.3c-0.4-0.4-0.4-1,0-1.4l2.4-2.4c0.4-0.4,1-0.4,1.4,0c0.4,0.4,0.4,1,0,1.4
		L78.6,60C78.4,60.2,78.1,60.2,77.8,60.2z"/>
	<path class="st0" d="M53.3,82.2c0,1.1-0.9,2-2,2h-5c-1.1,0-2-0.9-2-2v-7.3c0-1.1,0.9-2,2-2h5c1.1,0,2,0.9,2,2V82.2z"/>
	<path class="st4" d="M51,85h-5c-1.7,0-3-1.3-3-3v-7c0-1.6,1.3-3,3-3l5,0.1c1.6,0,3,1.4,3,3V82C54,83.7,52.7,85,51,85z M46,74
		c-0.6,0-1,0.4-1,1v7c0,0.6,0.4,1,1,1h5c0.6,0,1-0.4,1-1v-6.9c0-0.5-0.5-1.1-1-1.1H46L46,74z"/>
	<path class="st5" d="M47.8,80.2c-0.3,0-0.5-0.1-0.7-0.3c-0.4-0.4-0.4-1,0-1.4l2.4-2.4c0.4-0.4,1-0.4,1.4,0c0.4,0.4,0.4,1,0,1.4
		L48.6,80C48.4,80.2,48.1,80.2,47.8,80.2z"/>
	<path class="st0" d="M68.3,82.2c0,1.1-0.9,2-2,2h-5c-1.1,0-2-0.9-2-2v-7.3c0-1.1,0.9-2,2-2h5c1.1,0,2,0.9,2,2V82.2z"/>
	<path class="st4" d="M66,85h-5c-1.7,0-3-1.3-3-3v-7c0-1.6,1.3-3,3-3l5,0.1c1.6,0,3,1.4,3,3V82C69,83.7,67.7,85,66,85z M61,74
		c-0.6,0-1,0.4-1,1v7c0,0.6,0.4,1,1,1h5c0.6,0,1-0.4,1-1v-6.9c0-0.5-0.5-1.1-1-1.1H61L61,74z"/>
	<path class="st5" d="M62.8,80.2c-0.3,0-0.5-0.1-0.7-0.3c-0.4-0.4-0.4-1,0-1.4l2.4-2.4c0.4-0.4,1-0.4,1.4,0c0.4,0.4,0.4,1,0,1.4
		L63.6,80C63.4,80.2,63.1,80.2,62.8,80.2z"/>
	<path class="st0" d="M83.3,82.2c0,1.1-0.9,2-2,2h-5c-1.1,0-2-0.9-2-2v-7.3c0-1.1,0.9-2,2-2h5c1.1,0,2,0.9,2,2V82.2z"/>
	<path class="st4" d="M81,85h-5c-1.7,0-3-1.3-3-3v-7c0-1.6,1.3-3,3-3l5,0.1c1.6,0,3,1.4,3,3V82C84,83.7,82.7,85,81,85z M76,74
		c-0.5,0-1,0.4-1,1v7c0,0.6,0.4,1,1,1h5c0.6,0,1-0.4,1-1v-6.9c0-0.5-0.5-1.1-1-1.1H76L76,74z"/>
	<path class="st5" d="M77.8,80.2c-0.3,0-0.5-0.1-0.7-0.3c-0.4-0.4-0.4-1,0-1.4l2.4-2.4c0.4-0.4,1-0.4,1.4,0c0.4,0.4,0.4,1,0,1.4
		L78.6,80C78.4,80.2,78.1,80.2,77.8,80.2z"/>
	<path class="st0" d="M53.3,102.2c0,1.1-0.9,2-2,2h-5c-1.1,0-2-0.9-2-2v-7.3c0-1.1,0.9-2,2-2h5c1.1,0,2,0.9,2,2V102.2z"/>
	<path class="st4" d="M51,105h-5c-1.7,0-3-1.3-3-3v-7c0-1.6,1.3-3,3-3l5,0.1c1.6,0,3,1.4,3,3v6.9C54,103.7,52.7,105,51,105z M46,94
		c-0.6,0-1,0.4-1,1v7c0,0.6,0.4,1,1,1h5c0.6,0,1-0.4,1-1v-6.9c0-0.5-0.5-1.1-1-1.1H46L46,94z"/>
	<path class="st5" d="M47.8,100.2c-0.3,0-0.5-0.1-0.7-0.3c-0.4-0.4-0.4-1,0-1.4l2.4-2.4c0.4-0.4,1-0.4,1.4,0c0.4,0.4,0.4,1,0,1.4
		l-2.4,2.4C48.4,100.2,48.1,100.2,47.8,100.2z"/>
	<path class="st0" d="M68.3,102.2c0,1.1-0.9,2-2,2h-5c-1.1,0-2-0.9-2-2v-7.3c0-1.1,0.9-2,2-2h5c1.1,0,2,0.9,2,2V102.2z"/>
	<path class="st4" d="M66,105h-5c-1.7,0-3-1.3-3-3v-7c0-1.6,1.3-3,3-3l5,0.1c1.6,0,3,1.4,3,3v6.9C69,103.7,67.7,105,66,105z M61,94
		c-0.6,0-1,0.4-1,1v7c0,0.6,0.4,1,1,1h5c0.6,0,1-0.4,1-1v-6.9c0-0.5-0.5-1.1-1-1.1H61L61,94z"/>
	<path class="st5" d="M62.8,100.2c-0.3,0-0.5-0.1-0.7-0.3c-0.4-0.4-0.4-1,0-1.4l2.4-2.4c0.4-0.4,1-0.4,1.4,0c0.4,0.4,0.4,1,0,1.4
		l-2.4,2.4C63.4,100.2,63.1,100.2,62.8,100.2z"/>
	<path class="st0" d="M83.3,102.2c0,1.1-0.9,2-2,2h-5c-1.1,0-2-0.9-2-2v-7.3c0-1.1,0.9-2,2-2h5c1.1,0,2,0.9,2,2V102.2z"/>
	<path class="st4" d="M81,105h-5c-1.7,0-3-1.3-3-3v-7c0-1.6,1.3-3,3-3l5,0.1c1.6,0,3,1.4,3,3v6.9C84,103.7,82.7,105,81,105z M76,94
		c-0.5,0-1,0.4-1,1v7c0,0.6,0.4,1,1,1h5c0.6,0,1-0.4,1-1v-6.9c0-0.5-0.5-1.1-1-1.1H76L76,94z"/>
	<path class="st5" d="M77.8,100.2c-0.3,0-0.5-0.1-0.7-0.3c-0.4-0.4-0.4-1,0-1.4l2.4-2.4c0.4-0.4,1-0.4,1.4,0c0.4,0.4,0.4,1,0,1.4
		l-2.4,2.4C78.4,100.2,78.1,100.2,77.8,100.2z"/>
	<path class="st0" d="M27.3,82.2c0,1.1-0.9,2-2,2h-5c-1.1,0-2-0.9-2-2v-7.3c0-1.1,0.9-2,2-2h5c1.1,0,2,0.9,2,2V82.2z"/>
	<path class="st4" d="M25,85h-5c-1.7,0-3-1.3-3-3v-7c0-1.6,1.3-3,3-3l5,0.1c1.6,0,3,1.4,3,3V82C28,83.7,26.7,85,25,85z M20,74
		c-0.6,0-1,0.4-1,1v7c0,0.6,0.4,1,1,1h5c0.6,0,1-0.4,1-1v-6.9c0-0.5-0.5-1.1-1-1.1H20L20,74z"/>
	<path class="st5" d="M21.8,80.2c-0.3,0-0.5-0.1-0.7-0.3c-0.4-0.4-0.4-1,0-1.4l2.4-2.4c0.4-0.4,1-0.4,1.4,0c0.4,0.4,0.4,1,0,1.4
		L22.6,80C22.4,80.2,22.1,80.2,21.8,80.2z"/>
	<path class="st0" d="M12.3,82.2c0,1.1-0.9,2-2,2h-5c-1.1,0-2-0.9-2-2v-7.3c0-1.1,0.9-2,2-2h5c1.1,0,2,0.9,2,2V82.2z"/>
	<path class="st5" d="M6.8,80.2c-0.3,0-0.5-0.1-0.7-0.3c-0.4-0.4-0.4-1,0-1.4l2.4-2.4c0.4-0.4,1-0.4,1.4,0c0.4,0.4,0.4,1,0,1.4
		L7.6,80C7.4,80.2,7.1,80.2,6.8,80.2z"/>
	<path class="st0" d="M27.3,102.2c0,1.1-0.9,2-2,2h-5c-1.1,0-2-0.9-2-2v-7.3c0-1.1,0.9-2,2-2h5c1.1,0,2,0.9,2,2V102.2z"/>
	<path class="st4" d="M25,105h-5c-1.7,0-3-1.3-3-3v-7c0-1.6,1.3-3,3-3l5,0.1c1.6,0,3,1.4,3,3v6.9C28,103.7,26.7,105,25,105z M20,94
		c-0.6,0-1,0.4-1,1v7c0,0.6,0.4,1,1,1h5c0.6,0,1-0.4,1-1v-6.9c0-0.5-0.5-1.1-1-1.1H20L20,94z"/>
	<path class="st5" d="M21.8,100.2c-0.3,0-0.5-0.1-0.7-0.3c-0.4-0.4-0.4-1,0-1.4l2.4-2.4c0.4-0.4,1-0.4,1.4,0c0.4,0.4,0.4,1,0,1.4
		l-2.4,2.4C22.4,100.2,22.1,100.2,21.8,100.2z"/>
	<path class="st0" d="M125.3,82.2c0,1.1-0.9,2-2,2h-5c-1.1,0-2-0.9-2-2v-7.3c0-1.1,0.9-2,2-2h5c1.1,0,2,0.9,2,2V82.2z"/>
	<path class="st5" d="M119.8,80.2c-0.3,0-0.5-0.1-0.7-0.3c-0.4-0.4-0.4-1,0-1.4l2.4-2.4c0.4-0.4,1-0.4,1.4,0c0.4,0.4,0.4,1,0,1.4
		l-2.4,2.4C120.4,80.2,120.1,80.2,119.8,80.2z"/>
	<path class="st0" d="M110.3,82.2c0,1.1-0.9,2-2,2h-5c-1.1,0-2-0.9-2-2v-7.3c0-1.1,0.9-2,2-2h5c1.1,0,2,0.9,2,2V82.2z"/>
	<path class="st4" d="M108,85h-5c-1.7,0-3-1.3-3-3v-7c0-1.6,1.3-3,3-3l5,0.1c1.6,0,3,1.4,3,3V82C111,83.7,109.7,85,108,85z M103,74
		c-0.5,0-1,0.4-1,1v7c0,0.6,0.4,1,1,1h5c0.6,0,1-0.4,1-1v-6.9c0-0.5-0.5-1.1-1-1.1H103L103,74z"/>
	<path class="st5" d="M104.8,80.2c-0.3,0-0.5-0.1-0.7-0.3c-0.4-0.4-0.4-1,0-1.4l2.4-2.4c0.4-0.4,1-0.4,1.4,0c0.4,0.4,0.4,1,0,1.4
		l-2.4,2.4C105.4,80.2,105.1,80.2,104.8,80.2z"/>
	<path class="st0" d="M110.3,102.2c0,1.1-0.9,2-2,2h-5c-1.1,0-2-0.9-2-2v-7.3c0-1.1,0.9-2,2-2h5c1.1,0,2,0.9,2,2V102.2z"/>
	<path class="st4" d="M108,105h-5c-1.7,0-3-1.3-3-3v-7c0-1.6,1.3-3,3-3l5,0.1c1.6,0,3,1.4,3,3v6.9C111,103.7,109.7,105,108,105z
		 M103,94c-0.5,0-1,0.4-1,1v7c0,0.6,0.4,1,1,1h5c0.6,0,1-0.4,1-1v-6.9c0-0.5-0.5-1.1-1-1.1H103L103,94z"/>
	<path class="st5" d="M104.8,100.2c-0.3,0-0.5-0.1-0.7-0.3c-0.4-0.4-0.4-1,0-1.4l2.4-2.4c0.4-0.4,1-0.4,1.4,0c0.4,0.4,0.4,1,0,1.4
		l-2.4,2.4C105.4,100.2,105.1,100.2,104.8,100.2z"/>
	<path class="st4" d="M126,75.1c0-1.6-1.3-3-3-3l-5-0.1c-1.6,0-3,1.3-3,3v7c0,1.7,1.3,3,3,3h5c0.6,0,1.2-0.2,1.6-0.5
		c0.5-1.5,1-3,1.4-4.6V75.1z M124,82c0,0.6-0.4,1-1,1h-5c-0.6,0-1-0.4-1-1v-7c0-0.5,0.4-1,1-1h5c0.5,0,1,0.5,1,1.1V82z"/>
	<path class="st0" d="M121.1,92.9h-2.8c-1.1,0-2,0.9-2,2v6C118.1,98.3,119.7,95.7,121.1,92.9z"/>
	<path class="st4" d="M115,95v7c0,0.1,0,0.1,0,0.2c0.7-0.9,1.4-1.9,2.1-2.8V95c0-0.5,0.5-1,1-1h2.3c0.4-0.6,0.7-1.3,1.1-2l-3.4,0
		C116.4,92,115,93.3,115,95z"/>
	<path class="st0" d="M10.3,92.9H6.9c1.6,3.1,3.4,6.1,5.5,8.9v-6.9C12.3,93.8,11.4,92.9,10.3,92.9z"/>
	<path class="st4" d="M10,72.1L5,72c-1.6,0-3,1.3-3,3v4.9c0.4,1.6,0.8,3.1,1.4,4.6C3.8,84.8,4.4,85,5,85h5c1.7,0,3-1.3,3-3v-6.9
		C13,73.4,11.7,72.1,10,72.1z M11,82c0,0.6-0.4,1-1,1H5c-0.6,0-1-0.4-1-1v-7c0-0.5,0.4-1,1-1h5c0.5,0,1,0.5,1,1.1V82z"/>
	<path class="st4" d="M10,92.1l-3.6,0c0.3,0.7,0.7,1.3,1,2H10c0.5,0,1,0.5,1,1.1v4.8c0.6,0.9,1.3,1.8,1.9,2.7c0-0.2,0.1-0.4,0.1-0.6
		v-6.9C13,93.4,11.7,92.1,10,92.1z"/>
	<path class="st5" d="M8.6,96.1c0.3,0.6,0.7,1.2,1.1,1.8l0.3-0.3c0.4-0.4,0.4-1,0-1.4C9.6,95.8,9,95.7,8.6,96.1z"/>
</g>
</svg>
