<?xml version="1.0" encoding="utf-8"?>
<!-- Generator: Adobe Illustrator 21.0.2, SVG Export Plug-In . SVG Version: 6.00 Build 0)  -->
<svg version="1.1" id="italy" xmlns="http://www.w3.org/2000/svg" xmlns:xlink="http://www.w3.org/1999/xlink" x="0px" y="0px"
	 viewBox="0 0 128 128" style="enable-background:new 0 0 128 128;" xml:space="preserve">
<style type="text/css">
	.st0{fill:#6AE5E1;}
	.st1{fill:#663210;}
	.st2{fill:#FBD000;}
	.st3{fill:#AD5114;}
	.st4{fill:#F99900;}
	.st5{fill:#FFFFFF;}
</style>
<g>
	<circle class="st0" cx="64" cy="64" r="64"/>
	<path class="st1" d="M125,95H4c-0.6,0-1-0.4-1-1s0.4-1,1-1h121c0.6,0,1,0.4,1,1S125.6,95,125,95z"/>
	<polygon class="st2" points="103,94 24,94 24,42 64,42 73,70 103,70 	"/>
	<path class="st1" d="M105,84H23c-0.6,0-1-0.4-1-1s0.4-1,1-1h82c0.6,0,1,0.4,1,1S105.6,84,105,84z"/>
	<path class="st1" d="M105,71H23c-0.6,0-1-0.4-1-1s0.4-1,1-1h82c0.6,0,1,0.4,1,1S105.6,71,105,71z"/>
	<path class="st1" d="M69,58H22c-0.6,0-1-0.4-1-1s0.4-1,1-1h47c0.6,0,1,0.4,1,1S69.6,58,69,58z"/>
	<path class="st1" d="M65,46H22c-0.6,0-1-0.4-1-1s0.4-1,1-1h43c0.6,0,1,0.4,1,1S65.6,46,65,46z"/>
	<path class="st3" d="M29,79v-3.8c0-1.2,0.8-1.9,2-1.9s2,0.7,2,1.9V79H29z"/>
	<path class="st0" d="M29,66v-3.8c0-1.2,0.8-1.9,2-1.9s2,0.7,2,1.9V66H29z"/>
	<rect x="24" y="84" class="st4" width="80" height="2"/>
	<rect x="24" y="71" class="st4" width="80" height="2"/>
	<rect x="25" y="58" class="st4" width="44" height="2"/>
	<rect x="25" y="46" class="st4" width="40" height="2"/>
	<path class="st1" d="M31,52c-0.6,0-1-0.4-1-1v-3c0-0.6,0.4-1,1-1s1,0.4,1,1v3C32,51.6,31.6,52,31,52z"/>
	<path class="st3" d="M42,79v-3.8c0-1.2,0.8-1.9,2-1.9s2,0.7,2,1.9V79H42z"/>
	<path class="st0" d="M42,66v-3.8c0-1.2,0.8-1.9,2-1.9s2,0.7,2,1.9V66H42z"/>
	<path class="st1" d="M44,52c-0.6,0-1-0.4-1-1v-3c0-0.6,0.4-1,1-1s1,0.4,1,1v3C45,51.6,44.6,52,44,52z"/>
	<path class="st3" d="M55,79v-3.8c0-1.2,0.8-1.9,2-1.9s2,0.7,2,1.9V79H55z"/>
	<path class="st0" d="M55,66v-3.8c0-1.2,0.8-1.9,2-1.9s2,0.7,2,1.9V66H55z"/>
	<path class="st1" d="M57,52c-0.6,0-1-0.4-1-1v-3c0-0.6,0.4-1,1-1s1,0.4,1,1v3C58,51.6,57.6,52,57,52z"/>
	<path class="st3" d="M68,79v-3.8c0-1.2,0.8-1.9,2-1.9s2,0.7,2,1.9V79H68z"/>
	<path class="st3" d="M81,79v-3.8c0-1.2,0.8-1.9,2-1.9s2,0.7,2,1.9V79H81z"/>
	<path class="st3" d="M94,79v-3.8c0-1.2,0.8-1.9,2-1.9s2,0.7,2,1.9V79H94z"/>
	<path class="st1" d="M103,95H24c-0.6,0-1-0.4-1-1V42c0-0.6,0.4-1,1-1h40c0.4,0,0.8,0.3,1,0.7L73.7,69H103c0.6,0,1,0.4,1,1v24
		C104,94.6,103.6,95,103,95z M25,93h77V71H73c-0.4,0-0.8-0.3-1-0.7L63.3,43H25V93z"/>
	<path class="st3" d="M29,92.7v-3.8c0-1.2,0.8-1.9,2-1.9s2,0.7,2,1.9v3.8H29z"/>
	<path class="st3" d="M42,92.7v-3.8c0-1.2,0.8-1.9,2-1.9s2,0.7,2,1.9v3.8H42z"/>
	<path class="st3" d="M55,92.7v-3.8c0-1.2,0.8-1.9,2-1.9s2,0.7,2,1.9v3.8H55z"/>
	<path class="st3" d="M68,92.7v-3.8c0-1.2,0.8-1.9,2-1.9s2,0.7,2,1.9v3.8H68z"/>
	<path class="st3" d="M81,93v-3.8c0-1.2,0.8-1.9,2-1.9s2,0.7,2,1.9V93H81z"/>
	<path class="st3" d="M94,93v-3.8c0-1.2,0.8-1.9,2-1.9s2,0.7,2,1.9V93H94z"/>
	<path class="st1" d="M33,94h-4c-0.6,0-1-0.5-1-1v-4c0-1.8,1.2-3,3-3s3,1.2,3,3v4C34,93.5,33.6,94,33,94z M30,91.9h2V89
		c0-0.2,0-0.9-1-0.9s-1,0.7-1,0.9V91.9z"/>
	<path class="st1" d="M46,94h-4c-0.6,0-1-0.5-1-1v-4c0-1.8,1.2-3,3-3s3,1.2,3,3v4C47,93.5,46.6,94,46,94z M43,91.9h2V89
		c0-0.2,0-0.9-1-0.9s-1,0.7-1,0.9V91.9z"/>
	<path class="st1" d="M59,94h-4c-0.6,0-1-0.5-1-1v-4c0-1.8,1.2-3,3-3s3,1.2,3,3v4C60,93.5,59.6,94,59,94z M56,91.9h2V89
		c0-0.2,0-0.9-1-0.9s-1,0.7-1,0.9V91.9z"/>
	<path class="st1" d="M72,94h-4c-0.6,0-1-0.5-1-1v-4c0-1.8,1.2-3,3-3s3,1.2,3,3v4C73,93.5,72.6,94,72,94z M69,91.9h2V89
		c0-0.2,0-0.9-1-0.9s-1,0.7-1,0.9V91.9z"/>
	<path class="st1" d="M85,94h-4c-0.6,0-1-0.5-1-1v-4c0-1.8,1.2-3,3-3s3,1.2,3,3v4C86,93.5,85.6,94,85,94z M82,91.9h2V89
		c0-0.2,0-0.9-1-0.9s-1,0.7-1,0.9V91.9z"/>
	<path class="st1" d="M98,94h-4c-0.6,0-1-0.5-1-1v-4c0-1.8,1.2-3,3-3s3,1.2,3,3v4C99,93.5,98.6,94,98,94z M95,91.9h2V89
		c0-0.2,0-0.9-1-0.9s-1,0.7-1,0.9V91.9z"/>
	<path class="st1" d="M33,80h-4c-0.6,0-1-0.5-1-1v-4c0-1.8,1.2-3,3-3s3,1.2,3,3v4C34,79.5,33.6,80,33,80z M30,77.9h2V75
		c0-0.2,0-0.9-1-0.9s-1,0.7-1,0.9V77.9z"/>
	<path class="st1" d="M46,80h-4c-0.6,0-1-0.5-1-1v-4c0-1.8,1.2-3,3-3s3,1.2,3,3v4C47,79.5,46.6,80,46,80z M43,77.9h2V75
		c0-0.2,0-0.9-1-0.9s-1,0.7-1,0.9V77.9z"/>
	<path class="st1" d="M59,80h-4c-0.6,0-1-0.5-1-1v-4c0-1.8,1.2-3,3-3s3,1.2,3,3v4C60,79.5,59.6,80,59,80z M56,77.9h2V75
		c0-0.2,0-0.9-1-0.9s-1,0.7-1,0.9V77.9z"/>
	<path class="st1" d="M72,80h-4c-0.6,0-1-0.5-1-1v-4c0-1.8,1.2-3,3-3s3,1.2,3,3v4C73,79.5,72.6,80,72,80z M69,77.9h2V75
		c0-0.2,0-0.9-1-0.9s-1,0.7-1,0.9V77.9z"/>
	<path class="st1" d="M85,80h-4c-0.6,0-1-0.5-1-1v-4c0-1.8,1.2-3,3-3s3,1.2,3,3v4C86,79.5,85.6,80,85,80z M82,77.9h2V75
		c0-0.2,0-0.9-1-0.9s-1,0.7-1,0.9V77.9z"/>
	<path class="st1" d="M98,80h-4c-0.6,0-1-0.5-1-1v-4c0-1.8,1.2-3,3-3s3,1.2,3,3v4C99,79.5,98.6,80,98,80z M95,77.9h2V75
		c0-0.2,0-0.9-1-0.9s-1,0.7-1,0.9V77.9z"/>
	<path class="st1" d="M33,67h-4c-0.6,0-1-0.5-1-1v-4c0-1.8,1.2-3,3-3s3,1.2,3,3v4C34,66.5,33.6,67,33,67z M30,64.9h2V62
		c0-0.2,0-0.9-1-0.9s-1,0.7-1,0.9V64.9z"/>
	<path class="st1" d="M46,67h-4c-0.6,0-1-0.5-1-1v-4c0-1.8,1.2-3,3-3s3,1.2,3,3v4C47,66.5,46.6,67,46,67z M43,64.9h2V62
		c0-0.2,0-0.9-1-0.9s-1,0.7-1,0.9V64.9z"/>
	<path class="st1" d="M59,67h-4c-0.6,0-1-0.5-1-1v-4c0-1.8,1.2-3,3-3s3,1.2,3,3v4C60,66.5,59.6,67,59,67z M56,64.9h2V62
		c0-0.2,0-0.9-1-0.9s-1,0.7-1,0.9V64.9z"/>
	<path class="st1" d="M37,94c-0.6,0-1-0.4-1-1v-7c0-0.6,0.4-1,1-1s1,0.4,1,1v7C38,93.6,37.6,94,37,94z"/>
	<path class="st1" d="M50,94c-0.6,0-1-0.4-1-1v-7c0-0.6,0.4-1,1-1s1,0.4,1,1v7C51,93.6,50.6,94,50,94z"/>
	<path class="st1" d="M37,83c-0.6,0-1-0.4-1-1v-9c0-0.6,0.4-1,1-1s1,0.4,1,1v9C38,82.6,37.6,83,37,83z"/>
	<path class="st1" d="M63,83c-0.6,0-1-0.4-1-1v-9c0-0.6,0.4-1,1-1s1,0.4,1,1v9C64,82.6,63.6,83,63,83z"/>
	<path class="st1" d="M89,83c-0.6,0-1-0.4-1-1v-9c0-0.6,0.4-1,1-1s1,0.4,1,1v9C90,82.6,89.6,83,89,83z"/>
	<path class="st1" d="M76,83c-0.6,0-1-0.4-1-1v-9c0-0.6,0.4-1,1-1s1,0.4,1,1v9C77,82.6,76.6,83,76,83z"/>
	<path class="st1" d="M50,83c-0.6,0-1-0.4-1-1v-9c0-0.6,0.4-1,1-1s1,0.4,1,1v9C51,82.6,50.6,83,50,83z"/>
	<path class="st1" d="M63,94c-0.6,0-1-0.4-1-1v-7c0-0.6,0.4-1,1-1s1,0.4,1,1v7C64,93.6,63.6,94,63,94z"/>
	<path class="st1" d="M76,94c-0.6,0-1-0.4-1-1v-7c0-0.6,0.4-1,1-1s1,0.4,1,1v7C77,93.6,76.6,94,76,94z"/>
	<path class="st1" d="M89,94c-0.6,0-1-0.4-1-1v-7c0-0.6,0.4-1,1-1s1,0.4,1,1v7C90,93.6,89.6,94,89,94z"/>
	<path class="st1" d="M37,71c-0.6,0-1-0.4-1-1v-9c0-0.6,0.4-1,1-1s1,0.4,1,1v9C38,70.6,37.6,71,37,71z"/>
	<path class="st1" d="M50,71c-0.6,0-1-0.4-1-1v-9c0-0.6,0.4-1,1-1s1,0.4,1,1v9C51,70.6,50.6,71,50,71z"/>
	<path class="st1" d="M63,71c-0.6,0-1-0.4-1-1v-9c0-0.6,0.4-1,1-1s1,0.4,1,1v9C64,70.6,63.6,71,63,71z"/>
	<path class="st1" d="M37,57c-0.6,0-1-0.4-1-1v-8c0-0.6,0.4-1,1-1s1,0.4,1,1v8C38,56.6,37.6,57,37,57z"/>
	<path class="st1" d="M50,57c-0.6,0-1-0.4-1-1v-8c0-0.6,0.4-1,1-1s1,0.4,1,1v8C51,56.6,50.6,57,50,57z"/>
	<path class="st1" d="M63,57c-0.6,0-1-0.4-1-1v-8c0-0.6,0.4-1,1-1s1,0.4,1,1v8C64,56.6,63.6,57,63,57z"/>
	<path class="st5" d="M39,82c-0.6,0-1-0.4-1-1v-7c0-0.6,0.4-1,1-1s1,0.4,1,1v7C40,81.6,39.6,82,39,82z"/>
	<path class="st5" d="M52,82c-0.6,0-1-0.4-1-1v-7c0-0.6,0.4-1,1-1s1,0.4,1,1v7C53,81.6,52.6,82,52,82z"/>
	<path class="st5" d="M39,93c-0.6,0-1-0.4-1-1v-6c0-0.6,0.4-1,1-1s1,0.4,1,1v6C40,92.6,39.6,93,39,93z"/>
	<path class="st5" d="M52,93c-0.6,0-1-0.4-1-1v-6c0-0.6,0.4-1,1-1s1,0.4,1,1v6C53,92.6,52.6,93,52,93z"/>
	<path class="st5" d="M65,82c-0.6,0-1-0.4-1-1v-7c0-0.6,0.4-1,1-1c0.6,0,1,0.4,1,1v7C66,81.6,65.6,82,65,82z"/>
	<path class="st5" d="M78,82c-0.6,0-1-0.4-1-1v-7c0-0.6,0.4-1,1-1s1,0.4,1,1v7C79,81.6,78.6,82,78,82z"/>
	<path class="st5" d="M91,82c-0.6,0-1-0.4-1-1v-7c0-0.6,0.4-1,1-1s1,0.4,1,1v7C92,81.6,91.6,82,91,82z"/>
	<path class="st5" d="M39,69c-0.6,0-1-0.4-1-1v-7c0-0.6,0.4-1,1-1s1,0.4,1,1v7C40,68.6,39.6,69,39,69z"/>
	<path class="st5" d="M52,69c-0.6,0-1-0.4-1-1v-7c0-0.6,0.4-1,1-1s1,0.4,1,1v7C53,68.6,52.6,69,52,69z"/>
	<path class="st5" d="M65,69c-0.6,0-1-0.4-1-1v-7c0-0.6,0.4-1,1-1c0.6,0,1,0.4,1,1v7C66,68.6,65.6,69,65,69z"/>
	<path class="st5" d="M39,56c-0.6,0-1-0.4-1-1v-6c0-0.6,0.4-1,1-1s1,0.4,1,1v6C40,55.6,39.6,56,39,56z"/>
	<path class="st5" d="M52,56c-0.6,0-1-0.4-1-1v-6c0-0.6,0.4-1,1-1s1,0.4,1,1v6C53,55.6,52.6,56,52,56z"/>
	<path class="st5" d="M65,56c-0.6,0-1-0.4-1-1v-6c0-0.6,0.4-1,1-1c0.6,0,1,0.4,1,1v6C66,55.6,65.6,56,65,56z"/>
	<path class="st5" d="M65,93c-0.6,0-1-0.4-1-1v-6c0-0.6,0.4-1,1-1c0.6,0,1,0.4,1,1v6C66,92.6,65.6,93,65,93z"/>
	<path class="st5" d="M78,93c-0.6,0-1-0.4-1-1v-6c0-0.6,0.4-1,1-1s1,0.4,1,1v6C79,92.6,78.6,93,78,93z"/>
	<path class="st5" d="M91,93c-0.6,0-1-0.4-1-1v-6c0-0.6,0.4-1,1-1s1,0.4,1,1v6C92,92.6,91.6,93,91,93z"/>
	<path class="st5" d="M62,20c0-1.1-1.3-2-3-2H45.1c-1.7,0-3,0.9-3,2s-1.1,2-2.5,2c-1.4,0-2.5,0.9-2.5,2s1.3,2,3,2h10
		c1.7,0,3-0.9,3-2s1.3-2,3-2h3C60.7,22,62,21.1,62,20z"/>
	<path class="st5" d="M115,46c0-1.1-1-2-2.3-2H111c-1.2,0-2-1-2-2c0-1-1.4-2-2.7-2h-13c-1.2,0-2.4,1-2.4,2c0,1-0.9,2-2.1,2h-2.3
		c-1.2,0-2.6,0.9-2.6,2c0,1.1,1.4,2,2.6,2H93c1.2,0,2,1.1,2,2s-0.8,1-2,1h-1c-1.2,0-2,0.9-2,2c0,1.1,0.6,2,1.9,2h6.2
		c1.2,0,1.9-1,1.9-2c0-1,1.8-2,3-2h1c1.2,0,2-1,2-2c0-1,1.8-1,3-1h3.7C114,48,115,47.1,115,46z"/>
	<circle class="st2" cx="88" cy="26" r="9"/>
	<path class="st5" d="M53.3,108.1c0-0.4-0.4-0.8-1-0.9l-1.9-0.3c-0.5-0.1-1.1-0.6-1.1-1.1L49,104c-0.1-0.5-0.5-1-0.9-1
		c-0.4,0-0.8,0.4-0.9,1l-0.3,1.9c-0.1,0.5-0.6,1.1-1.1,1.1l-1.9,0.3c-0.5,0.1-1,0.5-1,0.9c0,0.4,0.4,0.8,1,0.9l1.9,0.3
		c0.5,0.1,1.1,0.6,1.1,1.1l0.3,1.9c0.1,0.5,0.5,1,0.9,1c0.4,0,0.8-0.4,0.9-1l0.3-2.1c0.1-0.5,0.6-1,1.1-1.1l1.8-0.1
		C52.8,108.9,53.3,108.5,53.3,108.1z"/>
	<path class="st5" d="M16.3,64.1c0-0.4-0.4-0.8-1-0.9L13.4,63c-0.5-0.1-1.1-0.6-1.1-1.1L12,60c-0.1-0.5-0.5-1-0.9-1
		c-0.4,0-0.8,0.4-0.9,1L10,61.8c-0.1,0.5-0.6,1.1-1.1,1.1L7,63.3c-0.5,0.1-1,0.5-1,0.9c0,0.4,0.4,0.8,1,0.9l1.9,0.3
		c0.5,0.1,1.1,0.6,1.1,1.1l0.3,1.9c0.1,0.5,0.5,1,0.9,1c0.4,0,0.8-0.4,0.9-1l0.3-2.1c0.1-0.5,0.6-1,1.1-1.1l1.8-0.1
		C15.8,64.9,16.3,64.5,16.3,64.1z"/>
	<path class="st5" d="M78,114c-2.2,0-4-1.8-4-4c0-2.2,1.8-4,4-4c2.2,0,4,1.8,4,4C82,112.2,80.2,114,78,114z M78,107.9
		c-1.2,0-2.1,1-2.1,2.1c0,1.2,1,2.1,2.1,2.1c1.2,0,2.1-1,2.1-2.1C80.1,108.8,79.2,107.9,78,107.9z"/>
	<path class="st5" d="M114,67c-2.2,0-4-1.8-4-4c0-2.2,1.8-4,4-4c2.2,0,4,1.8,4,4C118,65.2,116.2,67,114,67z M114,60.9
		c-1.2,0-2.1,1-2.1,2.1c0,1.2,1,2.1,2.1,2.1s2.1-1,2.1-2.1C116.1,61.8,115.2,60.9,114,60.9z"/>
</g>
</svg>
