<?xml version="1.0" encoding="utf-8"?>
<!-- Generator: Adobe Illustrator 21.0.2, SVG Export Plug-In . SVG Version: 6.00 Build 0)  -->
<svg version="1.1" id="magicball" xmlns="http://www.w3.org/2000/svg" xmlns:xlink="http://www.w3.org/1999/xlink" x="0px" y="0px"
	 viewBox="0 0 128 128" style="enable-background:new 0 0 128 128;" xml:space="preserve">
<style type="text/css">
	.st0{fill:#D3D1D1;}
	.st1{fill:#074370;}
	.st2{fill:#415E6D;}
	.st3{fill:#324D5B;}
	.st4{opacity:0.5;fill:#FFFFFF;}
	.st5{fill:#3AD0F9;}
	.st6{fill:#FFFFFF;}
</style>
<g>
	<circle class="st0" cx="64" cy="64" r="64"/>
	<path class="st1" d="M115.2,115H98c-0.6,0-1-0.4-1-1s0.4-1,1-1h17.2c0.6,0,1,0.4,1,1S115.7,115,115.2,115z"/>
	<path class="st1" d="M90,115H12.1c-0.6,0-1-0.4-1-1s0.4-1,1-1H90c0.6,0,1,0.4,1,1S90.6,115,90,115z"/>
	<circle class="st2" cx="63.8" cy="64.3" r="49.3"/>
	<path class="st3" d="M63.8,99C39,99,18.5,80.7,15,57c-0.4,2.4-0.5,4.8-0.5,7.3c0,27.2,22.1,49.3,49.3,49.3s49.3-22.1,49.3-49.3
		c0-2.5-0.2-4.9-0.5-7.3C109,80.7,88.5,99,63.8,99z"/>
	<path class="st1" d="M63.8,115c-13.4,0-26-5.3-35.3-14.8C19.1,90.6,14,77.9,14,64.3C14,36.1,35.9,14,63.8,14
		C91.5,14,114,36.6,114,64.3C114,92.3,91.5,115,63.8,115z M63.8,16C37,16,16,37.2,16,64.3c0,13,4.9,25.3,13.9,34.4
		c9,9.2,21,14.2,33.9,14.2c26.6,0,48.2-21.8,48.2-48.6C112,37.7,90.4,16,63.8,16z"/>
	<path class="st4" d="M107.4,65.3c-0.6,0-1-0.4-1-1c0-15.9-8.8-30.4-22.9-37.8c-0.5-0.3-0.7-0.9-0.4-1.4c0.3-0.5,0.9-0.7,1.4-0.4
		c14.8,7.7,23.9,22.9,23.9,39.6C108.4,64.8,108,65.3,107.4,65.3z"/>
	<path class="st4" d="M36.7,31c-0.3,0-0.6-0.1-0.8-0.4c-0.3-0.4-0.3-1.1,0.2-1.4c7.9-6.3,17.5-9.6,27.7-9.6c0.6,0,1,0.4,1,1
		c0,0.6-0.4,1-1,1c-9.7,0-18.8,3.2-26.4,9.2C37.2,30.9,36.9,31,36.7,31z"/>
	<path class="st4" d="M20.1,65.3c-0.6,0-1-0.4-1-1c0-9,2.6-17.6,7.6-25c0.3-0.5,0.9-0.6,1.4-0.3c0.5,0.3,0.6,0.9,0.3,1.4
		c-4.8,7.1-7.3,15.3-7.3,23.9C21.1,64.8,20.6,65.3,20.1,65.3z"/>
	<circle class="st3" cx="63.8" cy="64.3" r="19"/>
	<path class="st1" d="M63.8,84C52.9,84,44,75,44,64c0-11,8.9-20,19.8-20C74.5,44,83,52.8,83,64C83,75.2,74.5,84,63.8,84z M63.8,46
		C54,46,46,54.1,46,64c0,10.1,7.8,18,17.8,18C73.4,82,81,74.1,81,64C81,53.9,73.4,46,63.8,46z"/>
	<path class="st5" d="M55.6,55.4c-4.4,0-6.2,3.1-4,6.9l8.2,14.2c2.2,3.8,5.8,3.8,8,0l8.2-14.2c2.2-3.8,0.4-6.9-4-6.9H55.6z"/>
	<path class="st1" d="M64,80c-1.9,0-3.6-1.2-4.8-3.4l-8.1-14.2c-1.2-2.2-1.4-4.2-0.5-5.9c0.9-1.6,2.8-2.5,5.3-2.5h16.2
		c2.5,0,4.4,0.9,5.3,2.5c0.9,1.6,0.8,3.7-0.5,5.9l-8.1,14.2C67.6,78.8,65.9,80,64,80z M55.9,56c-1.7,0-3,0.5-3.6,1.5
		c-0.6,1-0.4,2.4,0.5,3.9l8.1,14.2c0.9,1.5,2,2.4,3.1,2.4c1.1,0,2.2-0.8,3.1-2.4l8.1-14.2c0.9-1.5,1-2.9,0.5-3.9
		c-0.6-1-1.8-1.5-3.6-1.5H55.9z"/>
	<path class="st1" d="M57.9,67.6c-0.6,0-1-0.4-1-1v-2.9L55.2,62c-0.4-0.4-0.4-1,0-1.4c0.4-0.4,1-0.4,1.4,0l2,2
		c0.2,0.2,0.3,0.4,0.3,0.7v3.3C58.9,67.2,58.5,67.6,57.9,67.6z"/>
	<path class="st1" d="M57.9,64.3c-0.3,0-0.5-0.1-0.7-0.3c-0.4-0.4-0.3-1,0.1-1.4l2.2-2c0.4-0.4,1-0.3,1.4,0.1c0.4,0.4,0.3,1-0.1,1.4
		l-2.2,2C58.4,64.2,58.1,64.3,57.9,64.3z"/>
	<path class="st1" d="M65,67.6h-2.8c-0.6,0-1-0.4-1-1v-5.4c0-0.6,0.4-1,1-1h2.5c0.6,0,1,0.4,1,1c0,0.6-0.4,1-1,1h-1.5v3.4H65
		c0.6,0,1,0.4,1,1C66,67.1,65.5,67.6,65,67.6z"/>
	<path class="st1" d="M64.8,64.9h-2c-0.6,0-1-0.4-1-1c0-0.6,0.4-1,1-1h2c0.6,0,1,0.4,1,1C65.8,64.4,65.3,64.9,64.8,64.9z"/>
	<path class="st1" d="M69.2,67.4c-1,0-2.1-0.5-2.4-0.6c-0.5-0.2-0.7-0.8-0.5-1.3c0.2-0.5,0.8-0.7,1.3-0.5c0.6,0.3,1.5,0.5,1.7,0.4
		c0-0.1,0-0.2,0-0.2l0,0c0,0-0.1-0.2-0.8-0.5c-1.1-0.4-1.9-1.3-2-2.3c-0.1-0.7,0.1-1.4,0.7-1.9c1.2-1,2.7-0.3,3.5,0.2
		c0.4,0.3,0.5,1,0.2,1.4c-0.3,0.4-0.9,0.5-1.4,0.2c-0.3-0.2-0.9-0.4-1-0.3c-0.1,0.1,0.1,0.6,0.8,0.8c1,0.4,1.7,1,1.9,1.7
		c0.1,0.4,0.2,1.1-0.3,1.9C70.6,67.2,69.9,67.4,69.2,67.4z"/>
	<path class="st4" d="M63.8,89c-13.8,0-25-11.1-25-24.7c0-0.5,0.4-1,1-1c0.6,0,1,0.4,1,1c0,12.5,10.3,22.7,23,22.7
		c6.1,0,11.8-2.3,16.1-6.5c0.4-0.4,1-0.4,1.4,0c0.4,0.4,0.4,1,0,1.4C76.6,86.5,70.4,89,63.8,89z"/>
	<path class="st4" d="M84.9,76.2c-0.1,0-0.3,0-0.4-0.1c-0.4-0.3-0.6-0.9-0.4-1.3c1.4-3.3,2.2-6.8,2.2-10.5c0-0.6,0.4-1,0.9-1
		c0.5,0,0.9,0.4,0.9,1c0,4-0.8,7.8-2.4,11.4C85.5,76,85.2,76.2,84.9,76.2z"/>
	<path class="st4" d="M95,21c-2.2,0-4-1.8-4-4c0-2.2,1.8-4,4-4c2.2,0,4,1.8,4,4C99,19.2,97.2,21,95,21z M95,14.9
		c-1.2,0-2.1,1-2.1,2.1c0,1.2,1,2.1,2.1,2.1c1.2,0,2.1-1,2.1-2.1C97.1,15.8,96.2,14.9,95,14.9z"/>
	<path class="st4" d="M22.4,97.5c0-0.4-0.4-0.8-1-0.9l-1.9-0.3c-0.5-0.1-1.1-0.6-1.1-1.1l-0.3-1.9c-0.1-0.5-0.5-1-0.9-1
		s-0.8,0.4-0.9,1l-0.3,1.9c-0.1,0.5-0.6,1.1-1.1,1.1l-1.9,0.3c-0.5,0.1-1,0.5-1,0.9c0,0.4,0.4,0.8,1,0.9l1.9,0.3
		c0.5,0.1,1.1,0.6,1.1,1.1l0.3,1.9c0.1,0.5,0.5,1,0.9,1s0.8-0.4,0.8-1l0.3-2.1c0.1-0.5,0.6-1,1.1-1.1l1.8-0.1
		C21.9,98.3,22.4,97.9,22.4,97.5z"/>
	<path class="st6" d="M83.9,22c0-0.4-0.4-0.8-1-0.9l-4.8-0.8c-0.5-0.1-1.1-0.6-1.2-1.2l-0.8-4.8c-0.1-0.5-0.5-1-0.9-1
		c-0.4,0-0.8,0.4-0.9,1L73.4,19c-0.1,0.5-0.6,1.1-1.2,1.2L67.5,21c-0.5,0.1-1,0.5-1,0.9c0,0.4,0.4,0.8,1,0.9l4.7,0.6
		c0.5,0.1,1.1,0.6,1.2,1.1l0.9,5c0.1,0.5,0.5,1,0.9,1c0.4,0,0.8-0.4,0.9-1l0.9-5.1c0.1-0.5,0.6-1,1.2-1.1l4.7-0.6
		C83.4,22.8,83.9,22.4,83.9,22z"/>
</g>
</svg>
