<?xml version="1.0" encoding="utf-8"?>
<!-- Generator: Adobe Illustrator 21.0.2, SVG Export Plug-In . SVG Version: 6.00 Build 0)  -->
<svg version="1.1" id="match" xmlns="http://www.w3.org/2000/svg" xmlns:xlink="http://www.w3.org/1999/xlink" x="0px" y="0px"
	 viewBox="0 0 128 128" style="enable-background:new 0 0 128 128;" xml:space="preserve">
<style type="text/css">
	.st0{fill:#28A5C6;}
	.st1{fill:#FBD000;}
	.st2{fill:#F4B10B;}
	.st3{opacity:0.5;fill:#FFFFFF;}
	.st4{fill:#0C508E;}
	.st5{fill:#F74541;}
	.st6{fill:#F99900;}
	.st7{fill:#094470;}
</style>
<g>
	<circle class="st0" cx="64" cy="64.1" r="64"/>
	<path class="st1" d="M18.3,108.9c2.5,2.5,5.1,4.8,8,6.9l38.6-36.1L57.7,72L18.3,108.9z"/>
	<path class="st2" d="M22.8,113.1c1.1,0.9,2.2,1.8,3.4,2.7l35.9-33.6l-2.9-3.1L22.8,113.1z"/>
	<path class="st3" d="M44.8,87.1l-24.9,23.3c0.5,0.5,1,0.9,1.5,1.4l24.8-23.2c0.4-0.4,0.4-1,0-1.4C45.8,86.7,45.2,86.7,44.8,87.1z"
		/>
	<path class="st4" d="M58.4,71.4c-0.4-0.4-1-0.4-1.4,0l-39.4,36.8c0.5,0.5,0.9,1,1.4,1.4l38.6-36.1l5.8,6.2l-38,35.5
		c0.5,0.4,1.1,0.8,1.7,1.2l38.4-35.9c0.2-0.2,0.3-0.4,0.3-0.7c0-0.3-0.1-0.5-0.3-0.7L58.4,71.4z"/>
	<path class="st5" d="M89.7,61.9c0-22.4-24.2-41-24.2-41s-24.2,18.6-24.2,41c0,13.3,10.8,26.5,24.2,26.5
		C78.9,88.4,89.7,75.2,89.7,61.9z"/>
	<path class="st6" d="M81,71.5c0-14.6-15.5-26.7-15.5-26.7S50,56.9,50,71.5c0,8.7,6.9,17.3,15.5,17.3C74.1,88.8,81,80.2,81,71.5z"/>
	<path class="st4" d="M65.5,89.8C51.9,89.8,40,76.8,40,62.1c0-11.9,6.8-22.7,12.5-29.7c6.1-7.5,12.2-12.2,12.4-12.4
		c0.4-0.3,0.9-0.3,1.2,0c0.3,0.2,6.3,4.8,12.4,12.4c5.7,7,12.5,17.8,12.5,29.7C91,76.8,79.1,89.8,65.5,89.8z M65.5,22.1
		C61.7,25.2,42,42.3,42,62.1c0,13.4,11.2,25.7,23.5,25.7C77.8,87.8,89,75.5,89,62.1C89,42.3,69.3,25.2,65.5,22.1z"/>
	<path class="st4" d="M74.8,62.5c-3.9-4.3-11.7-3.3-17.4,2.1c-5.7,5.4-7.1,13.3-3.2,17.6c3.9,4.3,11.7,3.3,17.4-2.1
		C77.3,74.6,78.7,66.7,74.8,62.5z"/>
	<path class="st7" d="M71.9,74.5c-5.7,5.5-13.6,6.4-17.6,2.1c-0.9-1-1.5-2.2-1.9-3.6c-0.8,3.4-0.2,6.7,1.9,9
		c4,4.3,11.8,3.4,17.6-2.1c4.4-4.2,6.3-9.8,5.1-14.2C76.3,68.8,74.6,71.9,71.9,74.5z"/>
	<path class="st3" d="M18.1,49.9c-2.2,0-4.1-1.8-4.1-4.1c0-2.2,1.8-4.1,4.1-4.1c2.2,0,4.1,1.8,4.1,4.1
		C22.2,48.1,20.4,49.9,18.1,49.9z M18.1,43.7c-1.2,0-2.2,1-2.2,2.2c0,1.2,1,2.2,2.2,2.2c1.2,0,2.2-1,2.2-2.2
		C20.3,44.7,19.3,43.7,18.1,43.7z"/>
	<path class="st3" d="M96.1,95.9c-2.2,0-4.1-1.8-4.1-4.1c0-2.2,1.8-4.1,4.1-4.1c2.2,0,4.1,1.8,4.1,4.1
		C100.2,94.1,98.4,95.9,96.1,95.9z M96.1,89.7c-1.2,0-2.2,1-2.2,2.2c0,1.2,1,2.2,2.2,2.2c1.2,0,2.2-1,2.2-2.2
		C98.3,90.7,97.3,89.7,96.1,89.7z"/>
	<path class="st3" d="M102,41.9c-2.2,0-4-1.8-4-4.1c0-2.2,1.8-4.1,4-4.1c2.2,0,4,1.8,4,4.1C106,40.1,104.2,41.9,102,41.9z M102,35.7
		c-1.2,0-2.1,1-2.1,2.2c0,1.2,1,2.2,2.1,2.2c1.2,0,2.1-1,2.1-2.2C104.1,36.7,103.2,35.7,102,35.7z"/>
	<path class="st3" d="M17.2,76.7c0-0.4,0.4-0.8,1-0.9l1.9-0.3c0.5-0.1,1.1-0.6,1.1-1.1l0.3-1.9c0.1-0.5,0.5-1,0.9-1
		c0.4,0,0.8,0.4,0.9,1l0.3,1.9c0.1,0.5,0.6,1.1,1.1,1.1l1.9,0.3c0.5,0.1,1,0.5,1,0.9c0,0.4-0.4,0.8-1,0.9l-1.9,0.3
		c-0.5,0.1-1.1,0.6-1.1,1.1l-0.3,1.9c-0.1,0.5-0.5,1-0.9,1c-0.4,0-0.8-0.4-0.8-1l-0.3-2.1c-0.1-0.5-0.6-1-1.1-1.1l-1.8-0.1
		C17.7,77.4,17.2,77.1,17.2,76.7z"/>
	<path class="st3" d="M106.2,65.9c0-0.4,0.4-0.8,1-0.9l1.9-0.3c0.5-0.1,1.1-0.6,1.1-1.1l0.3-1.9c0.1-0.5,0.5-1,0.9-1
		c0.4,0,0.8,0.4,0.9,1l0.3,1.9c0.1,0.5,0.6,1.1,1.1,1.1l1.9,0.3c0.5,0.1,1,0.5,1,0.9s-0.4,0.8-1,0.9l-1.9,0.3
		c-0.5,0.1-1.1,0.6-1.1,1.1l-0.3,1.9c-0.1,0.5-0.5,1-0.9,1c-0.4,0-0.8-0.4-0.9-1l-0.3-2.1c-0.1-0.5-0.6-1-1.1-1.1l-1.8-0.1
		C106.6,66.6,106.2,66.3,106.2,65.9z"/>
	<path class="st3" d="M58.2,110.1c0-0.4,0.4-0.8,1-0.9l1.9-0.3c0.5-0.1,1.1-0.6,1.1-1.1l0.3-1.9c0.1-0.5,0.5-1,0.9-1
		c0.4,0,0.8,0.4,0.9,1l0.3,1.9c0.1,0.5,0.6,1.1,1.1,1.1l1.9,0.3c0.5,0.1,1,0.5,1,0.9c0,0.4-0.4,0.8-1,0.9l-1.9,0.3
		c-0.5,0.1-1.1,0.6-1.1,1.1l-0.3,1.9c-0.1,0.5-0.5,1-0.9,1c-0.4,0-0.8-0.4-0.9-1l-0.3-2.1c-0.1-0.5-0.6-1-1.1-1.1l-1.8-0.1
		C58.6,110.8,58.2,110.5,58.2,110.1z"/>
	<path class="st3" d="M73.2,17.4c0-0.4,0.4-0.8,1-0.9l1.9-0.3c0.5-0.1,1.1-0.6,1.1-1.1l0.3-1.9c0.1-0.5,0.5-1,0.9-1s0.8,0.4,0.9,1
		l0.3,1.9c0.1,0.5,0.6,1.1,1.1,1.1l1.9,0.3c0.5,0.1,1,0.5,1,0.9c0,0.4-0.4,0.8-1,0.9l-1.9,0.3c-0.5,0.1-1.1,0.6-1.1,1.1l-0.3,1.9
		c-0.1,0.5-0.5,1-0.9,1s-0.8-0.4-0.9-1l-0.3-2.1c-0.1-0.5-0.6-1-1.1-1.1l-1.8-0.1C73.6,18.1,73.2,17.8,73.2,17.4z"/>
	<path class="st3" d="M37.2,25.4c0-0.4,0.4-0.8,1-0.9l1.9-0.3c0.5-0.1,1.1-0.6,1.1-1.1l0.3-1.9c0.1-0.5,0.5-1,0.9-1
		c0.4,0,0.8,0.4,0.9,1l0.3,1.9c0.1,0.5,0.6,1.1,1.1,1.1l1.9,0.3c0.5,0.1,1,0.5,1,0.9c0,0.4-0.4,0.8-1,0.9l-1.9,0.3
		c-0.5,0.1-1.1,0.6-1.1,1.1l-0.3,1.9c-0.1,0.5-0.5,1-0.9,1c-0.4,0-0.8-0.4-0.9-1l-0.3-2.1c-0.1-0.5-0.6-1-1.1-1.1l-1.8-0.1
		C37.6,26.1,37.2,25.8,37.2,25.4z"/>
	<path class="st3" d="M58.1,70.8c-0.2,0-0.4,0-0.5-0.1c-0.5-0.3-0.6-0.8-0.3-1.3c0.2-0.2,4.1-5.9,10.7-6.6c0.6-0.1,1,0.3,1.1,0.8
		c0.1,0.5-0.3,1-0.9,1c-5.7,0.6-9.2,5.7-9.2,5.7C58.7,70.6,58.4,70.8,58.1,70.8z"/>
	<path class="st3" d="M84,60.8c-0.5,0-1-0.4-1-1C83,55.1,81,49.6,77.2,43.4C76.9,43,77,42.3,77.5,42c0.5-0.3,1.1-0.2,1.4,0.3
		c4,6.5,6.1,12.4,6.2,17.4C85,60.3,84.6,60.8,84,60.8C84,60.8,84,60.8,84,60.8z"/>
	<path class="st3" d="M73.2,37.9c-0.3,0-0.6-0.1-0.8-0.4c-3.2-4.2-6-7-6.1-7c-0.4-0.4-0.4-1,0-1.4c0.4-0.4,1-0.4,1.4,0
		c0.1,0.1,2.9,2.9,6.2,7.2c0.3,0.4,0.3,1.1-0.2,1.4C73.7,37.9,73.4,37.9,73.2,37.9z"/>
</g>
</svg>
