<?xml version="1.0" encoding="utf-8"?>
<!-- Generator: Adobe Illustrator 21.0.2, SVG Export Plug-In . SVG Version: 6.00 Build 0)  -->
<svg version="1.1" id="microscope" xmlns="http://www.w3.org/2000/svg" xmlns:xlink="http://www.w3.org/1999/xlink" x="0px" y="0px"
	 viewBox="0 0 128 128" style="enable-background:new 0 0 128 128;" xml:space="preserve">
<style type="text/css">
	.st0{fill:#28A5C6;}
	.st1{fill:#EAEAEA;}
	.st2{fill:#D4D6D6;}
	.st3{fill:#7C4119;}
	.st4{fill:#FBD000;}
	.st5{fill:#FFFFFF;}
	.st6{opacity:0.5;fill:#FFFFFF;enable-background:new    ;}
</style>
<g>
	<circle class="st0" cx="64" cy="64" r="64"/>
	<rect x="86.6" y="63.6" transform="matrix(0.8111 -0.5849 0.5849 0.8111 -22.149 66.2838)" class="st1" width="9.9" height="7.6"/>
	<rect x="87.8" y="65.4" transform="matrix(0.8115 -0.5844 0.5844 0.8115 -23.5114 65.5433)" class="st2" width="4" height="7.6"/>
	<rect x="51.8" y="18" transform="matrix(0.8113 -0.5846 0.5846 0.8113 -1.7585 38.088)" class="st1" width="12.6" height="7.6"/>
	<path class="st3" d="M89.8,75c-0.3,0-0.6-0.1-0.8-0.4l-4.4-6.4c-0.2-0.2-0.2-0.5-0.2-0.7c0-0.3,0.2-0.5,0.4-0.7l8.2-6
		c0.4-0.3,1.1-0.2,1.4,0.2l4.4,6.4C99,67.5,99,67.8,99,68c0,0.3-0.2,0.5-0.4,0.7l-8.3,6C90.2,74.9,90,75,89.8,75z M86.7,67.8
		l3.3,4.7l6.4-4.8L93.2,63L86.7,67.8z"/>
	<rect x="52.6" y="20.5" transform="matrix(0.8114 -0.5845 0.5845 0.8114 -3.887 36.5047)" class="st2" width="4" height="7.6"/>
	<path class="st3" d="M55.3,29.5c-0.3,0-0.6-0.1-0.8-0.4L50.2,23C50,22.8,50,22.5,50,22.3c0-0.3,0.2-0.5,0.4-0.7l10-7.4
		c0.2-0.2,0.5-0.2,0.7-0.2c0.3,0,0.5,0.2,0.7,0.4l4.3,6.1c0.2,0.2,0.2,0.5,0.2,0.7c0,0.3-0.2,0.5-0.4,0.7l-10.1,7.3
		C55.7,29.4,55.5,29.5,55.3,29.5z M52.3,22.6l3.3,4.5l8.5-6.2l-3.3-4.5L52.3,22.6z"/>
	<polygon class="st1" points="81.3,70.3 52.4,30.5 68.7,18.8 97.6,58.6 	"/>
	<path class="st4" d="M99.6,86.2c-0.8,11-7.4,22.5-17.6,28.5c-5.5,3.2-11.8,4.9-18.1,4.9c-19.8,0-35.9-16.1-35.9-35.9
		s16.1-35.9,35.9-35.9c2.1,0,3.8-1.7,3.8-3.8c0-2.1-1.7-3.8-3.8-3.8c-24,0-43.6,19.5-43.6,43.6c0,24,19.5,43.6,43.6,43.6
		c7.8,0,15.4-2,22-5.9c12.6-7.4,20.6-21.1,21.4-35.1h-7.7V86.2z"/>
	<path class="st4" d="M28,83.8c0-2.2,0.2-4.4,0.6-6.6c-1.1-0.5-2.3-0.8-3.7-0.8c-1.5,0-3,0.4-4.2,1.1c-0.3,2-0.5,4.1-0.5,6.2
		c0,3.2,0.4,6.4,1,9.4c1.1,0.5,2.3,0.8,3.6,0.8c1.5,0,3-0.4,4.2-1.1C28.4,90,28,86.9,28,83.8z"/>
	<path class="st4" d="M98.2,94h8c0.6-2.5,1-5,1.1-7.5h-7.7C99.4,89,98.9,91.5,98.2,94z"/>
	<path class="st4" d="M51.8,43.8c0,2.1,0.7,4,1.9,5.5c3.2-0.9,6.6-1.4,10.1-1.4c2.1,0,3.8-1.7,3.8-3.9c0-2.1-1.7-3.9-3.8-3.9
		c-4.1,0-8,0.6-11.8,1.6C51.9,42.5,51.8,43.1,51.8,43.8z"/>
	<path class="st3" d="M63.8,128c-24.6,0-44.6-19.9-44.6-44.4c0.1-24.4,20.1-44.3,44.6-44.3c2.7,0,4.8,2.2,4.8,4.8
		c0,2.7-2.2,4.8-4.8,4.8C44.6,48.9,29,64.4,29,83.6c0,19.1,15.6,34.8,34.9,34.8c6.2,0,12.3-1.6,17.6-4.8
		c9.6-5.6,16.3-16.4,17.2-27.6c0-0.5,0.5-0.9,1-0.9h7.7c0.3,0,0.5,0.1,0.7,0.3c0.2,0.2,0.3,0.5,0.3,0.7
		c-0.9,14.6-9.3,28.4-21.9,35.8C79.6,125.9,71.8,128,63.8,128z M63.8,41.2c-23.5,0-42.6,19-42.6,42.5s19.1,42.5,42.6,42.5
		c7.6,0,15.1-2,21.5-5.8c11.8-6.9,19.7-19.5,20.9-33.2h-5.7c-1.2,11.5-8.2,22.5-18.1,28.3c-5.6,3.3-12.1,5-18.6,5
		c-20.3,0-36.9-16.4-36.9-36.8c0-20.2,16.5-36.8,36.9-36.8c1.6,0,2.8-1.3,2.8-2.8C66.7,42.4,65.4,41.2,63.8,41.2z"/>
	<path class="st4" d="M118.2,87.2c0,2.1-1.8,4-4,4H88.9c-2.2,0-4-1.9-4-4s1.8-4,4-4h25.3C116.4,83.2,118.2,85.1,118.2,87.2z"/>
	<path class="st4" d="M100,123.2c0,2.2-1.8,4-4,4H33c-2.2,0-4-1.8-4-4v-2c0-2.2,1.8-4,4-4h63c2.2,0,4,1.8,4,4V123.2z"/>
	<path class="st4" d="M96.8,123.2h-63c-1.9,0-3.4-2-3.9-3.7c-0.1,0.3-0.1,0.7-0.1,1v2c0,2.2,1.8,4,4,4h63c2.2,0,4-1.8,4-4v-2
		c0-0.3-0.1-0.7-0.1-1C100.2,121.2,98.6,123.2,96.8,123.2z"/>
	<path class="st3" d="M96,128H33c-2.8,0-5-2.2-5-5v-2c0-2.8,2.2-5,5-5h63c2.8,0,5,2.2,5,5v2C101,125.8,98.8,128,96,128z M33,118
		c-1.7,0-3,1.3-3,3v2c0,1.7,1.3,3,3,3h63c1.7,0,3-1.3,3-3v-2c0-1.7-1.3-3-3-3H33z"/>
	<polygon class="st2" points="56.7,27.4 52.4,30.5 81.3,70.3 85.7,67.2 	"/>
	<circle class="st4" cx="23.9" cy="81.2" r="8.8"/>
	<path class="st3" d="M80.9,71c-0.3,0-0.6-0.1-0.8-0.4L51.2,31C51,30.8,51,30.5,51,30.3c0-0.3,0.2-0.5,0.4-0.7L67.6,18
		c0.4-0.3,1.1-0.2,1.4,0.2l28.8,39.6C98,58,98,58.3,98,58.5c0,0.3-0.2,0.5-0.4,0.7L81.5,70.9C81.3,71,81.1,71,80.9,71z M53.5,30.7
		l27.7,38l14.6-10.5L68,20.2L53.5,30.7z"/>
	<circle class="st4" cx="63.6" cy="42.8" r="8.8"/>
	<circle class="st5" cx="23.9" cy="81.2" r="3.6"/>
	<path class="st3" d="M23.9,85.8c-2.6,0-4.6-2.1-4.6-4.6c0-2.6,2.1-4.6,4.6-4.6c2.6,0,4.6,2.1,4.6,4.6
		C28.6,83.7,26.5,85.8,23.9,85.8z M23.9,78.5c-1.4,0-2.6,1.2-2.6,2.6c0,1.4,1.2,2.6,2.6,2.6s2.6-1.2,2.6-2.6
		C26.6,79.7,25.4,78.5,23.9,78.5z"/>
	<circle class="st5" cx="63.7" cy="42.7" r="3.6"/>
	<path class="st3" d="M63.5,47c-2.5,0-4.5-2-4.5-4.4c0-2.5,2-4.4,4.5-4.4c2.5,0,4.5,2,4.5,4.4C68,45.1,66,47,63.5,47z M63.5,40
		c-1.5,0-2.5,1.2-2.5,2.5c0,1.4,1.2,2.5,2.5,2.5s2.5-1.2,2.5-2.5C66.1,41.2,64.9,40,63.5,40z"/>
	<path class="st3" d="M24,91c-5.5,0-10-4.5-10-10s4.5-10,10-10s10,4.5,10,10S29.5,91,24,91z M24,73.1c-4.4,0-8,3.6-8,8
		c0,4.4,3.6,8,8,8s8-3.6,8-8C32,76.7,28.4,73.1,24,73.1z"/>
	<path class="st3" d="M63.5,52c-5.2,0-9.5-4.3-9.5-9.5c0-5.2,4.3-9.5,9.5-9.5s9.5,4.3,9.5,9.5C72.9,47.7,68.7,52,63.5,52z M63.5,35
		c-4.2,0-7.6,3.4-7.6,7.6s3.4,7.6,7.6,7.6s7.6-3.4,7.6-7.6C71,38.4,67.7,35,63.5,35z"/>
	<path class="st4" d="M114.2,87.2H88.9c-1.6,0-3-0.4-3.6-1.7c-0.2,0.4-0.4,0.9-0.4,1.5c0,2.1,1.8,3.5,4,3.5h25.3c2.2,0,4-1.4,4-3.5
		c0-0.6-0.1-1.1-0.4-1.5C117.2,86.8,115.8,87.2,114.2,87.2z"/>
	<path class="st3" d="M114,92.2H89c-2.7,0-5-2.3-5-5c0-2.7,2.3-5,5-5H114c2.7,0,5,2.3,5,5C119,89.9,116.7,92.2,114,92.2z M89,84.2
		c-1.6,0-3,1.4-3,3s1.4,3,3,3H114c1.6,0,3-1.4,3-3s-1.4-3-3-3H89z"/>
	<path class="st5" d="M91,58c-0.3,0-0.6-0.1-0.8-0.4L74.4,35.8c-0.3-0.4-0.2-1.1,0.2-1.4c0.4-0.3,1.1-0.2,1.4,0.2l15.8,21.8
		c0.3,0.4,0.2,1.1-0.2,1.4C91.4,58,91.2,58,91,58z"/>
	<path class="st5" d="M71.9,31.5c-0.3,0-0.6-0.1-0.8-0.4l-3.6-5c-0.3-0.4-0.2-1.1,0.2-1.4c0.4-0.3,1.1-0.2,1.4,0.2l3.6,5
		c0.3,0.4,0.2,1.1-0.2,1.4C72.3,31.5,72.1,31.5,71.9,31.5z"/>
	<path class="st5" d="M60.8,22.1c-0.3,0-0.6-0.1-0.8-0.4l-1.3-1.8c-0.3-0.4-0.2-1.1,0.2-1.4c0.4-0.3,1.1-0.2,1.4,0.2l1.3,1.8
		c0.3,0.4,0.2,1.1-0.2,1.4C61.2,22,61,22.1,60.8,22.1z"/>
	<path class="st5" d="M114,87H95.9c-0.6,0-1-0.4-1-1s0.4-1,1-1H114c0.6,0,1,0.4,1,1S114.6,87,114,87z"/>
	<path class="st5" d="M27.7,87.1c-0.3,0-0.6-0.1-0.8-0.4c-0.3-0.4-0.2-1.1,0.2-1.4c1.3-1,2.1-2.5,2.1-4.1c0-1.7-0.9-3.4-2.3-4.3
		c-0.5-0.3-0.6-0.9-0.3-1.4c0.3-0.5,0.9-0.6,1.4-0.3c2,1.3,3.2,3.6,3.2,6c0,2.3-1,4.4-2.8,5.7C28.1,87,27.9,87.1,27.7,87.1z"/>
	<path class="st5" d="M18.7,78.8c-0.2,0-0.4-0.1-0.5-0.2c-0.5-0.3-0.6-0.9-0.3-1.4c1.3-2,3.6-3.3,6-3.3c0.6,0,1,0.4,1,1s-0.4,1-1,1
		c-1.8,0-3.4,0.9-4.3,2.4C19.4,78.6,19.1,78.8,18.7,78.8z"/>
	<path class="st5" d="M68.6,47.5c-0.2,0-0.4-0.1-0.6-0.2c-0.4-0.3-0.5-1-0.2-1.4c0.7-0.9,1-2,1-3.1c0-2.9-2.3-5.2-5.2-5.2
		c-0.6,0-1-0.4-1-1c0-0.6,0.4-1,1-1c4,0,7.2,3.2,7.2,7.2c0,1.5-0.5,3-1.4,4.2C69.2,47.3,68.9,47.5,68.6,47.5z"/>
	<path class="st5" d="M90.4,115.6c-0.3,0-0.6-0.1-0.8-0.3c-0.4-0.4-0.3-1,0.1-1.4c5.4-4.8,9.5-10.9,11.7-17.8
		c0.2-0.5,0.7-0.8,1.3-0.6c0.5,0.2,0.8,0.7,0.6,1.3c-2.4,7.2-6.6,13.7-12.3,18.7C90.9,115.5,90.7,115.6,90.4,115.6z"/>
	<path class="st5" d="M37,115.1c-0.2,0-0.5-0.1-0.7-0.2c-5.5-4.8-9.6-11-11.9-17.9c-0.2-0.5,0.1-1.1,0.6-1.3
		c0.5-0.2,1.1,0.1,1.3,0.6c2.2,6.5,6.1,12.4,11.3,17c0.4,0.4,0.5,1,0.1,1.4C37.5,115,37.3,115.1,37,115.1z"/>
	<path class="st5" d="M26.1,69.9c-0.1,0-0.2,0-0.4-0.1c-0.5-0.2-0.8-0.8-0.6-1.3c2.5-6.3,6.5-11.9,11.6-16.3
		c0.4-0.4,1.1-0.3,1.4,0.1c0.4,0.4,0.3,1.1-0.1,1.4c-4.9,4.2-8.7,9.6-11.1,15.6C26.8,69.7,26.5,69.9,26.1,69.9z"/>
	<path class="st5" d="M42.2,50.4c-0.3,0-0.7-0.2-0.8-0.5c-0.3-0.5-0.2-1.1,0.3-1.4c2-1.3,4.2-2.4,6.5-3.3c0.5-0.2,1.1,0,1.3,0.5
		s0,1.1-0.5,1.3c-2.1,0.9-4.2,1.9-6.1,3.2C42.6,50.4,42.4,50.4,42.2,50.4z"/>
	<path class="st5" d="M95.5,121H52.4c-0.6,0-1-0.4-1-1s0.4-1,1-1h43.2c0.6,0,1,0.4,1,1S96.1,121,95.5,121z"/>
	<path class="st6" d="M51,76.1c-2.2,0-4-1.8-4-4c0-2.2,1.8-4,4-4s4,1.8,4,4C55,74.3,53.2,76.1,51,76.1z M51,70
		c-1.2,0-2.1,0.9-2.1,2.1c0,1.2,0.9,2.1,2.1,2.1s2.1-0.9,2.1-2.1C53.1,71,52.2,70,51,70z"/>
	<path class="st6" d="M70.9,84c-2.3,0-4.1-1.8-4.1-4.1c0-2.3,1.8-4.1,4.1-4.1c2.3,0,4.1,1.8,4.1,4.1C75,82.1,73.1,84,70.9,84z
		 M70.9,77.7c-1.2,0-2.2,1-2.2,2.2c0,1.2,1,2.2,2.2,2.2c1.2,0,2.2-1,2.2-2.2C73.1,78.7,72,77.7,70.9,77.7z"/>
	<path class="st6" d="M107,46c-2.2,0-4-1.8-4-4c0-2.2,1.8-4,4-4s4,1.8,4,4C111,44.2,109.2,46,107,46z M107,40
		c-1.2,0-2.1,0.9-2.1,2.1c0,1.2,0.9,2.1,2.1,2.1s2.1-0.9,2.1-2.1C109.1,40.9,108.2,40,107,40z"/>
	<path class="st6" d="M34.1,37.1c-2.3,0-4.1-1.8-4.1-4.1c0-2.3,1.8-4.1,4.1-4.1c2.3,0,4.1,1.8,4.1,4.1
		C38.2,35.3,36.4,37.1,34.1,37.1z M34.1,30.9c-1.2,0-2.2,0.9-2.2,2.2c0,1.2,1,2.2,2.2,2.2c1.2,0,2.2-0.9,2.2-2.2
		C36.3,31.8,35.3,30.9,34.1,30.9z"/>
	<path class="st6" d="M61.3,96c0-0.4-0.4-0.8-1-0.9l-1.9-0.3c-0.5-0.1-1.1-0.6-1.1-1.1L57,91.9c-0.1-0.5-0.5-1-0.9-1
		c-0.4,0-0.8,0.4-0.9,1L55,93.7c-0.1,0.5-0.6,1.1-1.1,1.1L52,95.2c-0.5,0.1-1,0.5-1,0.9c0,0.4,0.4,0.8,1,0.9l1.9,0.3
		c0.5,0.1,1.1,0.6,1.1,1.1l0.3,1.9c0.1,0.5,0.5,1,0.9,1c0.4,0,0.8-0.4,0.9-1l0.3-2.1c0.1-0.5,0.6-1,1.1-1.1l1.8-0.1
		C60.8,96.8,61.3,96.4,61.3,96z"/>
	<path class="st6" d="M96.7,28c0-0.4-0.4-0.8-1-0.9l-1.9-0.3c-0.5-0.1-1.1-0.6-1.1-1.1l-0.3-1.9c-0.1-0.5-0.5-1-0.9-1
		s-0.8,0.4-0.9,1l-0.3,1.9c-0.1,0.5-0.6,1.1-1.1,1.1l-1.8,0.4c-0.5,0.1-1,0.5-1,0.9c0,0.4,0.4,0.8,1,0.9l1.9,0.3
		c0.5,0.1,1.1,0.6,1.1,1.1l0.3,1.9c0.1,0.5,0.5,1,0.9,1s0.8-0.4,0.9-1l0.3-2.1c0.1-0.5,0.6-1,1.1-1.1l1.8-0.1
		C96.2,28.8,96.7,28.4,96.7,28z"/>
	<path class="st6" d="M22.6,48.5c0-0.4-0.4-0.8-1-0.9l-1.9-0.3c-0.5-0.1-1.1-0.6-1.1-1.1l-0.3-1.9c-0.1-0.5-0.5-1-0.9-1
		s-0.8,0.4-0.9,1l-0.2,1.9c-0.1,0.5-0.6,1.1-1.1,1.1l-1.9,0.3c-0.5,0.1-1,0.5-1,0.9c0,0.4,0.4,0.8,1,0.9l1.9,0.3
		c0.5,0.1,1.1,0.6,1.1,1.1l0.3,1.9c0.1,0.5,0.5,1,0.9,1s0.8-0.4,0.9-1l0.3-2.1c0.1-0.5,0.6-1,1.1-1.1l1.8-0.1
		C22.2,49.3,22.6,48.9,22.6,48.5z"/>
	<path class="st3" d="M108,128H23.1c-0.6,0-1-0.4-1-1s0.4-1,1-1H108c0.6,0,1,0.4,1,1S108.6,128,108,128z"/>
</g>
</svg>
