<?xml version="1.0" encoding="utf-8"?>
<!-- Generator: Adobe Illustrator 21.0.2, SVG Export Plug-In . SVG Version: 6.00 Build 0)  -->
<svg version="1.1" id="microphone" xmlns="http://www.w3.org/2000/svg" xmlns:xlink="http://www.w3.org/1999/xlink" x="0px" y="0px"
	 viewBox="0 0 128 128" style="enable-background:new 0 0 128 128;" xml:space="preserve">
<style type="text/css">
	.st0{fill:#FF4848;}
	.st1{fill:#EAEAEA;}
	.st2{fill:#D4D6D6;}
	.st3{fill:#284049;}
	.st4{fill:#415E6D;}
	.st5{fill:#2D4552;}
	.st6{fill:#FFFFFF;}
	.st7{opacity:0.5;fill:#FFFFFF;}
</style>
<g>
	<circle class="st0" cx="64" cy="64" r="64"/>
	<path class="st1" d="M42.7,97.7c-1.4,1.7-4,2-5.8,0.7l-5.6-4.2c-1.8-1.3-2.2-3.9-1-5.7L58.8,46c1.2-1.8,3.7-2.2,5.4-0.9l10.4,7.8
		c1.8,1.3,2.1,3.8,0.7,5.5L42.7,97.7z"/>
	<path class="st2" d="M74.7,52.8L74.7,52.8c-0.1,0.2-0.2,0.3-0.3,0.5L41.7,92.6c-1.4,1.7-4,2-5.8,0.7l-5.6-4.2
		c-0.1-0.1-0.2-0.1-0.2-0.2c-0.9,1.8-0.4,4,1.2,5.2l5.6,4.2c1.8,1.3,4.4,1,5.8-0.7l32.6-39.3C76.7,56.6,76.5,54.2,74.7,52.8z"/>
	<path class="st3" d="M39.7,100c-1.1,0-2.2-0.3-3.1-1l-5.6-4.2c-2.2-1.6-2.7-4.8-1.2-7.1l28.3-42.3c0.9-1.3,2.4-2.1,4-2.1
		c1,0,2,0.3,2.9,1L75.3,52c1.1,0.8,1.7,2,1.9,3.3c0.2,1.3-0.2,2.6-1.1,3.6L43.7,98.1C42.7,99.3,41.3,100,39.7,100z M62.1,45.3
		c-0.9,0-1.8,0.5-2.3,1.2L31.5,88.9c-0.9,1.4-0.6,3.3,0.7,4.3l5.6,4.2c0.5,0.4,1.2,0.6,1.9,0.6c1,0,1.9-0.4,2.5-1.1l32.4-39.2
		c0.5-0.6,0.7-1.4,0.6-2.1c-0.1-0.8-0.5-1.4-1.1-1.9l-10.4-7.8C63.3,45.5,62.7,45.3,62.1,45.3z"/>
	<path class="st1" d="M70,68.1c-1.5,1.6-4.1,1.9-5.9,0.6l-12-9c-1.8-1.3-2.3-3.9-1.1-5.8L59,41.1c1.2-1.9,3.5-2.3,5.3-1l15.2,11.4
		c1.8,1.3,2,3.7,0.5,5.4L70,68.1z"/>
	<path class="st2" d="M62.2,36.5l-9.1,14.6c1.4,3.4,3.7,6.6,6.9,9c4,3,8.7,4.4,13.4,4.2l10.4-11.6L62.2,36.5z"/>
	<path class="st3" d="M66.7,70.5c-1.2,0-2.3-0.4-3.2-1l-12-9c-2.2-1.6-2.8-4.8-1.3-7.1l7.9-12.8c0.9-1.4,2.3-2.2,3.9-2.2
		c1,0,2,0.3,2.8,1l15.2,11.4c1.1,0.8,1.7,2,1.9,3.3c0.1,1.3-0.3,2.6-1.2,3.6l-10,11.3C69.7,69.9,68.3,70.5,66.7,70.5z M62,40.3
		c-0.9,0-1.7,0.5-2.2,1.3l-7.9,12.8c-0.9,1.4-0.5,3.5,0.8,4.5l12,9c0.6,0.4,1.3,0.6,2,0.6c1,0,1.9-0.4,2.5-1.1l10-11.3
		c0.5-0.6,0.8-1.3,0.7-2c-0.1-0.7-0.5-1.4-1.1-1.9L63.7,40.9C63.2,40.5,62.6,40.3,62,40.3z"/>
	<ellipse transform="matrix(0.5985 -0.8011 0.8011 0.5985 -1.8463 76.7732)" class="st4" cx="75.7" cy="40.2" rx="21.3" ry="21.3"/>
	<path class="st5" d="M92.7,43.9c-7,9.4-20.4,11.3-29.8,4.3c-4.3-3.2-7-7.7-8-12.6c-1.7,7.9,1.2,16.4,8,21.6
		c9.4,7,22.8,5.1,29.8-4.3c3.8-5.1,5-11.4,3.7-17.2C95.8,38.6,94.6,41.4,92.7,43.9z"/>
	<path class="st3" d="M75.5,63c-4.9,0-9.5-1.5-13.4-4.5c-4.8-3.6-7.9-8.9-8.8-14.8c-0.9-5.9,0.6-11.9,4.2-16.7c4.3-5.7,10.9-9,18-9
		c4.9,0,9.5,1.5,13.4,4.5c4.8,3.6,7.9,8.9,8.8,14.8c0.9,5.9-0.6,11.9-4.2,16.7C89.2,59.7,82.6,63,75.5,63z M75.5,20
		C69,20,63,23,59.1,28.2c-3.3,4.4-4.6,9.8-3.9,15.2c0.8,5.4,3.6,10.2,8,13.5C66.8,59.6,71,61,75.5,61c6.5,0,12.5-3,16.4-8.2
		c3.3-4.4,4.6-9.8,3.9-15.2c-0.8-5.4-3.6-10.2-8-13.5C84.2,21.4,80,20,75.5,20z"/>
	<path class="st1" d="M94.3,55c-1.3,1.8-3.8,2.1-5.6,0.8l-32-23.9c-1.8-1.3-2.1-3.8-0.8-5.6c1.3-1.8,3.8-2.1,5.6-0.8l32,23.9
		C95.2,50.8,95.6,53.3,94.3,55L94.3,55z"/>
	<path d="M115.6,14.4c-0.3,0-0.5-0.1-0.7-0.3c-0.4-0.4-0.4-1,0-1.4l6.4-6.4c0.4-0.4,1-0.4,1.4,0c0.4,0.4,0.4,1,0,1.4l-6.4,6.4
		C116.1,14.3,115.9,14.4,115.6,14.4z"/>
	<path d="M110.4,11.3c-0.1,0-0.1,0-0.2,0c-0.5-0.1-0.9-0.6-0.8-1.2l1.3-6.4c0.1-0.5,0.6-0.9,1.2-0.8c0.5,0.1,0.9,0.6,0.8,1.2
		l-1.3,6.4C111.2,11,110.8,11.3,110.4,11.3z"/>
	<path d="M118.6,19.6c-0.5,0-0.9-0.3-1-0.8c-0.1-0.5,0.2-1.1,0.8-1.2l6.4-1.3c0.5-0.1,1.1,0.2,1.2,0.8c0.1,0.5-0.2,1.1-0.8,1.2
		l-6.4,1.3C118.8,19.6,118.7,19.6,118.6,19.6z"/>
	<path class="st2" d="M94.3,52L94.3,52c-1.3,1.8-3.8,2.1-5.6,0.8l-32-23.9c-0.6-0.5-1-1.1-1.3-1.7c-0.7,1.6-0.2,3.6,1.3,4.7l32,23.9
		c1.8,1.3,4.3,1,5.6-0.8l0,0c0.9-1.2,1-2.6,0.5-3.9C94.7,51.4,94.5,51.7,94.3,52z"/>
	<path class="st3" d="M91,58c-1.1,0-2.1-0.4-3-1L56,32.3c-1.1-0.8-1.8-2-1.9-3.4c-0.2-1.4,0.1-2.7,0.9-3.8c0.9-1.3,2.4-2.1,4-2.1
		c1.1,0,2.1,0.4,3,1l32,24.7c2.2,1.7,2.7,4.9,1,7.2C94.1,57.2,92.6,58,91,58z M59,25.1c-0.9,0-1.8,0.5-2.4,1.2
		c-0.5,0.7-0.7,1.5-0.6,2.3c0.1,0.8,0.5,1.5,1.2,2l32,24.7c1.3,1,3.2,0.7,4.2-0.6c1-1.4,0.7-3.3-0.6-4.3l-32-24.7
		C60.3,25.3,59.6,25.1,59,25.1z"/>
	<path class="st4" d="M46.6,95.5c-0.7,0.9-1.9,1.1-2.8,0.4l-12-9c-0.9-0.7-1.1-1.9-0.4-2.8c0.7-0.9,1.9-1.1,2.8-0.4l12,9
		C47,93.4,47.2,94.6,46.6,95.5L46.6,95.5z"/>
	<path class="st3" d="M45,97.3c-0.7,0-1.3-0.2-1.8-0.6l-12-9c-1.3-1-1.6-2.9-0.6-4.2c0.9-1.3,2.9-1.6,4.2-0.6l12,9
		c1.3,1,1.6,2.9,0.6,4.2C46.8,96.9,45.9,97.3,45,97.3z M33,84.4c-0.3,0-0.6,0.1-0.8,0.4c-0.3,0.4-0.2,1.1,0.2,1.4l12,9
		c0.4,0.3,1.1,0.2,1.4-0.2c0.3-0.4,0.2-1.1-0.2-1.4l-12-9C33.4,84.4,33.2,84.4,33,84.4z"/>
	<path class="st6" d="M90.3,51.6c-0.2,0-0.4-0.1-0.6-0.2L59.4,29.1c-0.4-0.3-0.5-1-0.2-1.4c0.3-0.4,1-0.5,1.4-0.2l30.3,22.3
		c0.4,0.3,0.5,1,0.2,1.4C90.9,51.5,90.6,51.6,90.3,51.6z"/>
	<path class="st6" d="M48.6,68.2c-0.2,0-0.4-0.1-0.6-0.2c-0.5-0.3-0.6-0.9-0.3-1.4l2.2-3.2c0.3-0.5,0.9-0.6,1.4-0.3
		c0.5,0.3,0.6,0.9,0.3,1.4l-2.2,3.2C49.2,68.1,48.9,68.2,48.6,68.2z"/>
	<path class="st6" d="M38,83.5c-0.2,0-0.4-0.1-0.6-0.2C37,83,36.9,82.4,37.2,82L45,70.6c0.3-0.5,0.9-0.6,1.4-0.3
		c0.5,0.3,0.6,0.9,0.3,1.4l-7.8,11.3C38.6,83.4,38.3,83.5,38,83.5z"/>
	<path class="st7" d="M91.7,36c-0.4,0-0.8-0.3-0.9-0.7c-0.7-2.1-1.8-3.9-3.1-5.5c-0.4-0.4-0.3-1.1,0.1-1.4c0.4-0.4,1.1-0.3,1.4,0.1
		c1.5,1.7,2.6,3.8,3.4,6.1c0.2,0.5-0.1,1.1-0.6,1.3C91.9,35.9,91.8,36,91.7,36z"/>
	<path class="st7" d="M85,27.1c-0.2,0-0.4-0.1-0.6-0.2c-3.9-2.7-9-3.6-13.3-2.5c-0.5,0.1-1.1-0.2-1.2-0.7c-0.1-0.5,0.2-1.1,0.7-1.2
		c4.9-1.3,10.7-0.2,15,2.7c0.5,0.3,0.6,0.9,0.3,1.4C85.6,26.9,85.3,27.1,85,27.1z"/>
	<path class="st3" d="M120.8,73.4c-6.2-3.8-16.9-4-28.3,6.6c-4.6,4.3-8.9,8.9-13.1,13.3c-12.7,13.5-23.6,25.2-36.9,22.2
		c-4.2-0.9-7.2-2.9-8.7-5.9c-2.9-5.5-0.2-12.8-0.2-12.9c0.2-0.5-0.1-1.1-0.6-1.3c-0.5-0.2-1.1,0.1-1.3,0.6
		c-0.1,0.3-3.1,8.2,0.3,14.6c1.9,3.5,5.2,5.8,10.1,6.9c1.6,0.3,3.1,0.5,4.6,0.5c12.3,0,22.5-10.9,34.2-23.3c4.1-4.4,8.4-9,13-13.3
		c10.6-9.8,20.3-9.7,25.9-6.3c5,3,7.2,8.7,5.8,14.8c-1.1,4.4-3.9,7.6-8.5,9.5c-0.6,0.9-1.2,1.9-1.9,2.8c5.2-1.5,10.6-4.8,12.3-11.8
		c0.3-1.2,0.5-2.3,0.5-3.4C128,81,125.6,76.2,120.8,73.4z"/>
	<path class="st7" d="M41.4,31c0-0.4-0.4-0.8-1-0.9l-1.9-0.3c-0.5-0.1-1.1-0.6-1.1-1.1l-0.3-1.9c-0.1-0.5-0.5-1-0.9-1
		c-0.4,0-0.8,0.4-0.9,1l-0.3,1.9c-0.1,0.5-0.6,1.1-1.1,1.1l-1.9,0.3c-0.5,0.1-1,0.5-1,0.9s0.4,0.8,1,0.9l1.9,0.3
		c0.5,0.1,1.1,0.6,1.1,1.1l0.3,1.9c0.1,0.5,0.5,1,0.9,1c0.4,0,0.8-0.4,0.9-1l0.3-2.1c0.1-0.5,0.6-1,1.1-1.1l1.8-0.1
		C41,31.7,41.4,31.4,41.4,31z"/>
	<path class="st7" d="M118.3,58c0-0.4-0.4-0.8-1-0.9l-1.9-0.3c-0.5-0.1-1.1-0.6-1.1-1.1l-0.3-1.9c-0.1-0.5-0.5-1-0.9-1
		s-0.8,0.4-0.9,1l-0.3,1.9c-0.1,0.5-0.6,1.1-1.1,1.1l-1.9,0.3c-0.5,0.1-1,0.5-1,0.9c0,0.4,0.4,0.8,1,0.9l1.9,0.3
		c0.5,0.1,1.1,0.6,1.1,1.1l0.3,1.9c0.1,0.5,0.5,1,0.9,1s0.8-0.4,0.9-1l0.3-2.1c0.1-0.5,0.6-1,1.1-1.1l1.8-0.1
		C117.9,58.7,118.3,58.3,118.3,58z"/>
	<path class="st7" d="M66.2,91.3c0-0.4-0.4-0.8-1-0.9l-1.9-0.3c-0.5-0.1-1.1-0.6-1.1-1.1l-0.3-1.9c-0.1-0.5-0.5-1-0.9-1
		c-0.4,0-0.8,0.4-0.9,1L59.9,89c-0.1,0.5-0.6,1.1-1.1,1.1l-1.9,0.3c-0.5,0.1-1,0.5-1,0.9c0,0.4,0.4,0.8,1,0.9l1.9,0.3
		c0.5,0.1,1.1,0.6,1.1,1.1l0.3,1.9c0.1,0.5,0.5,1,0.9,1c0.4,0,0.8-0.4,0.9-1l0.3-2.1c0.1-0.5,0.6-1,1.1-1.1l1.8-0.1
		C65.7,92,66.2,91.7,66.2,91.3z"/>
	<path class="st7" d="M100.5,102c-2.5,0-4.5-2-4.5-4.5c0-2.5,2-4.5,4.5-4.5c2.5,0,4.5,2,4.5,4.5C105,100,103,102,100.5,102z
		 M100.5,95.1c-1.3,0-2.4,1.1-2.4,2.4c0,1.3,1.1,2.4,2.4,2.4c1.3,0,2.4-1.1,2.4-2.4C102.9,96.2,101.8,95.1,100.5,95.1z"/>
	<path class="st7" d="M24,65c-2.2,0-4-1.8-4-4c0-2.2,1.8-4,4-4c2.2,0,4,1.8,4,4C28,63.2,26.2,65,24,65z M24,58.9
		c-1.2,0-2.1,1-2.1,2.1c0,1.2,1,2.1,2.1,2.1c1.2,0,2.1-1,2.1-2.1C26.1,59.8,25.2,58.9,24,58.9z"/>
</g>
</svg>
