<?xml version="1.0" encoding="utf-8"?>
<!-- Generator: Adobe Illustrator 21.0.2, SVG Export Plug-In . SVG Version: 6.00 Build 0)  -->
<svg version="1.1" id="mirror" xmlns="http://www.w3.org/2000/svg" xmlns:xlink="http://www.w3.org/1999/xlink" x="0px" y="0px"
	 viewBox="0 0 128 128" style="enable-background:new 0 0 128 128;" xml:space="preserve">
<style type="text/css">
	.st0{fill:#3DB39E;}
	.st1{fill:#EAEAEA;}
	.st2{fill:#46600E;}
	.st3{fill:#FFFFFF;}
	.st4{fill:#D4D6D6;}
	.st5{opacity:0.5;fill:#FFFFFF;}
</style>
<g>
	<circle class="st0" cx="64" cy="64" r="64"/>
	<rect x="61" y="109.3" class="st1" width="7" height="13.5"/>
	<path class="st2" d="M68,123.8h-7c-0.6,0-1-0.4-1-1v-13.5c0-0.6,0.4-1,1-1h7c0.6,0,1,0.4,1,1v13.5C69,123.3,68.6,123.8,68,123.8z
		 M62,121.8h5v-11.5h-5V121.8z"/>
	<circle class="st1" cx="64.5" cy="64.3" r="39"/>
	<path class="st1" d="M89.5,123.4c0,2.2-1.8,4-4,4h-42c-2.2,0-4-1.8-4-4v-1.5c0-2.2,1.8-4,4-4h42c2.2,0,4,1.8,4,4V123.4z"/>
	<path class="st2" d="M64.5,110c-25.4,0-46-20.5-46-45.7c0-0.5,0.4-1,1-1c0.6,0,1,0.4,1,1c0,24.1,19.7,43.7,44,43.7
		c24.3,0,44-19.6,44-43.7c0-0.5,0.4-1,1-1c0.6,0,1,0.4,1,1C110.5,89.5,89.9,110,64.5,110z"/>
	<circle class="st1" cx="21.1" cy="65.3" r="4.5"/>
	<circle class="st1" cx="108" cy="65.3" r="4.5"/>
	<path class="st3" d="M45,70.3c-0.3,0-0.5-0.1-0.7-0.3c-0.4-0.4-0.4-1,0-1.4l19-19c0.4-0.4,1-0.4,1.4,0c0.4,0.4,0.4,1,0,1.4l-19,19
		C45.5,70.2,45.3,70.3,45,70.3z"/>
	<path class="st3" d="M47,82.8c-0.3,0-0.5-0.1-0.7-0.3c-0.4-0.4-0.4-1,0-1.4l34.5-34.5c0.4-0.4,1-0.4,1.4,0c0.4,0.4,0.4,1,0,1.4
		L47.7,82.5C47.5,82.7,47.3,82.8,47,82.8z"/>
	<path class="st3" d="M63.5,80.8c-0.3,0-0.5-0.1-0.7-0.3c-0.4-0.4-0.4-1,0-1.4l16.8-16.7c0.4-0.4,1-0.4,1.4,0c0.4,0.4,0.4,1,0,1.4
		L64.2,80.5C64,80.7,63.8,80.8,63.5,80.8z"/>
	<path class="st4" d="M64.5,93.3c-19.8,0-36.2-14.8-38.7-34c-0.2,1.6-0.3,3.3-0.3,5c0,21.5,17.5,39,39,39c21.5,0,39-17.5,39-39
		c0-1.7-0.1-3.4-0.3-5C100.7,78.5,84.4,93.3,64.5,93.3z"/>
	<path class="st4" d="M21.1,67.1c-2,0-3.7-1.3-4.3-3.2c-0.1,0.4-0.2,0.9-0.2,1.3c0,2.5,2,4.5,4.5,4.5c2.5,0,4.5-2,4.5-4.5
		c0-0.5-0.1-0.9-0.2-1.3C24.8,65.8,23.1,67.1,21.1,67.1z"/>
	<path class="st4" d="M107.9,67.1c-2,0-3.7-1.3-4.3-3.2c-0.1,0.4-0.2,0.9-0.2,1.3c0,2.5,2,4.5,4.5,4.5c2.5,0,4.5-2,4.5-4.5
		c0-0.5-0.1-0.9-0.2-1.3C111.6,65.8,110,67.1,107.9,67.1z"/>
	<path class="st2" d="M64.5,105C42.2,105,24,86.8,24,64.5C24,42.2,42.2,24,64.5,24C86.8,24,105,42.2,105,64.5
		C105,86.8,86.8,105,64.5,105z M64.5,26C43.3,26,26,43.3,26,64.5S43.3,103,64.5,103c21.2,0,38.5-17.3,38.5-38.5S85.7,26,64.5,26z"/>
	<path class="st2" d="M20.8,71c-2.7,0-5.8-2.4-5.8-5.5c0-3.1,3.1-5.5,5.8-5.5c2.9,0,5.2,2.5,5.2,5.5C26,68.5,23.7,71,20.8,71z
		 M20.8,62c-1.8,0-3.9,1.5-3.9,3.5c0,2,2.1,3.5,3.9,3.5c1.8,0,3.3-1.6,3.3-3.5C24.1,63.6,22.6,62,20.8,62z"/>
	<path class="st4" d="M85.5,124h-42c-1.9,0-3.5-1.3-3.9-3.1c-0.1,0.3-0.1,0.6-0.1,0.9v1.5c0,2.2,1.8,4,4,4h42c2.2,0,4-1.8,4-4v-1.5
		c0-0.3,0-0.6-0.1-0.9C89,122.7,87.4,124,85.5,124z"/>
	<path class="st2" d="M108,70.8c-3,0-5.5-2.5-5.5-5.5c0-3,2.5-5.5,5.5-5.5c2.9,0,5,2.3,5,5.5C113,68.4,110.9,70.8,108,70.8z
		 M108,61.8c-1.9,0-3.5,1.6-3.5,3.5c0,1.9,1.6,3.5,3.5,3.5c2.1,0,3-1.8,3-3.5C111,63.5,110.1,61.8,108,61.8z"/>
	<path class="st2" d="M86,128H43c-2.8,0-5-2.2-5-5v-1c0-2.8,2.2-5,5-5h43c2.8,0,5,2.2,5,5v1C91,125.8,88.8,128,86,128z M43,119
		c-1.7,0-3,1.3-3,3v1c0,1.7,1.3,3,3,3h43c1.7,0,3-1.3,3-3v-1c0-1.7-1.3-3-3-3H43z"/>
	<path class="st3" d="M98.5,65.3c-0.6,0-1-0.4-1-1c0-7.9-2.8-15.5-8-21.5c-0.4-0.4-0.3-1,0.1-1.4c0.4-0.4,1.1-0.3,1.4,0.1
		c5.5,6.3,8.5,14.4,8.5,22.8C99.5,64.8,99.1,65.3,98.5,65.3z"/>
	<path class="st3" d="M30.5,65.3c-0.6,0-1-0.4-1-1c0-2.3,0.2-4.6,0.7-6.8c3.2-16.4,17.7-28.2,34.3-28.2c8,0,15.5,2.6,21.7,7.5
		c0.4,0.3,0.5,1,0.2,1.4c-0.3,0.4-1,0.5-1.4,0.2c-5.9-4.7-13-7.1-20.5-7.1c-15.7,0-29.4,11.2-32.4,26.6c-0.4,2.1-0.6,4.2-0.6,6.4
		C31.5,64.8,31.1,65.3,30.5,65.3z"/>
	<path class="st3" d="M84.3,122.1H45.5c-0.6,0-1-0.4-1-1c0-0.6,0.4-1,1-1h38.8c0.6,0,1,0.4,1,1C85.3,121.6,84.9,122.1,84.3,122.1z"
		/>
	<path class="st3" d="M109.4,65.5c-0.4,0-0.7-0.2-0.9-0.6c-0.2-0.1-0.7-0.1-1-0.1c-0.5,0.1-1-0.3-1.1-0.9c-0.1-0.5,0.3-1,0.9-1.1
		c0.4,0,2.4-0.2,3,1.3c0.2,0.5,0,1.1-0.6,1.3C109.6,65.4,109.5,65.5,109.4,65.5z"/>
	<path class="st3" d="M22.1,65.5c-0.4,0-0.7-0.2-0.9-0.6c-0.2-0.1-0.7-0.1-1-0.1c-0.6,0.1-1-0.3-1.1-0.9c-0.1-0.5,0.3-1,0.9-1.1
		c0.4,0,2.4-0.2,3,1.3c0.2,0.5,0,1.1-0.6,1.3C22.3,65.4,22.2,65.5,22.1,65.5z"/>
	<path class="st5" d="M15.5,49C13,49,11,47,11,44.5c0-2.5,2-4.5,4.5-4.5c2.5,0,4.5,2,4.5,4.5C20,47,18,49,15.5,49z M15.5,42.1
		c-1.3,0-2.4,1.1-2.4,2.4c0,1.3,1.1,2.4,2.4,2.4c1.3,0,2.4-1.1,2.4-2.4C17.9,43.2,16.8,42.1,15.5,42.1z"/>
	<path class="st5" d="M92.5,25C90,25,88,23,88,20.5c0-2.5,2-4.5,4.5-4.5c2.5,0,4.5,2,4.5,4.5C97,23,95,25,92.5,25z M92.5,18.1
		c-1.3,0-2.4,1.1-2.4,2.4c0,1.3,1.1,2.4,2.4,2.4c1.3,0,2.4-1.1,2.4-2.4C94.9,19.2,93.8,18.1,92.5,18.1z"/>
	<path class="st5" d="M27.5,108c-2.5,0-4.5-2-4.5-4.5c0-2.5,2-4.5,4.5-4.5c2.5,0,4.5,2,4.5,4.5C32,106,30,108,27.5,108z M27.5,101.1
		c-1.3,0-2.4,1.1-2.4,2.4c0,1.3,1.1,2.4,2.4,2.4c1.3,0,2.4-1.1,2.4-2.4C29.9,102.2,28.8,101.1,27.5,101.1z"/>
	<path class="st5" d="M118.2,46.4c0-0.4-0.4-0.8-1-0.9l-1.9-0.3c-0.5-0.1-1.1-0.6-1.1-1.1l-0.3-1.9c-0.1-0.5-0.5-1-0.9-1
		c-0.4,0-0.8,0.4-0.9,1l-0.3,1.9c-0.1,0.5-0.6,1.1-1.1,1.1l-1.9,0.3c-0.5,0.1-1,0.5-1,0.9c0,0.4,0.4,0.8,1,0.9l1.9,0.3
		c0.5,0.1,1.1,0.6,1.1,1.1l0.3,1.9c0.1,0.5,0.5,1,0.9,1c0.4,0,0.8-0.4,0.8-1l0.3-2.1c0.1-0.5,0.6-1,1.1-1.1l1.8-0.1
		C117.7,47.1,118.2,46.8,118.2,46.4z"/>
	<path class="st5" d="M48.3,19.6c0-0.4-0.4-0.8-1-0.9l-1.9-0.3c-0.5-0.1-1.1-0.6-1.1-1.1l-0.3-1.9c-0.1-0.5-0.5-1-0.9-1
		c-0.4,0-0.8,0.4-0.9,1l-0.3,1.9c-0.1,0.5-0.6,1.1-1.1,1.1l-1.9,0.3c-0.5,0.1-1,0.5-1,0.9c0,0.4,0.4,0.8,1,0.9l1.9,0.3
		c0.5,0.1,1.1,0.6,1.1,1.1l0.3,1.9c0.1,0.5,0.5,1,0.9,1c0.4,0,0.8-0.4,0.8-1l0.3-2.1c0.1-0.5,0.6-1,1.1-1.1l1.8-0.1
		C47.9,20.3,48.3,19.9,48.3,19.6z"/>
</g>
</svg>
