<?xml version="1.0" encoding="utf-8"?>
<!-- Generator: Adobe Illustrator 21.0.2, SVG Export Plug-In . SVG Version: 6.00 Build 0)  -->
<svg version="1.1" id="music" xmlns="http://www.w3.org/2000/svg" xmlns:xlink="http://www.w3.org/1999/xlink" x="0px" y="0px"
	 viewBox="0 0 128 128" style="enable-background:new 0 0 128 128;" xml:space="preserve">
<style type="text/css">
	.st0{fill:#FBD000;}
	.st1{fill:#3AD0F9;}
	.st2{fill:#00B3F9;}
	.st3{fill:#415E6D;}
	.st4{fill:#074370;}
	.st5{fill:#FFFFFF;}
	.st6{fill:#ADADAD;}
	.st7{opacity:0.5;fill:#FFFFFF;}
</style>
<g>
	<circle class="st0" cx="64" cy="64" r="64"/>
	<path class="st1" d="M109.6,87c0,4.4-3.6,8-8,8h-74c-4.4,0-8-3.6-8-8V44.3c0-4.4,3.6-8,8-8h74c4.4,0,8,3.6,8,8V87z"/>
	<circle class="st2" cx="31.7" cy="88.8" r="2.2"/>
	<ellipse class="st2" cx="25.5" cy="43.5" rx="1.5" ry="1.5"/>
	<circle class="st2" cx="103.5" cy="43.5" r="1.5"/>
	<circle class="st2" cx="25.5" cy="90.5" r="1.5"/>
	<circle class="st2" cx="103.5" cy="90.5" r="1.5"/>
	<path class="st2" d="M101.6,36.2h-74c-4.4,0-8,3.6-8,8v4c0-4.4,3.6-8,8-8h74c4.4,0,8,3.6,8,8v-4C109.6,39.8,106,36.2,101.6,36.2z"
		/>
	<circle class="st2" cx="83.4" cy="68.9" r="10.2"/>
	<circle class="st3" cx="83.4" cy="65.9" r="10.2"/>
	<path class="st4" d="M102,96H28c-5,0-9-4-9-9V44c0-5,4-9,9-9l74,0c5,0,9,4,9,9v43C111,92,107,96,102,96z M28,37
		c-1.9,0-3.6,0.7-4.9,2.1C21.7,40.4,21,42.1,21,44v43c0,3.9,3.1,7,7,7h74c3.9,0,7-3.1,7-7V44c0-3.9-3.1-7-7-7L28,37z"/>
	<circle class="st2" cx="44.6" cy="69.2" r="15.5"/>
	<circle class="st3" cx="44.6" cy="65.9" r="15.5"/>
	<ellipse class="st0" cx="44.6" cy="65.7" rx="5.5" ry="5.3"/>
	<path class="st1" d="M91.1,95.4c0.4,2.2-1.1,3.9-3.3,3.9H41.4c-2.2,0-3.7-1.8-3.3-3.9l0.8-4.8c0.4-2.2,2.5-3.9,4.7-3.9h42
		c2.2,0,4.3,1.8,4.7,3.9L91.1,95.4z"/>
	<ellipse class="st0" cx="83.4" cy="65.7" rx="5.5" ry="5.7"/>
	<path class="st4" d="M46,96c-1.7,0-3-1.3-3-3s1.3-3,3-3c1.7,0,3,1.3,3,3S47.7,96,46,96z M46,91.9c-0.6,0-1.1,0.5-1.1,1.1
		c0,0.6,0.5,1.1,1.1,1.1c0.6,0,1.1-0.5,1.1-1.1C47.1,92.4,46.6,91.9,46,91.9z"/>
	<circle class="st5" cx="31.7" cy="86.6" r="2.2"/>
	<path class="st4" d="M31.7,89.8c-1.7,0-3.2-1.4-3.2-3.2c0-1.7,1.4-3.2,3.2-3.2c1.7,0,3.2,1.4,3.2,3.2
		C34.9,88.3,33.5,89.8,31.7,89.8z M31.7,85.4c-0.6,0-1.2,0.5-1.2,1.2c0,0.6,0.5,1.2,1.2,1.2c0.6,0,1.2-0.5,1.2-1.2
		C32.9,86,32.4,85.4,31.7,85.4z"/>
	<circle class="st5" cx="97.8" cy="86.6" r="2.2"/>
	<path class="st4" d="M84,96c-1.7,0-3-1.3-3-3s1.3-3,3-3c1.7,0,3,1.3,3,3S85.7,96,84,96z M84,91.9c-0.6,0-1.1,0.5-1.1,1.1
		c0,0.6,0.5,1.1,1.1,1.1c0.6,0,1.1-0.5,1.1-1.1C85.1,92.4,84.6,91.9,84,91.9z"/>
	
		<ellipse transform="matrix(8.254873e-02 -0.9966 0.9966 8.254873e-02 -17.8555 63.6033)" class="st4" cx="25.6" cy="41.5" rx="1.5" ry="1.4"/>
	<ellipse class="st4" cx="103.6" cy="41.6" rx="1.6" ry="1.6"/>
	<circle class="st2" cx="97.8" cy="89.3" r="2.2"/>
	<ellipse class="st4" cx="25.5" cy="89.5" rx="1.5" ry="1.5"/>
	<circle class="st4" cx="103.5" cy="89.5" r="1.5"/>
	<path class="st4" d="M29.2,87.6c-0.4,0-0.8-0.4-0.8-1L28,65.2c0-0.6,0.4-1,0.8-1c0,0,0,0,0,0c0.4,0,0.8,0.4,0.8,1L30,86.6
		C30,87.1,29.6,87.6,29.2,87.6C29.2,87.6,29.2,87.6,29.2,87.6z"/>
	<path class="st4" d="M90.6,93.8c-0.4,0-0.7-0.2-0.9-0.6c-0.2-0.5,0-1.1,0.5-1.3c5.8-2.6,7.4-3.3,7.7-3.5c0.8-0.4,1.4-1.5,1.3-1.9
		c-0.3-1-6.8-21.9-6.8-21.9l1.9-0.6c0,0,6.5,20.9,6.8,21.9c0.5,1.7-1.1,3.7-2.4,4.3c-0.5,0.2-3.1,1.4-7.8,3.5
		C90.9,93.7,90.8,93.8,90.6,93.8z"/>
	<path class="st4" d="M38.6,93.7c-0.2,0-0.3,0-0.5-0.1l-7.6-4.1c-0.5-0.3-0.7-0.9-0.4-1.4c0.3-0.5,0.9-0.7,1.4-0.4l7.6,4.1
		c0.5,0.3,0.7,0.9,0.4,1.4C39.3,93.5,39,93.7,38.6,93.7z"/>
	<path class="st5" d="M89,45.3c0,1.1-0.9,2-2,2H42.1c-1.1,0-2-0.9-2-2l0-2c0-1.1,0.9-2,2-2h45c1.1,0,2,0.9,2,2L89,45.3z"/>
	<path class="st4" d="M87,48H42.1c-1.6,0-3-1.3-3-3l0-2c0-0.8,0.3-1.6,0.8-2.1c0.6-0.6,1.3-0.9,2.1-0.9h45c1.7,0,3,1.3,3,3l0,2
		c0,0.8-0.3,1.6-0.9,2.1C88.6,47.7,87.8,48,87,48z M42,42c-0.3,0-0.5,0.1-0.7,0.3C41.1,42.5,41,42.7,41,43l0,2c0,0.6,0.5,1,1,1H87
		c0.3,0,0.5-0.1,0.7-0.3c0.2-0.2,0.3-0.4,0.3-0.7l0-2c0-0.6-0.5-1-1-1H42z"/>
	<path class="st6" d="M83.5,45H66c-0.6,0-1-0.4-1-1s0.4-1,1-1h17.5c0.6,0,1,0.4,1,1S84,45,83.5,45z"/>
	<path class="st6" d="M60.2,45h-14c-0.6,0-1-0.4-1-1s0.4-1,1-1h14c0.6,0,1,0.4,1,1S60.8,45,60.2,45z"/>
	<path class="st4" d="M44.5,82C35.4,82,28,74.6,28,65.5C28,56.4,35.4,49,44.5,49C53.6,49,61,56.4,61,65.5C61,74.6,53.6,82,44.5,82z
		 M44.5,51c-8,0-14.5,6.5-14.5,14.5S36.5,80,44.5,80S59,73.5,59,65.5S52.5,51,44.5,51z"/>
	<path class="st4" d="M83.5,77C77.2,77,72,71.8,72,65.5C72,59.2,77.2,54,83.5,54C89.8,54,95,59.2,95,65.5C95,71.8,89.8,77,83.5,77z
		 M83.5,56.1c-5.2,0-9.4,4.2-9.4,9.4c0,5.2,4.2,9.4,9.4,9.4c5.2,0,9.4-4.2,9.4-9.4C92.9,60.3,88.7,56.1,83.5,56.1z"/>
	<path class="st2" d="M43.1,89.2h43.1c1.8,0,3.6,1.2,4.4,2.8l-0.3-1.4c-0.4-2.1-2.5-3.8-4.7-3.8h-42c-2.2,0-4.3,1.7-4.7,3.8L38.6,92
		C39.4,90.4,41.2,89.2,43.1,89.2z"/>
	<path class="st4" d="M83.5,72c-3.6,0-6.5-2.9-6.5-6.5s2.9-6.5,6.5-6.5c3.6,0,6.5,2.9,6.5,6.5S87,72,83.5,72z M83.5,61
		C81,61,79,63,79,65.5c0,2.5,2,4.5,4.5,4.5c2.5,0,4.5-2,4.5-4.5C87.9,63,85.9,61,83.5,61z"/>
	<path class="st4" d="M87.8,100H41.4c-1.4,0-2.6-0.5-3.4-1.5c-0.8-1-1.2-2.3-0.9-3.6l0.9-5.2c0.4-2.6,3-4.8,5.7-4.8h42
		c2.7,0,5.2,2.1,5.7,4.8l0.9,5.2c0.2,1.3-0.1,2.6-0.9,3.6C90.3,99.5,89.1,100,87.8,100z M43.6,87c-1.7,0-3.4,1.4-3.7,3.1L39,95.3
		c-0.1,0.8,0,1.5,0.5,2c0.4,0.5,1.1,0.8,1.9,0.8h46.4c0.8,0,1.4-0.3,1.9-0.8c0.4-0.5,0.6-1.2,0.5-2l-0.9-5.2c-0.3-1.7-2-3.1-3.7-3.1
		H43.6z"/>
	<path class="st7" d="M32.8,66.9c-0.6,0-1-0.4-1-1c0-7,5.7-12.8,12.8-12.8c2.3,0,4.6,0.6,6.6,1.8c0.5,0.3,0.6,0.9,0.3,1.4
		c-0.3,0.5-0.9,0.6-1.4,0.3c-1.7-1-3.6-1.5-5.5-1.5c-5.9,0-10.8,4.8-10.8,10.8C33.8,66.5,33.4,66.9,32.8,66.9z"/>
	<path class="st7" d="M44.6,78.7c-0.6,0-1-0.4-1-1c0-0.6,0.4-1,1-1c5.9,0,10.8-4.8,10.8-10.8c0-0.6,0.4-1,1-1c0.6,0,1,0.4,1,1
		C57.3,73,51.6,78.7,44.6,78.7z"/>
	<path class="st7" d="M91.4,66.9c-0.6,0-1-0.4-1-1c0-3.9-3.1-7-7-7c-0.6,0-1-0.4-1-1c0-0.6,0.4-1,1-1c5,0,9,4,9,9
		C92.4,66.5,92,66.9,91.4,66.9z"/>
	<path class="st7" d="M83.4,74.9c-5,0-9-4-9-9c0-0.6,0.4-1,1-1c0.6,0,1,0.4,1,1c0,3.9,3.1,7,7,7c1.9,0,3.8-0.8,5.1-2.2
		c0.4-0.4,1-0.4,1.4,0c0.4,0.4,0.4,1,0,1.4C88.3,73.9,85.9,74.9,83.4,74.9z"/>
	<path class="st5" d="M77.3,91H52.5c-0.6,0-1-0.4-1-1s0.4-1,1-1h24.8c0.6,0,1,0.4,1,1S77.9,91,77.3,91z"/>
	<path class="st5" d="M106,82.3c-0.6,0-1-0.4-1-1V61.8c0-0.6,0.4-1,1-1c0.6,0,1,0.4,1,1v19.5C107,81.8,106.6,82.3,106,82.3z"/>
	<path class="st5" d="M106,57.8c-0.6,0-1-0.4-1-1v-7.2c0-0.6,0.4-1,1-1c0.6,0,1,0.4,1,1v7.2C107,57.3,106.6,57.8,106,57.8z"/>
	<path class="st4" d="M31.5,90c-1.9,0-3.5-1.6-3.5-3.5s1.6-3.5,3.5-3.5c1.9,0,3.5,1.6,3.5,3.5S33.4,90,31.5,90z M31.5,85.2
		c-0.7,0-1.3,0.6-1.3,1.3c0,0.7,0.6,1.3,1.3,1.3c0.7,0,1.3-0.6,1.3-1.3C32.8,85.8,32.2,85.2,31.5,85.2z"/>
	<path class="st4" d="M97.5,90c-1.9,0-3.5-1.6-3.5-3.5s1.6-3.5,3.5-3.5c1.9,0,3.5,1.6,3.5,3.5S99.4,90,97.5,90z M97.5,85.2
		c-0.7,0-1.3,0.6-1.3,1.3c0,0.7,0.6,1.3,1.3,1.3c0.7,0,1.3-0.6,1.3-1.3C98.7,85.8,98.2,85.2,97.5,85.2z"/>
	<path class="st5" d="M86,24c-2.2,0-4-1.8-4-4c0-2.2,1.8-4,4-4c2.2,0,4,1.8,4,4C90,22.2,88.2,24,86,24z M86,17.9
		c-1.2,0-2.1,1-2.1,2.1c0,1.2,1,2.1,2.1,2.1c1.2,0,2.1-1,2.1-2.1C88.1,18.8,87.2,17.9,86,17.9z"/>
	<path class="st5" d="M39,28c-2.2,0-4-1.8-4-4c0-2.2,1.8-4,4-4c2.2,0,4,1.8,4,4C42.9,26.2,41.1,28,39,28z M39,21.9
		c-1.2,0-2.1,0.9-2.1,2.1c0,1.2,0.9,2.1,2.1,2.1c1.2,0,2.1-0.9,2.1-2.1C41.1,22.9,40.1,21.9,39,21.9z"/>
	<path class="st5" d="M51.7,115.2c-2.4,0-4.3-1.9-4.3-4.3c0-2.4,1.9-4.3,4.3-4.3c2.4,0,4.3,1.9,4.3,4.3
		C55.9,113.3,54,115.2,51.7,115.2z M51.7,108.7c-1.3,0-2.3,1-2.3,2.3c0,1.3,1,2.3,2.3,2.3c1.3,0,2.3-1,2.3-2.3
		C53.9,109.7,52.9,108.7,51.7,108.7z"/>
	<path class="st5" d="M87.5,109.9c0-0.4-0.4-0.8-1-0.9l-1.9-0.3c-0.5-0.1-1.1-0.6-1.1-1.1l-0.3-1.9c-0.1-0.5-0.5-1-0.9-1
		c-0.4,0-0.8,0.4-0.9,1l-0.3,1.9c-0.1,0.5-0.6,1.1-1.1,1.1l-1.9,0.3c-0.5,0.1-1,0.5-1,0.9c0,0.4,0.4,0.8,1,0.9l1.9,0.3
		c0.5,0.1,1.1,0.6,1.1,1.1l0.3,1.9c0.1,0.5,0.5,1,0.9,1c0.4,0,0.8-0.4,0.8-1l0.3-2.1c0.1-0.5,0.6-1,1.1-1.1l1.8-0.1
		C87,110.6,87.5,110.3,87.5,109.9z"/>
	<path class="st5" d="M67.6,17c0-0.4-0.4-0.8-1-0.9l-1.9-0.3c-0.5-0.1-1.1-0.6-1.1-1.1l-0.3-1.9c-0.1-0.5-0.5-1-0.9-1
		c-0.4,0-0.8,0.4-0.9,1l-0.3,1.9c-0.1,0.5-0.6,1.1-1.1,1.1l-1.9,0.3c-0.5,0.1-1,0.5-1,0.9c0,0.4,0.4,0.8,1,0.9l1.9,0.3
		c0.5,0.1,1.1,0.6,1.1,1.1l0.3,1.9c0.1,0.5,0.5,1,0.9,1c0.4,0,0.8-0.4,0.8-1l0.3-2.1c0.1-0.5,0.6-1,1.1-1.1l1.8-0.1
		C67.2,17.8,67.6,17.4,67.6,17z"/>
	<path class="st4" d="M44.5,72c-3.6,0-6.5-2.9-6.5-6.5s2.9-6.5,6.5-6.5s6.5,2.9,6.5,6.5S48.1,72,44.5,72z M44.5,61
		C42,61,40,63,40,65.5c0,2.5,2,4.5,4.5,4.5s4.5-2,4.5-4.5C49,63,47,61,44.5,61z"/>
	<path class="st5" d="M42,75.2c-0.3,0-0.5-0.1-0.7-0.3c-0.4-0.4-0.4-1,0-1.4L63.8,51c0.4-0.4,1-0.4,1.4,0c0.4,0.4,0.4,1,0,1.4
		L42.7,74.9C42.5,75.1,42.2,75.2,42,75.2z"/>
	<path class="st5" d="M58.5,70.3c-0.3,0-0.5-0.1-0.7-0.3c-0.4-0.4-0.4-1,0-1.4l10.8-10.8c0.4-0.4,1-0.4,1.4,0c0.4,0.4,0.4,1,0,1.4
		L59.3,70C59.1,70.2,58.8,70.3,58.5,70.3z"/>
</g>
</svg>
