<?xml version="1.0" encoding="utf-8"?>
<!-- Generator: Adobe Illustrator 21.0.2, SVG Export Plug-In . SVG Version: 6.00 Build 0)  -->
<svg version="1.1" id="pig" xmlns="http://www.w3.org/2000/svg" xmlns:xlink="http://www.w3.org/1999/xlink" x="0px" y="0px"
	 viewBox="0 0 128 128" style="enable-background:new 0 0 128 128;" xml:space="preserve">
<style type="text/css">
	.st0{fill:#A7FCD0;}
	.st1{fill:#FC8BA4;}
	.st2{fill:#A81000;}
	.st3{fill:#E26082;}
	.st4{fill:#ED7494;}
	.st5{fill:#FBD000;}
	.st6{fill:#E25D80;}
	.st7{fill:#F4B10B;}
	.st8{opacity:0.5;fill:#FFFFFF;}
	.st9{fill:#FFFFFF;}
</style>
<g>
	<circle class="st0" cx="64" cy="64" r="64"/>
	<path class="st1" d="M43.4,35.3c0,0-5.7-7.4-14.9-7.8c-9.2-0.4-5,2.2-3.4,4.9c1.5,2.7,3.8,13.4,3.8,13.4"/>
	<path class="st2" d="M29,46.7c-0.5,0-0.9-0.3-1-0.8c-0.6-3-2.5-11.2-3.7-13.3c-0.3-0.5-0.6-1-1-1.5c-0.9-1.2-1.8-2.4-1.2-3.7
		c0.6-1.2,2.4-1.6,6.5-1.4c9.4,0.5,15.2,8.1,15.4,8.4c0.3,0.4,0.3,1.1-0.2,1.4c-0.4,0.3-1.1,0.3-1.4-0.2c-0.1-0.1-5.5-7.2-14-7.6
		c-3.3-0.2-4.3,0.1-4.6,0.3c0.1,0.3,0.6,1,1,1.5c0.4,0.5,0.8,1.1,1.1,1.7c1.6,2.8,3.8,13.5,3.9,13.9c0.1,0.6-0.2,1.1-0.8,1.2
		C29.2,46.7,29.1,46.7,29,46.7z"/>
	<path class="st3" d="M52,100c0,2.2-1.8,4-4,4h-9c-2.2,0-4-1.8-4-4v-7c0-2.2,1.8-4,4-4h9c2.2,0,4,1.8,4,4V100z"/>
	<path class="st3" d="M92,101c0,2.2-1.8,4-4,4h-9c-2.2,0-4-1.8-4-4v-7c0-2.2,1.8-4,4-4h9c2.2,0,4,1.8,4,4V101z"/>
	<path class="st2" d="M48,105h-9c-2.8,0-5-2.2-5-5v-7c0-2.8,2.2-5,5-5h9c2.8,0,5,2.2,5,5v7C53,102.8,50.8,105,48,105z M39,90
		c-1.7,0-3,1.3-3,3v7c0,1.7,1.3,3,3,3h9c1.7,0,3-1.3,3-3v-7c0-1.7-1.3-3-3-3H39z"/>
	<path class="st2" d="M88,105h-9c-2.8,0-5-2.2-5-5v-7c0-2.8,2.2-5,5-5h9c2.8,0,5,2.2,5,5v7C93,102.8,90.8,105,88,105z M79,90
		c-1.7,0-3,1.3-3,3v7c0,1.7,1.3,3,3,3h9c1.7,0,3-1.3,3-3v-7c0-1.7-1.3-3-3-3H79z"/>
	<path class="st1" d="M80,32H50c-17.1,0-31,14.1-31,31.2v3c0,13.6,8.8,25.2,21.1,29.4c0,0.2-0.1,0.4-0.1,0.6v4c0,2.2,1.8,3.8,4,3.8
		h9c2.2,0,4-1.6,4-3.8V97h23v3.2c0,2.2,1.8,3.8,4,3.8h9c2.2,0,4-1.6,4-3.8v-7c0-0.3-0.1-0.7-0.1-1c8.5-5.5,14.1-15.1,14.1-26v-3
		C111,46.1,97.1,32,80,32z"/>
	<ellipse class="st2" cx="40" cy="53" rx="2" ry="3"/>
	<path class="st4" d="M93,99h-9c-2.2,0-4-3.5-4-5s-0.9-2-2-2s-18.3,0-19,0s-2,0.5-2,2s-1.8,4-4,4h-7c-2.2,0-4-1.7-4-3.9
		c0,0,0-4.4,0.1-4.6c-11.7-3.9-22.2-15.6-23-28.4c0,0.7-0.1,1.4-0.1,2.1v3c0,13.6,8.8,25.2,21.1,29.4c0,0.2-0.1,0.4-0.1,0.6v4
		c0,2.2,1.8,3.8,4,3.8h9c2.2,0,4-1.6,4-3.8V97h23v3.2c0,2.2,1.8,3.8,4,3.8h9c2.2,0,4-1.6,4-3.8v-7C97,95.4,95.2,99,93,99z"/>
	<ellipse class="st2" cx="28" cy="53" rx="2" ry="3"/>
	<path class="st2" d="M34,82c-0.6,0-1-0.5-1-1c0-0.6,0.5-1,1-1c0.2,0,4.9-0.1,6.9-6.3c0.2-0.5,0.8-0.8,1.3-0.6
		c0.5,0.2,0.8,0.8,0.7,1.3C40.4,81.9,34.3,82,34,82z"/>
	<path class="st2" d="M107.5,48.2c-0.4,0-0.8-0.2-0.9-0.6c-0.2-0.5,0-1.1,0.5-1.3c0.2-0.1,3.1-1.4,4.7-3.8c-1.4-0.3-2.8-0.9-3.8-1.6
		c-1.9-1.2-3-2.8-3-4.4c0-2.2,1.5-4.1,3.5-4.5c0.8-0.2,3.7-0.4,5.6,4.1c0.7,1.7,0.8,3.3,0.5,4.7c1.6,0,3.3-0.2,4.9-1
		c0.5-0.2,1.1,0,1.3,0.5c0.2,0.5,0,1.1-0.5,1.3c-2.1,1-4.4,1.3-6.5,1.2c-1.4,2.6-4.1,4.5-6,5.3C107.8,48.2,107.7,48.2,107.5,48.2z
		 M109.3,33.9c-0.1,0-0.2,0-0.4,0c-1.1,0.2-1.9,1.3-1.9,2.6c0,0.8,0.8,1.8,2.1,2.7c1,0.6,2.2,1.1,3.6,1.4c0.3-1.1,0.2-2.3-0.4-3.7
		C111.5,35,110.4,33.9,109.3,33.9z"/>
	<circle class="st5" cx="72.3" cy="14.9" r="9.3"/>
	<path class="st2" d="M81,40H63c-1.1,0-2-0.9-2-2s0.9-2,2-2h18c1.1,0,2,0.9,2,2S82.1,40,81,40z"/>
	<path class="st2" d="M93,105h-9c-2.9,0-5-2.1-5-4.8V98H58v2.2c0,2.7-2.1,4.8-5,4.8h-9c-2.9,0-5-2.1-5-4.8v-4
		c-12.6-4.6-21-16.6-21-30v-3C18,45.5,32.4,31,50,31h30c17.6,0,32,14.5,32,32.2v3c0,10.6-5.2,20.5-14,26.5c0,0.2,0,0.4,0,0.5v7
		C98,102.9,95.9,105,93,105z M57,96h23c0.6,0,1,0.4,1,1v3.2c0,1.6,1.3,2.8,3,2.8h9c1.7,0,3-1.2,3-2.8v-7c0-0.2,0-0.5-0.1-0.7
		c-0.1-0.4,0.1-0.9,0.4-1.1c8.6-5.6,13.7-15,13.7-25.2v-3C110,46.6,96.5,33,80,33H50c-16.5,0-30,13.6-30,30.2v3
		c0,12.9,8.2,24.3,20.4,28.4c0.5,0.2,0.7,0.6,0.7,1.1c0,0.2-0.1,0.3-0.1,0.5v4c0,1.6,1.3,2.8,3,2.8h9c1.7,0,3-1.2,3-2.8V97
		C56,96.4,56.4,96,57,96z"/>
	<path class="st1" d="M57.1,35.3c0,0-5.7-7.4-14.9-7.8c-9.2-0.4-5,2.2-3.4,4.9c0.7,1.2,1.6,4.1,2.3,6.9"/>
	<path class="st2" d="M40.7,40c-0.5,0-0.9-0.3-1-0.8c-1.2-4.4-1.9-6.1-2.2-6.8c-0.3-0.5-0.7-1-1-1.4c-0.9-1.2-1.9-2.4-1.2-3.6
		c0.6-1.2,2.5-1.6,6.7-1.4c9.7,0.5,15.7,8,16,8.3c0.3,0.4,0.3,1.1-0.2,1.4c-0.4,0.3-1.1,0.3-1.4-0.2c-0.1-0.1-5.7-7.1-14.4-7.5
		c-3.4-0.2-4.5,0.1-4.8,0.3c0.1,0.3,0.7,1,1,1.5c0.4,0.5,0.8,1.1,1.2,1.7c0.6,1.1,1.5,3.6,2.4,7.2c0.1,0.5-0.2,1.1-0.7,1.2
		C40.9,40,40.8,40,40.7,40z"/>
	<path class="st1" d="M36,68c0,5-4,9-9,9h-4c-5,0-9-4-9-9l0,0c0-5,4-9,9-9h4C32,59,36,63,36,68L36,68z"/>
	<path class="st4" d="M27,73h-4c-4.3,0-7.9-2.9-8.8-6.9c-0.1,0.6-0.2,1.3-0.2,1.9c0,5,4,8.9,9,8.9h4c5,0,9-3.9,9-8.9
		c0-0.7-0.1-1.4-0.2-2.1C34.9,70.1,31.3,73,27,73z"/>
	<path class="st2" d="M27,78h-4c-5.5,0-10-4.5-10-10c0-5.5,4.5-10,10-10h4c5.5,0,10,4.5,10,10C37,73.5,32.5,78,27,78z M23,60
		c-4.4,0-8,3.6-8,8s3.6,8,8,8h4c4.4,0,8-3.6,8-8s-3.6-8-8-8H23z"/>
	<ellipse class="st6" cx="20.5" cy="67.4" rx="1.5" ry="1.4"/>
	<ellipse class="st6" cx="26.5" cy="67.4" rx="1.5" ry="1.4"/>
	<path class="st2" d="M72.5,25C66.7,25,62,20.3,62,14.5C62,8.7,66.7,4,72.5,4S83,8.7,83,14.5C83,20.3,78.3,25,72.5,25z M72.5,6
		C67.8,6,64,9.8,64,14.5c0,4.7,3.8,8.5,8.5,8.5s8.5-3.8,8.5-8.5C81,9.8,77.2,6,72.5,6z"/>
	<ellipse class="st7" cx="72.5" cy="14.4" rx="5.5" ry="5.4"/>
	<path class="st8" d="M93,96.5c-0.6,0-1-0.4-1-1c0-6.6,2-8.2,3.5-9.3l0.3-0.2c0.9-0.8,9.2-7.8,9.2-23.5c0-3.9-1.1-7.6-3.2-11
		c-0.3-0.5-0.1-1.1,0.3-1.4c0.5-0.3,1.1-0.1,1.4,0.3c2.3,3.7,3.4,7.8,3.4,12c0,16.6-8.9,24.2-10,25l-0.3,0.3c-1.2,0.9-2.7,2-2.7,7.7
		C94,96,93.6,96.5,93,96.5z"/>
	<path class="st8" d="M97.9,46.3c-0.3,0-0.5-0.1-0.7-0.3c-4-4-8.1-6-8.2-6c-0.5-0.2-0.7-0.9-0.5-1.4c0.2-0.5,0.8-0.7,1.3-0.5
		c0.2,0.1,4.5,2.2,8.7,6.4c0.4,0.4,0.4,1.1,0,1.5C98.5,46.2,98.2,46.3,97.9,46.3z"/>
	<path class="st8" d="M32,67.2c-0.4,0-0.8-0.3-1-0.7c-0.7-2.4-3.4-2.5-6.7-2.5c-0.4,0-0.7,0-1,0c-0.6,0-1-0.5-1-1c0-0.6,0.5-1,1-1
		c0.3,0,0.7,0,1,0c3-0.1,7.4-0.1,8.7,3.9c0.2,0.5-0.1,1.1-0.7,1.3C32.2,67.2,32.1,67.2,32,67.2z"/>
	<path class="st8" d="M52,36c-0.2,0-0.5-0.1-0.7-0.3c-4.6-4.2-9.3-4.8-9.3-4.8c-0.5-0.1-0.9-0.6-0.9-1.1c0.1-0.5,0.6-0.9,1.1-0.8
		c0.2,0,5.4,0.7,10.4,5.3c0.4,0.4,0.4,1,0,1.4C52.5,35.9,52.3,36,52,36z"/>
	<path class="st8" d="M34.1,33.9c-0.2,0-0.5-0.1-0.7-0.3c-1.3-1.3-4.3-1.7-5.4-1.8c-0.6,0-1-0.5-0.9-1.1c0-0.6,0.5-1,1.1-0.9
		c0.2,0,4.5,0.4,6.6,2.4c0.4,0.4,0.4,1,0,1.4C34.7,33.8,34.4,33.9,34.1,33.9z"/>
	<path class="st8" d="M80,44H64c-0.6,0-1-0.4-1-1s0.4-1,1-1h16c0.6,0,1,0.4,1,1S80.6,44,80,44z"/>
	<path class="st8" d="M29,47c-0.2,0-0.3,0-0.5-0.1c-0.4-0.3-0.6-0.9-0.3-1.3c2.9-4.6,8.2-7.1,8.4-7.2c0.5-0.2,1,0,1.3,0.5
		c0.2,0.5,0,1-0.5,1.3c0,0-5,2.4-7.6,6.5C29.6,46.8,29.3,47,29,47z"/>
	<path class="st2" d="M99.1,105H24c-0.6,0-1-0.4-1-1s0.4-1,1-1h75.1c0.6,0,1,0.4,1,1S99.6,105,99.1,105z"/>
	<path class="st2" d="M115,105h-10c-0.5,0-1-0.4-1-1s0.4-1,1-1h10c0.5,0,1,0.4,1,1S115.6,105,115,105z"/>
	<path class="st9" d="M46.9,22c-2.1,0-3.9-1.8-3.9-4c0-2.2,1.7-4,3.9-4s3.9,1.8,3.9,4C50.8,20.2,49,22,46.9,22z M46.9,15.9
		c-1.1,0-2.1,1-2.1,2.1c0,1.2,0.9,2.1,2.1,2.1s2.1-1,2.1-2.1C49,16.8,48,15.9,46.9,15.9z"/>
	<path class="st9" d="M53,119c-2.2,0-4-1.8-4-4c0-2.2,1.8-4,4-4s4,1.8,4,4C57,117.2,55.2,119,53,119z M53,112.9
		c-1.2,0-2.1,1-2.1,2.1c0,1.2,1,2.1,2.1,2.1s2.1-1,2.1-2.1C55.1,113.8,54.2,112.9,53,112.9z"/>
	<path class="st9" d="M84.8,22.3c0-0.4,0.4-0.8,1-0.9l1.9-0.3c0.5-0.1,1.1-0.6,1.1-1.1l0.3-1.9c0.1-0.5,0.5-1,0.9-1
		c0.4,0,0.8,0.4,0.9,1L91,20c0.1,0.5,0.6,1.1,1.1,1.1l1.9,0.3c0.5,0.1,1,0.5,1,0.9c0,0.4-0.4,0.8-1,0.9l-1.9,0.3
		c-0.5,0.1-1.1,0.6-1.1,1.1l-0.3,1.9c-0.1,0.5-0.5,1-0.9,1c-0.4,0-0.8-0.4-0.8-1l-0.3-2.1c-0.1-0.5-0.6-1-1.1-1.1l-1.8-0.1
		C85.2,23,84.8,22.7,84.8,22.3z"/>
	<path class="st9" d="M91.7,43.4c0-0.4-0.4-0.8-1-0.9l-4.8-0.8c-0.5-0.1-1.1-0.6-1.2-1.2l-0.8-4.8c-0.1-0.5-0.5-1-0.9-1
		c-0.4,0-0.8,0.4-0.9,1l-0.8,4.8c-0.1,0.5-0.6,1.1-1.2,1.2l-4.8,0.8c-0.5,0.1-1,0.5-1,0.9c0,0.4,0.4,0.8,1,0.9L80,45
		c0.5,0.1,1.1,0.6,1.2,1.1l0.9,5c0.1,0.5,0.5,1,0.9,1c0.4,0,0.8-0.4,0.9-1l0.9-5.1c0.1-0.5,0.6-1,1.2-1.1l4.7-0.6
		C91.2,44.3,91.7,43.9,91.7,43.4z"/>
	<path class="st8" d="M70.3,89c-4.1,0-8.2-0.4-12.1-1.2c-0.5-0.1-0.9-0.7-0.8-1.2c0.1-0.6,0.6-0.9,1.2-0.8c3.7,0.8,7.6,1.2,11.7,1.2
		c15.8,0,24.1-8,24.2-8.1c0.4-0.4,1-0.4,1.4,0c0.4,0.4,0.4,1.1,0,1.5C95.6,80.7,87,89,70.3,89z"/>
</g>
</svg>
