<?xml version="1.0" encoding="utf-8"?>
<!-- Generator: Adobe Illustrator 21.0.2, SVG Export Plug-In . SVG Version: 6.00 Build 0)  -->
<svg version="1.1" id="trafficlight" xmlns="http://www.w3.org/2000/svg" xmlns:xlink="http://www.w3.org/1999/xlink" x="0px"
	 y="0px" viewBox="0 0 128 128" style="enable-background:new 0 0 128 128;" xml:space="preserve">
<style type="text/css">
	.st0{fill:#D3D1D1;}
	.st1{opacity:0.5;fill:#FFFFFF;}
	.st2{fill:#415E6D;}
	.st3{fill:#233E49;}
	.st4{fill:#EAEAEA;}
	.st5{fill:#D4D6D6;}
	.st6{fill:#2D4552;}
	.st7{fill:#FF4848;}
	.st8{fill:#E8372E;}
	.st9{fill:#FBD000;}
	.st10{fill:#F4B10B;}
	.st11{fill:#75B600;}
	.st12{fill:#5C8E0D;}
	.st13{fill:#FFFFFF;}
</style>
<g>
	<circle class="st0" cx="64" cy="64" r="64"/>
	<path class="st1" d="M103.4,100.5c0-0.4-0.4-0.8-1-0.9l-1.9-0.3c-0.5-0.1-1.1-0.6-1.1-1.1l-0.3-1.9c-0.1-0.5-0.5-1-0.9-1
		c-0.4,0-0.8,0.4-0.9,1l-0.3,1.9c-0.1,0.5-0.6,1.1-1.1,1.1l-1.9,0.3c-0.5,0.1-1,0.5-1,0.9c0,0.4,0.4,0.8,1,0.9l1.9,0.3
		c0.5,0.1,1.1,0.6,1.1,1.1l0.3,1.9c0.1,0.5,0.5,1,0.9,1c0.4,0,0.8-0.4,0.8-1l0.3-2.1c0.1-0.5,0.6-1,1.1-1.1l1.8-0.1
		C103,101.3,103.4,100.9,103.4,100.5z"/>
	<path class="st1" d="M106,39.5c0-0.4-0.4-0.8-1-0.9l-1.9-0.3c-0.5-0.1-1.1-0.6-1.1-1.1l-0.3-1.9c-0.1-0.5-0.5-1-0.9-1
		c-0.4,0-0.8,0.4-0.9,1l-0.3,1.9c-0.1,0.5-0.6,1.1-1.1,1.1l-1.9,0.3c-0.5,0.1-1,0.5-1,0.9c0,0.4,0.4,0.8,1,0.9l1.9,0.3
		c0.5,0.1,1.1,0.6,1.1,1.1l0.3,1.9c0.1,0.5,0.5,1,0.9,1c0.4,0,0.8-0.4,0.8-1l0.3-2.1c0.1-0.5,0.6-1,1.1-1.1l1.8-0.1
		C105.5,40.2,106,39.9,106,39.5z"/>
	<path class="st1" d="M24,67.2c0-0.4-0.4-0.8-1-0.9l-1.9-0.3C20.6,66,20.1,65.5,20,65l-0.3-1.9c-0.1-0.5-0.5-1-0.9-1
		c-0.4,0-0.8,0.4-0.9,1L17.7,65c-0.1,0.5-0.6,1.1-1.1,1.1l-1.9,0.3c-0.5,0.1-1,0.5-1,0.9s0.4,0.8,1,0.9l1.9,0.3
		c0.5,0.1,1.1,0.6,1.1,1.1l0.3,1.9c0.1,0.5,0.5,1,0.9,1c0.4,0,0.8-0.4,0.9-1l0.3-2.1c0.1-0.5,0.6-1,1.1-1.1L23,68
		C23.5,68,24,67.6,24,67.2z"/>
	<path class="st1" d="M110,67c-2.2,0-4-1.8-4-4c0-2.2,1.8-4,4-4c2.2,0,4,1.8,4,4C114,65.2,112.2,67,110,67z M110,60.9
		c-1.2,0-2.1,1-2.1,2.1c0,1.2,1,2.1,2.1,2.1c1.2,0,2.1-1,2.1-2.1C112.1,61.8,111.2,60.9,110,60.9z"/>
	<path class="st1" d="M26,97c-2.2,0-4-1.8-4-4c0-2.2,1.8-4,4-4c2.2,0,4,1.8,4,4C30,95.2,28.2,97,26,97z M26,90.9
		c-1.2,0-2.1,1-2.1,2.1c0,1.2,1,2.1,2.1,2.1c1.2,0,2.1-1,2.1-2.1C28.1,91.8,27.2,90.9,26,90.9z"/>
	<path class="st1" d="M24,45c-2.2,0-4-1.8-4-4c0-2.2,1.8-4,4-4c2.2,0,4,1.8,4,4C28,43.2,26.2,45,24,45z M24,38.9
		c-1.2,0-2.1,1-2.1,2.1c0,1.2,1,2.1,2.1,2.1c1.2,0,2.1-1,2.1-2.1C26.1,39.8,25.2,38.9,24,38.9z"/>
	<path class="st2" d="M32.7,22.4c0-1,2.8-0.9,3.9-0.9h6c1.1,0,2,0.9,2,2V33c0,1.1-0.9,2-2,2h0c-1.1,0-2-0.9-2.1-2
		c0,0-0.5-2.8-1.9-5.4C36.9,24.4,32.7,24,32.7,22.4z"/>
	<path class="st3" d="M42.7,35L42.7,35c-1.6,0-2.9-1.2-3.1-2.7c-0.1-0.4-0.6-2.6-1.8-4.7c-0.8-1.4-2.2-2.1-3.4-2.8
		c-1.3-0.7-2.4-1.3-2.4-2.5c0-1.4,1.7-1.7,3.1-1.9c0.5-0.1,1.1-0.2,1.3-0.3c0.1-0.1,0.3-0.1,0.4-0.1h5.9c0.1,0,0.3,0,0.4,0.1
		c1.6,0.7,2.5,1.9,2.5,3.2v8.9C45.6,33.7,44.3,35,42.7,35z M34.2,22.4c0.3,0.2,0.8,0.5,1.2,0.7c1.4,0.7,3.2,1.7,4.2,3.6
		c1.4,2.5,1.9,5.2,1.9,5.3c0,0,0,0.1,0,0.1c0,0.5,0.5,1,1.1,1h0c0.5,0,1-0.4,1-0.9v-8.9c0-0.6-0.6-1.1-1.2-1.4H37
		c-0.5,0.2-1,0.3-1.6,0.3C35,22.3,34.5,22.4,34.2,22.4z"/>
	<path class="st2" d="M32.7,49.8c0-1,2.8-0.9,3.9-0.9h6c1.1,0,2,0.9,2,2v9.5c0,1.1-0.9,2-2,2h0c-1.1,0-2-0.9-2.1-2
		c0,0-0.5-2.8-1.9-5.4C36.9,51.8,32.7,51.3,32.7,49.8z"/>
	<path class="st4" d="M59.9,127.9c1.3,0.1,2.6,0.1,3.9,0.1c1.3,0,2.6-0.1,3.9-0.1V98.6h-7.7V127.9z"/>
	<rect x="60" y="109.2" class="st5" width="7.2" height="6.8"/>
	<path class="st3" d="M67.6,97.6h-7.7c-0.9,0-0.9,0.4-0.9,1v29.3c0.7,0,1.3,0.1,2,0.1V99.6h6v28.4c0.7,0,1.3-0.1,2-0.1V98.6
		C69,98,68.1,97.6,67.6,97.6z"/>
	<path class="st3" d="M42.7,63L42.7,63c-1.6,0-2.9-1.2-3.1-2.8c-0.1-0.4-0.6-2.7-1.8-4.9c-0.8-1.5-2.2-2.2-3.4-2.9
		C33.2,51.6,32,51,32,49.7c0-0.8,0.6-1.7,3.3-1.7c0.5,0,1.1-0.1,1.6,0h5.8c1.6-0.2,3,1.1,3,2.8v9.3C45.6,61.7,44.3,63,42.7,63z
		 M34.2,49.9c0.3,0.2,0.8,0.5,1.2,0.7c1.4,0.7,3.2,1.8,4.2,3.7c1.4,2.7,1.9,5.4,1.9,5.5c0,0,0,0.1,0,0.1c0,0.6,0.5,1,1.1,1h0
		c0.5,0,1-0.4,1-1v-9.3c0-0.5-0.4-0.9-0.8-0.8c0,0-0.1,0-0.1,0h-5.9c0,0-0.1,0-0.1,0c-0.3,0-0.8-0.1-1.4-0.1
		C34.8,49.8,34.4,49.9,34.2,49.9z"/>
	<path class="st2" d="M32.7,77.1c0-1,2.8-1.1,3.9-1.1l6,0.2c1.1,0,2,0.9,2,2v9.5c0,1.1-0.9,2-2,2h0c-1.1,0-2-0.9-2.1-2
		c0,0-0.5-2.8-1.9-5.4C36.9,79.1,32.7,78.7,32.7,77.1z"/>
	<path class="st3" d="M42.7,91L42.7,91c-1.6,0-2.9-1.3-3.1-2.9c-0.1-0.4-0.6-2.9-1.8-5.2c-0.8-1.5-2.2-2.3-3.4-3.1
		c-1.3-0.7-2.4-1.4-2.4-2.7c0-2.1,3.4-2.1,4.8-2.1h5.9c1.6,0,2.9,1.5,2.9,3.2v9.7C45.6,89.6,44.3,91,42.7,91z M34.1,77.3
		c0.3,0.2,0.8,0.5,1.2,0.8c1.4,0.8,3.2,1.8,4.2,3.9c1.4,2.8,1.9,5.6,1.9,5.8c0,0,0,0.1,0,0.1c0,0.6,0.5,1.1,1.1,1.1h0
		c0.5,0,1-0.5,1-1v-9.7c0-0.6-0.5-1.2-1-1.2h-5.9C35.3,77,34.5,77.2,34.1,77.3z"/>
	<path class="st2" d="M93.8,22.4c0-1-2.8-0.9-3.9-0.9h-6c-1.1,0-2,0.9-2,2V33c0,1.1,0.9,2,2,2h0c1.1,0,2-0.9,2.1-2
		c0,0,0.5-2.8,1.9-5.4C89.5,24.4,93.8,24,93.8,22.4z"/>
	<path class="st3" d="M83.9,35L83.9,35c-1.7,0-3.1-1.3-3.1-2.8v-8.9c0-1.5,1.3-3.3,3.1-3.3H90c0,0,5,0,5,2.3c0,1.2-1.2,1.9-2.5,2.5
		c-1.3,0.7-2.8,1.4-3.6,2.8c-1.2,2.1-1.7,4.4-1.8,4.7C86.9,33.8,85.5,35,83.9,35z M83.9,21.9c-0.4,0-1,0.8-1,1.4v8.9
		c0,0.5,0.5,0.9,1,0.9h0c0.6,0,1.1-0.4,1.1-1c0,0,0-0.1,0-0.1c0-0.1,0.6-2.7,2-5.3c1.1-1.9,3-2.9,4.4-3.6c0.4-0.2,1.1-0.5,1.4-0.8
		c-0.5-0.2-1.9-0.5-2.8-0.5H83.9z"/>
	<path class="st2" d="M93.8,49.8c0-1-2.8-0.9-3.9-0.9h-6c-1.1,0-2,0.9-2,2v9.5c0,1.1,0.9,2,2,2h0c1.1,0,2-0.9,2.1-2
		c0,0,0.5-2.8,1.9-5.4C89.5,51.8,93.8,51.3,93.8,49.8z"/>
	<path class="st3" d="M83.9,63L83.9,63c-1.7,0-3.1-1.3-3.1-2.9v-9.3c0-1.6,1.4-3,3.1-2.8h6c0.5-0.1,1.1,0,1.7,0
		c2.8,0,3.4,0.9,3.4,1.7c0,1.3-1.2,1.9-2.5,2.6c-1.3,0.7-2.8,1.5-3.6,2.9c-1.2,2.2-1.7,4.5-1.8,4.9C86.9,61.8,85.5,63,83.9,63z
		 M83.6,49.9c-0.4,0-0.8,0.4-0.8,0.8v9.3c0,0.5,0.5,1,1,1h0c0.6,0,1.1-0.5,1.1-1c0,0,0-0.1,0-0.1c0-0.1,0.6-2.9,2-5.5
		c1.1-2,3-3,4.4-3.7c0.4-0.2,0.9-0.5,1.2-0.7c-0.2,0-0.6-0.1-1.1-0.1c-0.6,0-1.1,0-1.4,0.1c-0.1,0-0.1,0-0.2,0h-6.1
		c-0.1,0-0.1,0-0.2,0C83.7,49.9,83.6,49.9,83.6,49.9z"/>
	<path class="st2" d="M93.8,77.1c0-1-2.8-0.9-3.9-0.9h-6c-1.1,0-2,0.9-2,2v9.5c0,1.1,0.9,2,2,2h0c1.1,0,2-0.9,2.1-2
		c0,0,0.5-2.8,1.9-5.4C89.5,79.1,93.8,78.7,93.8,77.1z"/>
	<path class="st3" d="M83.9,91L83.9,91c-1.7,0-3.1-1.4-3.1-3.1v-9.7c0-1.6,1.2-3,2.9-3.2c0.1,0,0.1,0,0.2,0H90c0.1,0,0.1,0,0.2,0
		c0.2,0,0.6,0.1,0.9,0.1c1.7,0.1,3.9,0.3,3.9,2c0,1.3-1.2,2-2.5,2.7c-1.3,0.7-2.8,1.5-3.6,3.1c-1.2,2.3-1.7,4.8-1.8,5.2
		C86.9,89.7,85.5,91,83.9,91z M84,77c-0.6,0.1-1.1,0.6-1.1,1.2v9.7c0,0.6,0.5,1,1,1h0c0.6,0,1.1-0.5,1.1-1.1c0,0,0-0.1,0-0.1
		c0-0.1,0.6-3,2-5.8c1.1-2.1,3-3.1,4.4-3.9c0.4-0.2,0.9-0.5,1.2-0.7c-0.5-0.1-1.3-0.2-1.8-0.2c-0.4,0-0.7-0.1-1-0.1H84z"/>
	<path class="st2" d="M84.6,101.7c0,4.4-3.6,8-8,8H50.8c-4.4,0-8-3.6-8-8V22c0-4.4,3.6-8,8-8h25.8c4.4,0,8,3.6,8,8V101.7z"/>
	<path class="st6" d="M76.6,104H50.8c-4.4,0-8-3.6-8-8v6.2c0,4.4,3.6,8,8,8h25.8c4.4,0,8-3.6,8-8V96C84.6,100.4,81,104,76.6,104z"/>
	<path class="st3" d="M76,111H51c-5,0-9-4-9-9V22c0-5,4-9,9-9h25c5,0,9,4,9,9v80C85,107,81,111,76,111z M51,15c-3.9,0-7,3.1-7,7v80
		c0,3.9,3.1,7,7,7h25c3.9,0,7-3.1,7-7V22c0-3.9-3.1-7-7-7H51z"/>
	<circle class="st7" cx="63.7" cy="34.3" r="11"/>
	<path class="st8" d="M63.7,28.8c5.1,0,9.4,3.5,10.6,8.2c0.2-0.9,0.4-1.8,0.4-2.8c0-6.1-4.9-11-11-11s-11,4.9-11,11
		c0,1,0.1,1.9,0.4,2.8C54.3,32.3,58.6,28.8,63.7,28.8z"/>
	<circle class="st9" cx="63.7" cy="62.7" r="11"/>
	<path class="st10" d="M63.7,56.3c5.1,0,9.4,3.5,10.6,8.2c0.2-0.9,0.4-1.8,0.4-2.8c0-6.1-4.9-11-11-11s-11,4.9-11,11
		c0,1,0.1,1.9,0.4,2.8C54.3,59.8,58.6,56.3,63.7,56.3z"/>
	<path class="st3" d="M63.5,74.7c-6.9,0-12.5-5.4-12.5-12c0-6.6,5.6-12,12.5-12c6.9,0,12.5,5.4,12.5,12C76,69.3,70.4,74.7,63.5,74.7
		z M63.5,52.7c-5.7,0-10.4,4.5-10.4,10c0,5.5,4.7,10,10.4,10c5.7,0,10.4-4.5,10.4-10C73.9,57.2,69.2,52.7,63.5,52.7z"/>
	<circle class="st11" cx="63.7" cy="91" r="11"/>
	<path class="st12" d="M63.7,84.8c5.1,0,9.4,3.5,10.6,8.2c0.2-0.9,0.4-1.8,0.4-2.8c0-6.1-4.9-11-11-11s-11,4.9-11,11
		c0,1,0.1,1.9,0.4,2.8C54.3,88.3,58.6,84.8,63.7,84.8z"/>
	<path class="st3" d="M63.5,103C56.6,103,51,97.6,51,91s5.6-12,12.5-12C70.4,79,76,84.4,76,91S70.4,103,63.5,103z M63.5,81
		c-5.7,0-10.4,4.5-10.4,10s4.7,10,10.4,10c5.7,0,10.4-4.5,10.4-10S69.2,81,63.5,81z"/>
	<path class="st3" d="M63.4,46.3c-6.8,0-12.4-5.4-12.4-12s5.5-12,12.4-12c6.8,0,12.4,5.4,12.4,12S70.2,46.3,63.4,46.3z M63.4,24.3
		c-5.7,0-10.3,4.5-10.3,10s4.6,10,10.3,10c5.7,0,10.3-4.5,10.3-10S69,24.3,63.4,24.3z"/>
	<path class="st2" d="M63.7,24.3c6,0,10.9,4.4,11.7,10.2c0.1-0.6,0.1-1.1,0.1-1.7c0-6.6-5.3-11.9-11.9-11.9
		c-6.6,0-11.9,5.3-11.9,11.9c0,0.6,0.1,1.2,0.1,1.7C52.8,28.7,57.7,24.3,63.7,24.3z"/>
	<path class="st3" d="M74.9,35.4L74.9,35.4c-0.5,0-0.9-0.4-1-0.9c-0.7-5.3-5.2-9.3-10.4-9.3c-5.2,0-9.7,4-10.4,9.3
		c-0.1,0.5-0.5,0.9-1,0.9c0,0,0,0,0,0c-0.5,0-0.9-0.4-1-0.9C51,33.9,51,33.3,51,32.7c0-7.1,5.6-12.9,12.5-12.9S76,25.6,76,32.7
		c0,0.6,0,1.2-0.1,1.9C75.8,35.1,75.4,35.4,74.9,35.4z M63.5,21.8c-4,0-7.5,2.3-9.3,5.7c2.3-2.7,5.7-4.3,9.3-4.3
		c3.6,0,7,1.7,9.3,4.3C71,24.2,67.5,21.8,63.5,21.8z"/>
	<path class="st2" d="M63.7,51.9c6,0,10.9,4.4,11.7,10.2c0.1-0.6,0.1-1.1,0.1-1.7c0-6.6-5.3-11.9-11.9-11.9
		c-6.6,0-11.9,5.3-11.9,11.9c0,0.6,0.1,1.2,0.1,1.7C52.8,56.4,57.7,51.9,63.7,51.9z"/>
	<path class="st3" d="M74.9,63.1L74.9,63.1c-0.5,0-0.9-0.4-1-0.9c-0.7-5.3-5.2-9.3-10.4-9.3c-5.2,0-9.7,4-10.4,9.3
		c-0.1,0.5-0.5,0.9-1,0.9c0,0,0,0,0,0c-0.5,0-0.9-0.4-1-0.9C51,61.6,51,61,51,60.4c0-7.1,5.6-12.9,12.5-12.9S76,53.3,76,60.4
		c0,0.6,0,1.2-0.1,1.9C75.8,62.7,75.4,63.1,74.9,63.1z M63.5,49.5c-4,0-7.5,2.3-9.3,5.7c2.3-2.7,5.7-4.3,9.3-4.3
		c3.6,0,7,1.7,9.3,4.3C71,51.8,67.5,49.5,63.5,49.5z"/>
	<path class="st2" d="M63.7,80c6,0,10.9,4.4,11.7,10.2c0.1-0.6,0.1-1.1,0.1-1.7c0-6.6-5.3-11.9-11.9-11.9c-6.6,0-11.9,5.3-11.9,11.9
		c0,0.6,0.1,1.2,0.1,1.7C52.8,84.4,57.7,80,63.7,80z"/>
	<path class="st3" d="M74.9,91.2L74.9,91.2c-0.5,0-0.9-0.4-1-0.9C73.2,85,68.7,81,63.5,81c-5.2,0-9.7,4-10.4,9.3
		c-0.1,0.5-0.5,0.9-1,0.9c0,0,0,0,0,0c-0.5,0-0.9-0.4-1-0.9C51,89.6,51,89,51,88.5c0-7.1,5.6-12.9,12.5-12.9S76,81.4,76,88.5
		c0,0.6,0,1.2-0.1,1.9C75.8,90.8,75.4,91.2,74.9,91.2z M63.5,77.6c-4,0-7.5,2.3-9.3,5.7c2.3-2.7,5.7-4.3,9.3-4.3
		c3.6,0,7,1.7,9.3,4.3C71,79.9,67.5,77.6,63.5,77.6z"/>
	<path class="st13" d="M63.7,43.1c-0.6,0-1-0.4-1-1c0-0.6,0.4-1,1-1c3.7,0,6.7-3,6.7-6.7c0-0.6,0.4-1,1-1c0.6,0,1,0.4,1,1
		C72.4,39.1,68.5,43.1,63.7,43.1z"/>
	<path class="st13" d="M63.7,71c-0.5,0-1-0.4-1-1c0-0.5,0.4-1,1-1c3.5,0,6.4-2.9,6.4-6.5c0-0.5,0.4-1,1-1c0.5,0,1,0.4,1,1
		C72,67.2,68.3,71,63.7,71z"/>
	<path class="st13" d="M63.7,99c-0.5,0-1-0.4-1-0.9c0-0.5,0.4-0.9,1-0.9c3.5,0,6.4-2.8,6.4-6.3c0-0.5,0.4-0.9,1-0.9
		c0.5,0,1,0.4,1,0.9C72,95.3,68.3,99,63.7,99z"/>
	<path class="st1" d="M80,99c-0.6,0-1-0.5-1-1V81c0-0.6,0.4-1,1-1s1,0.5,1,1v17C81,98.5,80.6,99,80,99z"/>
	<path class="st1" d="M80,74.8c-0.6,0-1-0.4-1-1V24c0-2.8-2.2-5-5-5H51.9c-0.6,0-1-0.4-1-1s0.4-1,1-1H74c3.9,0,7,3.1,7,7v49.8
		C81,74.3,80.6,74.8,80,74.8z"/>
	<path class="st13" d="M64,126c-0.6,0-1-0.4-1-0.9v-6.2c0-0.5,0.4-0.9,1-0.9s1,0.4,1,0.9v6.2C65,125.6,64.6,126,64,126z"/>
</g>
</svg>
